<?xml version="1.0" encoding="UTF-8"?>
<svg xmlns="http://www.w3.org/2000/svg" xmlns:xlink="http://www.w3.org/1999/xlink" id="Laag_1" data-name="Laag 1" viewBox="0 0 201.5 204.33">
  <defs>
    <style>.cls-1{fill:none;}.cls-2{fill:#8b734b;}.cls-3{clip-path:url(#clip-path);}.cls-4{clip-path:url(#clip-path-2);}.cls-5{clip-path:url(#clip-path-3);}.cls-6{fill:#1d1d1b;}</style>
    <clipPath id="clip-path">
      <rect class="cls-1" x="54.8" y="-3.96" width="81.63" height="181.03"></rect>
    </clipPath>
    <clipPath id="clip-path-2">
      <path class="cls-1" d="M101.66,80.5V65c1.17-6.46,5.26-10.29,11-10.29,9.18,0,12.44,8.91,12.44,16.55,0,15.31-8.09,17.6-12.91,17.6-5.67,0-9.57-3.09-10.57-8.31M89.51,0V78.78c-1.22,6.24-5.2,10-10.8,10a12.08,12.08,0,0,1-6.78-2.09c-4.06-3.1-5.51-9.09-5.51-14.46s.9-7.22,2-9.54L58.35,58.23c-2.57,4.36-3.55,7.82-3.55,14,0,15.67,9.31,25.79,23.73,25.79h.39c.61,0,1.21,0,1.81,0a19.68,19.68,0,0,0-1.83,1.93c-3.94,4.74-6,11.32-6,19,0,15.67,9.31,25.79,23.73,25.79,12.48,0,20.44-7.14,22.43-20.12l.06-.38H107.8l0,.29c-1,6.87-5.17,11-11.15,11-9.18,0-12.44-8.92-12.44-16.55,0-15.32,8.09-17.61,12.91-17.61,5.9,0,9.89,3.35,10.68,9l0,.28h11.27l0-.35A18.87,18.87,0,0,0,113.54,98c7-.28,12.86-3,16.87-7.77s6-11.33,6-19.05c0-15.67-9.32-25.8-23.73-25.8a24.24,24.24,0,0,0-11,2.4V0Z"></path>
    </clipPath>
    <clipPath id="clip-path-3">
      <path class="cls-1" d="M57.9,49.46a7.95,7.95,0,1,0,7.95-8,8,8,0,0,0-7.95,8"></path>
    </clipPath>
  </defs>
  <title>logo</title>
  <path class="cls-2" d="M80.26,153.88l2.85,2.85-2.85,2.86-2.86-2.86Zm2.27,22.88H78V161.59h4.55Z"></path>
  <g class="cls-3">
    <path class="cls-2" d="M91.25,154.49v9.18a4.44,4.44,0,0,1,4-2.39c3.13,0,5,2.73,5,7.37,0,5-1.88,8.41-5.32,8.41a4.8,4.8,0,0,1-4.2-2.79l-1.42,2.48H86.7V154.49Zm2.12,19.44c1.69,0,2.15-2.24,2.15-4.88,0-2.15-.31-4.64-2.06-4.64s-2.21,2.67-2.21,4.67c0,1.84.18,4.85,2.12,4.85"></path>
    <path class="cls-2" d="M113.3,164.59a5.84,5.84,0,0,0-2.46-.61c-1.72,0-3.47,1.41-3.47,5.13,0,2.3.74,5.25,3.26,5.25a5.56,5.56,0,0,0,2.76-.89l1.1,2.33a9.76,9.76,0,0,1-4.82,1.26c-4.64,0-7.09-3.59-7.09-7.89,0-4.91,3.22-7.89,7.52-7.89a9.69,9.69,0,0,1,4.24,1Z"></path>
  </g>
  <g class="cls-4">
    <path class="cls-2" d="M96,1.19l1.19,1.18L96.05,3.53,94.8,2.37ZM98.77.82,97.61,2,96.43.82,97.61-.44Zm-2.34,3.1,1.18-1.18,1.18,1.18L97.61,5.21Zm2.72-.39L98,2.37l1.18-1.18,1.25,1.22Z"></path>
    <path class="cls-2" d="M98,17.51l1.19,1.18L98,19.86l-1.25-1.17Zm2.74-.36-1.16,1.17-1.18-1.18,1.18-1.25Zm-2.34,3.1,1.18-1.18,1.18,1.18-1.18,1.29Zm2.72-.39-1.16-1.17,1.17-1.18,1.25,1.23Z"></path>
    <path class="cls-2" d="M93.1,41l1.18,1.19-1.17,1.16-1.25-1.16Zm2.73-.36-1.16,1.17L93.5,40.59l1.17-1.25ZM93.5,43.7l1.17-1.18,1.19,1.18L94.67,45Zm2.71-.39-1.16-1.16L96.23,41l1.25,1.23Z"></path>
    <polygon class="cls-2" points="90.08 -0.26 91.74 -0.26 91.74 1.39 90.08 1.39 90.08 3.06 88.42 3.06 88.42 1.39 86.78 1.39 86.78 -0.26 88.42 -0.26 88.42 -1.91 90.08 -1.91 90.08 -0.26"></polygon>
    <polygon class="cls-2" points="93.01 19.89 94.67 19.89 94.67 21.54 93.01 21.54 93.01 23.21 91.34 23.21 91.34 21.54 89.71 21.54 89.71 19.89 91.34 19.89 91.34 18.24 93.01 18.24 93.01 19.89"></polygon>
    <polygon class="cls-2" points="102.81 36.98 104.47 36.98 104.47 38.63 102.81 38.63 102.81 40.3 101.15 40.3 101.15 38.63 99.51 38.63 99.51 36.98 101.15 36.98 101.15 35.33 102.81 35.33 102.81 36.98"></polygon>
    <path class="cls-2" d="M88.55,8.05a1.6,1.6,0,1,0,1.6,1.6,1.6,1.6,0,0,0-1.6-1.6m0,2.58a1,1,0,1,1,1-1,1,1,0,0,1-1,1"></path>
    <path class="cls-2" d="M100.06,5.64a.75.75,0,1,1-1.5,0,.75.75,0,0,1,1.5,0"></path>
    <path class="cls-2" d="M102.5,16.43a.75.75,0,1,1-.75-.75.75.75,0,0,1,.75.75"></path>
    <path class="cls-2" d="M97.45,21.54a.75.75,0,1,1-.75-.75.75.75,0,0,1,.75.75"></path>
    <path class="cls-2" d="M102.17,29.1a.75.75,0,1,1-.75-.75.75.75,0,0,1,.75.75"></path>
    <path class="cls-2" d="M102.5,22.84a.75.75,0,1,1-1.5,0,.75.75,0,0,1,1.5,0"></path>
    <path class="cls-2" d="M99.55,40.14a.75.75,0,1,1-.75-.75.76.76,0,0,1,.75.75"></path>
    <path class="cls-2" d="M96.37-.65a.4.4,0,0,1-.13.34.53.53,0,0,1-.34.1,3.41,3.41,0,0,1-.65-.13,8.8,8.8,0,0,0-1.17-.21A6.7,6.7,0,0,0,94.6.1L95,.53c.11.12.19.23.26.32a.52.52,0,0,1,.09.29.36.36,0,0,1-.15.29.45.45,0,0,1-.32.13.44.44,0,0,1-.21-.07.59.59,0,0,1-.17-.18,2.78,2.78,0,0,1-.19-.58,8.69,8.69,0,0,0-.43-1.17A11.15,11.15,0,0,0,93.47.73a2.28,2.28,0,0,1-.2.58.74.74,0,0,1-.17.18.28.28,0,0,1-.21.07.47.47,0,0,1-.32-.12.37.37,0,0,1-.15-.3.49.49,0,0,1,.09-.28,2.07,2.07,0,0,1,.27-.33l.41-.44a7.16,7.16,0,0,0,.51-.64,7.58,7.58,0,0,0-1.13.2,3.05,3.05,0,0,1-.69.14.53.53,0,0,1-.34-.1.43.43,0,0,1-.13-.34A.41.41,0,0,1,91.54-1a.49.49,0,0,1,.34-.12,2.88,2.88,0,0,1,.66.13,6.14,6.14,0,0,0,1.16.2,7.79,7.79,0,0,0-.51-.63l-.41-.45a2.18,2.18,0,0,1-.27-.32.5.5,0,0,1-.09-.29.36.36,0,0,1,.15-.29.51.51,0,0,1,.32-.12.42.42,0,0,1,.21.06.59.59,0,0,1,.17.18,4.28,4.28,0,0,1,.23.67,7.45,7.45,0,0,0,.39,1.08A7.85,7.85,0,0,0,94.3-2a3.88,3.88,0,0,1,.21-.64.59.59,0,0,1,.17-.18.37.37,0,0,1,.21-.06.46.46,0,0,1,.32.11.37.37,0,0,1,.15.3.93.93,0,0,1-.34.6,10.75,10.75,0,0,0-.94,1.09A9.73,9.73,0,0,0,95.25-1a3.15,3.15,0,0,1,.65-.13.53.53,0,0,1,.34.11.42.42,0,0,1,.13.33"></path>
    <path class="cls-2" d="M104.46,10.82a.82.82,0,0,1-.26.67,1,1,0,0,1-.67.21,7.38,7.38,0,0,1-1.3-.27A19.1,19.1,0,0,0,99.91,11a11.86,11.86,0,0,0,1,1.28l.8.86a5.66,5.66,0,0,1,.52.63,1.05,1.05,0,0,1,.19.58.73.73,0,0,1-.3.58,1,1,0,0,1-.63.25.72.72,0,0,1-.42-.13,1.07,1.07,0,0,1-.34-.36,5.34,5.34,0,0,1-.39-1.15,15.85,15.85,0,0,0-.84-2.33,20.42,20.42,0,0,0-.83,2.33,5.26,5.26,0,0,1-.41,1.15,1.54,1.54,0,0,1-.33.37.71.71,0,0,1-.43.12,1,1,0,0,1-.63-.23.73.73,0,0,1-.29-.6,1,1,0,0,1,.17-.55,5.42,5.42,0,0,1,.53-.66l.82-.88a12.43,12.43,0,0,0,1-1.26,14.71,14.71,0,0,0-2.26.4,6.85,6.85,0,0,1-1.37.28,1.11,1.11,0,0,1-.67-.2.83.83,0,0,1-.26-.68.84.84,0,0,1,.26-.65,1,1,0,0,1,.67-.23,6.1,6.1,0,0,1,1.31.26,13,13,0,0,0,2.32.4,15.65,15.65,0,0,0-1-1.24c-.35-.39-.63-.69-.83-.9a5.44,5.44,0,0,1-.52-.64,1,1,0,0,1-.18-.57.75.75,0,0,1,.29-.58,1,1,0,0,1,.63-.25.79.79,0,0,1,.42.12,1.22,1.22,0,0,1,.34.37,6.57,6.57,0,0,1,.46,1.33,15.23,15.23,0,0,0,.78,2.15,15.89,15.89,0,0,0,.81-2.21,7.89,7.89,0,0,1,.42-1.27,1,1,0,0,1,.33-.36.73.73,0,0,1,.43-.13,1,1,0,0,1,.64.23.76.76,0,0,1,.29.6,1.83,1.83,0,0,1-.69,1.18,26,26,0,0,0-1.86,2.17,17,17,0,0,0,2.32-.4,6.8,6.8,0,0,1,1.3-.26,1,1,0,0,1,.67.23.81.81,0,0,1,.26.65"></path>
    <path class="cls-2" d="M101.42,27.2a.82.82,0,0,1-.26.67,1,1,0,0,1-.67.21,7.38,7.38,0,0,1-1.3-.27,17.05,17.05,0,0,0-2.32-.41,13.2,13.2,0,0,0,1,1.28l.8.86a5.66,5.66,0,0,1,.52.63,1,1,0,0,1,.19.58.73.73,0,0,1-.3.58,1,1,0,0,1-.63.25.8.8,0,0,1-.42-.13,1.08,1.08,0,0,1-.33-.37,4.29,4.29,0,0,1-.39-1.15,16.59,16.59,0,0,0-.85-2.32,22.6,22.6,0,0,0-.83,2.33,5.11,5.11,0,0,1-.41,1.14,1.22,1.22,0,0,1-.33.37.64.64,0,0,1-.42.13,1,1,0,0,1-.64-.24.72.72,0,0,1-.29-.59,1,1,0,0,1,.17-.56,8.14,8.14,0,0,1,.53-.65l.83-.88a13.92,13.92,0,0,0,1-1.26,13.79,13.79,0,0,0-2.26.4,6.72,6.72,0,0,1-1.37.28,1.06,1.06,0,0,1-.66-.2.81.81,0,0,1-.26-.68.8.8,0,0,1,.26-.65,1,1,0,0,1,.66-.23,6.1,6.1,0,0,1,1.31.26,14,14,0,0,0,2.32.4,15.43,15.43,0,0,0-1-1.25c-.35-.39-.63-.69-.83-.89a5.44,5.44,0,0,1-.52-.64,1,1,0,0,1-.18-.57.75.75,0,0,1,.3-.59,1,1,0,0,1,.63-.24.75.75,0,0,1,.41.12,1.11,1.11,0,0,1,.34.37,6.57,6.57,0,0,1,.46,1.33,15.23,15.23,0,0,0,.78,2.15,15.89,15.89,0,0,0,.81-2.21,6.51,6.51,0,0,1,.43-1.27,1.13,1.13,0,0,1,.32-.36.73.73,0,0,1,.43-.13,1,1,0,0,1,.64.23.76.76,0,0,1,.29.6,1.86,1.86,0,0,1-.69,1.18A26,26,0,0,0,96.87,27a16.92,16.92,0,0,0,2.32-.41,7.37,7.37,0,0,1,1.3-.25,1,1,0,0,1,.67.22.84.84,0,0,1,.26.66"></path>
    <path class="cls-2" d="M93.43,38.81a.83.83,0,0,1-.25.67,1.05,1.05,0,0,1-.67.21,7.24,7.24,0,0,1-1.31-.27A15.64,15.64,0,0,0,88.88,39a14.54,14.54,0,0,0,1,1.28l.8.85a4.72,4.72,0,0,1,.52.64,1,1,0,0,1,.19.58.73.73,0,0,1-.3.58,1,1,0,0,1-.63.25.8.8,0,0,1-.42-.13,1.08,1.08,0,0,1-.33-.37,4.68,4.68,0,0,1-.39-1.15,16.14,16.14,0,0,0-.85-2.32,21.79,21.79,0,0,0-.83,2.33,4.64,4.64,0,0,1-.41,1.14,1.1,1.1,0,0,1-.33.37.64.64,0,0,1-.42.13,1,1,0,0,1-.64-.24.74.74,0,0,1-.29-.59,1,1,0,0,1,.18-.56,6,6,0,0,1,.53-.66l.82-.87a13.92,13.92,0,0,0,1-1.26,13.79,13.79,0,0,0-2.26.4,7.67,7.67,0,0,1-1.36.28,1,1,0,0,1-.67-.21.78.78,0,0,1-.26-.67.8.8,0,0,1,.26-.65.93.93,0,0,1,.67-.23,6,6,0,0,1,1.3.26,15.3,15.3,0,0,0,2.32.4,15.73,15.73,0,0,0-1-1.25l-.83-.89a4.76,4.76,0,0,1-.53-.64,1,1,0,0,1-.18-.58.74.74,0,0,1,.3-.58,1,1,0,0,1,.63-.24.73.73,0,0,1,.41.12,1,1,0,0,1,.34.37,6.57,6.57,0,0,1,.46,1.33,15.69,15.69,0,0,0,.78,2.15,16.37,16.37,0,0,0,.81-2.21,6.51,6.51,0,0,1,.43-1.27,1.08,1.08,0,0,1,.33-.37.76.76,0,0,1,.42-.12,1,1,0,0,1,.64.23.74.74,0,0,1,.29.59,1.85,1.85,0,0,1-.69,1.19,28.41,28.41,0,0,0-1.86,2.17,16.65,16.65,0,0,0,2.32-.41,6.56,6.56,0,0,1,1.31-.25,1,1,0,0,1,.67.22.83.83,0,0,1,.25.66"></path>
    <path class="cls-2" d="M92.9,2.55A3.42,3.42,0,1,0,96.33,6,3.42,3.42,0,0,0,92.9,2.55M93.2,9a2.51,2.51,0,1,1,2.51-2.51A2.51,2.51,0,0,1,93.2,9"></path>
    <path class="cls-2" d="M94.85,7.34a1.12,1.12,0,1,1-1.12-1.11,1.12,1.12,0,0,1,1.12,1.11"></path>
    <path class="cls-2" d="M101.13,41.32a3.42,3.42,0,1,0,3.42,3.41,3.42,3.42,0,0,0-3.42-3.41m.3,6.48a2.51,2.51,0,1,1,2.51-2.51,2.51,2.51,0,0,1-2.51,2.51"></path>
    <path class="cls-2" d="M103.07,46.1A1.12,1.12,0,1,1,102,45a1.11,1.11,0,0,1,1.11,1.11"></path>
    <path class="cls-2" d="M96.1,32a3.42,3.42,0,1,0,3.42,3.41A3.42,3.42,0,0,0,96.1,32m.3,6.48a2.51,2.51,0,1,1,2.5-2.51,2.51,2.51,0,0,1-2.5,2.51"></path>
    <path class="cls-2" d="M98,36.74a1.12,1.12,0,1,1-1.12-1.11A1.12,1.12,0,0,1,98,36.74"></path>
    <path class="cls-2" d="M87.34,18.24V14.82l.53-.53h3.41v3.42l-.52.53Zm3.15-3.16H87.6V18h2.89Z"></path>
    <path class="cls-2" d="M100.77,30.93l.58-.24a1.86,1.86,0,0,1,.7-.14,1.77,1.77,0,0,1,1.32.55,1.86,1.86,0,0,1,.23,2.34,1.83,1.83,0,0,1-.83.68l-.58.23a1.69,1.69,0,0,1-.7.15,1.87,1.87,0,0,1-1.56-2.88,1.92,1.92,0,0,1,.84-.69m.71,3.32a1.55,1.55,0,0,0,1.14-.47A1.61,1.61,0,0,0,101.49,31a1.61,1.61,0,0,0-1.61,1.58,1.6,1.6,0,0,0,1.6,1.63"></path>
    <path class="cls-2" d="M101.18,21l.57-.24a1.91,1.91,0,0,1,.71-.14,1.79,1.79,0,0,1,1.31.54,1.81,1.81,0,0,1,.54,1.32,1.78,1.78,0,0,1-.31,1,1.86,1.86,0,0,1-.83.69l-.57.23a1.78,1.78,0,0,1-.71.15,1.8,1.8,0,0,1-1.31-.55,1.76,1.76,0,0,1-.55-1.31,1.8,1.8,0,0,1,.3-1,1.89,1.89,0,0,1,.85-.69m.71,3.32a1.55,1.55,0,0,0,1.13-.47,1.61,1.61,0,0,0-1.13-2.74,1.58,1.58,0,0,0-1.14.46,1.61,1.61,0,0,0,0,2.27,1.53,1.53,0,0,0,1.14.48"></path>
    <polygon class="cls-2" points="102.15 -2.49 103.62 -3.1 103 -1.63 104.48 -1.02 103 -0.41 103.62 1.06 102.15 0.45 101.54 1.92 100.93 0.45 99.46 1.06 100.07 -0.41 98.6 -1.02 100.07 -1.63 99.46 -3.1 100.93 -2.49 101.54 -3.96 102.15 -2.49"></polygon>
    <polygon class="cls-2" points="90.14 29.71 91.61 29.11 91 30.58 92.47 31.19 91 31.79 91.61 33.26 90.14 32.66 89.53 34.12 88.92 32.66 87.46 33.26 88.06 31.79 86.59 31.19 88.06 30.58 87.46 29.11 88.92 29.71 89.53 28.25 90.14 29.71"></polygon>
    <path class="cls-2" d="M95.73,15.91a1.12,1.12,0,0,1,.85-.44,1.08,1.08,0,0,1,1.07,1.06,1,1,0,0,1-1,1c-.95,0-.91-.87-1.75-.92a1.21,1.21,0,0,0,.5.87,1.14,1.14,0,0,1,.43.91,1.05,1.05,0,0,1-1.08,1,1.07,1.07,0,0,1-1-1.06c0-.87.92-.91.91-1.74-.84.06-.85.94-1.74.94a1.07,1.07,0,0,1-1.06-1.07,1.1,1.1,0,0,1,1-1.06c.94,0,.92.93,1.76.93-.06-.8-.93-.89-.93-1.76a1.06,1.06,0,0,1,2.11,0c0,.95-.87.9-.91,1.77a1.23,1.23,0,0,0,.85-.49"></path>
    <path class="cls-2" d="M90.26,24.2a1.12,1.12,0,0,1,.85-.44,1.08,1.08,0,0,1,1.07,1.06,1,1,0,0,1-1,1.05c-1,0-.91-.87-1.75-.92a1.21,1.21,0,0,0,.49.87,1.12,1.12,0,0,1,.44.91,1.05,1.05,0,0,1-1.08,1,1.07,1.07,0,0,1-1-1.05c0-.88.92-.92.91-1.75-.84.06-.85.94-1.74.94a1.07,1.07,0,0,1-1.06-1.07,1.1,1.1,0,0,1,1-1.06c.94,0,.92.93,1.76.93-.07-.8-.93-.89-.93-1.76a1.06,1.06,0,0,1,2.11,0c0,.95-.87.9-.91,1.77a1.23,1.23,0,0,0,.85-.49"></path>
    <path class="cls-2" d="M93.63,12.12a1.76,1.76,0,0,0-.06-.41l.65-.39-.35-.6-.65.4a1.47,1.47,0,0,0-.68-.4V10h-.69v.76a1.53,1.53,0,0,0-.7.4l-.66-.4-.33.6.65.39a1.35,1.35,0,0,0-.06.41,1.4,1.4,0,0,0,.06.41l-.65.38.36.6.65-.39a1.37,1.37,0,0,0,.68.39v.76h.69v-.76a1.5,1.5,0,0,0,.68-.39l.66.39.34-.6-.65-.38a1.84,1.84,0,0,0,.06-.41"></path>
    <path class="cls-2" d="M88.34,75.07l1.18,1.18-1.17,1.16L87.1,76.25Zm2.73-.36-1.16,1.16L88.74,74.7l1.17-1.26Zm-2.33,3.1,1.17-1.18,1.18,1.18L89.91,79.1Zm2.71-.4-1.17-1.16,1.19-1.18,1.25,1.23Z"></path>
    <path class="cls-2" d="M66.45,93.82,67.63,95l-1.17,1.16L65.21,95Zm2.73-.36L68,94.62l-1.18-1.17L68,92.19Zm-2.34,3.1L68,95.38l1.19,1.18L68,97.85Zm2.72-.4L68.39,95l1.19-1.18,1.25,1.23Z"></path>
    <path class="cls-2" d="M57.77,72.11,59,73.29l-1.17,1.16-1.26-1.16Zm2.74-.36-1.17,1.16-1.17-1.17,1.17-1.26Zm-2.34,3.1,1.17-1.18,1.19,1.18-1.19,1.29Zm2.71-.4-1.16-1.16,1.18-1.18,1.25,1.23Z"></path>
    <polygon class="cls-2" points="57.43 69.69 58.34 69.69 58.34 70.59 57.43 70.59 57.43 71.5 56.53 71.5 56.53 70.59 55.63 70.59 55.63 69.69 56.53 69.69 56.53 68.79 57.43 68.79 57.43 69.69"></polygon>
    <polygon class="cls-2" points="95.19 60.51 96.1 60.51 96.1 61.41 95.19 61.41 95.19 62.31 94.29 62.31 94.29 61.41 93.4 61.41 93.4 60.51 94.29 60.51 94.29 59.61 95.19 59.61 95.19 60.51"></polygon>
    <polygon class="cls-2" points="102.16 3.63 103.07 3.63 103.07 4.52 102.16 4.52 102.16 5.43 101.25 5.43 101.25 4.52 100.36 4.52 100.36 3.63 101.25 3.63 101.25 2.73 102.16 2.73 102.16 3.63"></polygon>
    <polygon class="cls-2" points="59.84 80.98 60.75 80.98 60.75 81.88 59.84 81.88 59.84 82.79 58.94 82.79 58.94 81.88 58.05 81.88 58.05 80.98 58.94 80.98 58.94 80.08 59.84 80.08 59.84 80.98"></polygon>
    <polygon class="cls-2" points="92.38 64.83 93.28 64.83 93.28 65.73 92.38 65.73 92.38 66.64 91.47 66.64 91.47 65.73 90.58 65.73 90.58 64.83 91.47 64.83 91.47 63.93 92.38 63.93 92.38 64.83"></polygon>
    <polygon class="cls-2" points="66.69 72.74 68.35 72.74 68.35 74.4 66.69 74.4 66.69 76.06 65.02 76.06 65.02 74.4 63.39 74.4 63.39 72.74 65.02 72.74 65.02 71.09 66.69 71.09 66.69 72.74"></polygon>
    <polygon class="cls-2" points="76.49 89.29 78.15 89.29 78.15 90.94 76.49 90.94 76.49 92.6 74.82 92.6 74.82 90.94 73.19 90.94 73.19 89.29 74.82 89.29 74.82 87.63 76.49 87.63 76.49 89.29"></polygon>
    <polygon class="cls-2" points="94.17 79.12 95.83 79.12 95.83 80.78 94.17 80.78 94.17 82.44 92.51 82.44 92.51 80.78 90.87 80.78 90.87 79.12 92.51 79.12 92.51 77.47 94.17 77.47 94.17 79.12"></polygon>
    <polygon class="cls-2" points="97.32 48.31 98.98 48.31 98.98 49.96 97.32 49.96 97.32 51.62 95.65 51.62 95.65 49.96 94.02 49.96 94.02 48.31 95.65 48.31 95.65 46.66 97.32 46.66 97.32 48.31"></polygon>
    <polygon class="cls-2" points="92.12 69.31 93.78 69.31 93.78 70.96 92.12 70.96 92.12 72.63 90.46 72.63 90.46 70.96 88.82 70.96 88.82 69.31 90.46 69.31 90.46 67.66 92.12 67.66 92.12 69.31"></polygon>
    <polygon class="cls-2" points="55.11 71.78 55.88 71.59 55.31 72.14 56.09 72.37 55.31 72.61 55.88 73.17 55.11 72.97 55.34 73.74 54.71 73.17 54.49 73.96 54.29 73.19 53.72 73.77 53.91 73 53.14 73.19 53.72 72.6 52.91 72.37 53.72 72.16 53.14 71.56 53.91 71.76 53.72 70.98 54.29 71.57 54.49 70.79 54.71 71.59 55.34 71.02 55.11 71.78"></polygon>
    <path class="cls-2" d="M61.9,60.9a1.61,1.61,0,1,0,1.6,1.6,1.6,1.6,0,0,0-1.6-1.6m0,2.59a1,1,0,1,1,1-1,1,1,0,0,1-1,1"></path>
    <path class="cls-2" d="M58.89,83.53a1.6,1.6,0,1,0,1.6,1.6,1.6,1.6,0,0,0-1.6-1.6m0,2.59a1,1,0,1,1,1-1,1,1,0,0,1-1,1"></path>
    <path class="cls-2" d="M92.94,58.32a.75.75,0,1,1-.75-.75.75.75,0,0,1,.75.75"></path>
    <path class="cls-2" d="M62.9,65.72a.75.75,0,1,1-.75-.75.76.76,0,0,1,.75.75"></path>
    <path class="cls-2" d="M56.92,82.91a.75.75,0,0,1-1.5,0,.75.75,0,0,1,1.5,0"></path>
    <path class="cls-2" d="M72.73,92.72A.75.75,0,1,1,72,92a.75.75,0,0,1,.75.75"></path>
    <path class="cls-2" d="M64.92,93.58a.75.75,0,1,1-.75-.76.76.76,0,0,1,.75.76"></path>
    <path class="cls-2" d="M62.61,59.61a.75.75,0,0,1-1.5,0,.75.75,0,0,1,1.5,0"></path>
    <path class="cls-2" d="M84.2,87.74a.4.4,0,0,1-.13.34.5.5,0,0,1-.33.1,3.61,3.61,0,0,1-.66-.13,8.8,8.8,0,0,0-1.17-.21c.19.26.36.47.52.65l.41.43a2.15,2.15,0,0,1,.26.32.5.5,0,0,1,.09.29.36.36,0,0,1-.15.29.48.48,0,0,1-.31.13.44.44,0,0,1-.22-.07.56.56,0,0,1-.16-.18,2.69,2.69,0,0,1-.2-.58A7.21,7.21,0,0,0,81.73,88a11.15,11.15,0,0,0-.42,1.17,2.63,2.63,0,0,1-.21.58.73.73,0,0,1-.16.18.32.32,0,0,1-.22.07.51.51,0,0,1-.32-.12.37.37,0,0,1-.15-.3.49.49,0,0,1,.09-.28,2.83,2.83,0,0,1,.27-.33l.41-.45a4.85,4.85,0,0,0,.52-.63,7.49,7.49,0,0,0-1.14.2,3.05,3.05,0,0,1-.69.14.5.5,0,0,1-.33-.1.4.4,0,0,1-.13-.34.42.42,0,0,1,.13-.33.5.5,0,0,1,.33-.11,2.7,2.7,0,0,1,.66.13,7,7,0,0,0,1.17.2c-.16-.22-.34-.43-.51-.63l-.42-.45a2,2,0,0,1-.26-.32.51.51,0,0,1-.1-.29.36.36,0,0,1,.15-.29.52.52,0,0,1,.32-.13.38.38,0,0,1,.21.07.59.59,0,0,1,.17.18,3.17,3.17,0,0,1,.23.67,7.54,7.54,0,0,0,.4,1.08,7.67,7.67,0,0,0,.4-1.11,3.63,3.63,0,0,1,.22-.64.47.47,0,0,1,.16-.18.44.44,0,0,1,.22-.07.51.51,0,0,1,.32.12.36.36,0,0,1,.14.3.93.93,0,0,1-.34.6,14.13,14.13,0,0,0-.94,1.09,9.39,9.39,0,0,0,1.17-.2,3.08,3.08,0,0,1,.66-.13.5.5,0,0,1,.33.11.42.42,0,0,1,.13.33"></path>
    <path class="cls-2" d="M109.7,45.66a.39.39,0,0,1-.13.33.53.53,0,0,1-.34.11,3.81,3.81,0,0,1-.65-.14,8.8,8.8,0,0,0-1.17-.21,5.66,5.66,0,0,0,.52.65l.41.43a2.82,2.82,0,0,1,.26.32.52.52,0,0,1,.09.29.35.35,0,0,1-.15.29.45.45,0,0,1-.32.13.35.35,0,0,1-.21-.07.47.47,0,0,1-.16-.18,2.1,2.1,0,0,1-.2-.58,7.87,7.87,0,0,0-.43-1.17A12,12,0,0,0,106.8,47a2.28,2.28,0,0,1-.2.58.64.64,0,0,1-.17.19.33.33,0,0,1-.21.06.49.49,0,0,1-.32-.12.37.37,0,0,1-.15-.3.49.49,0,0,1,.09-.28,4,4,0,0,1,.27-.33l.41-.44a7.19,7.19,0,0,0,.52-.64,7.46,7.46,0,0,0-1.14.21,3.79,3.79,0,0,1-.69.14.6.6,0,0,1-.34-.1.44.44,0,0,1-.13-.34.42.42,0,0,1,.13-.33.49.49,0,0,1,.34-.12,3.58,3.58,0,0,1,.66.13,6.12,6.12,0,0,0,1.17.2c-.17-.22-.34-.43-.52-.62s-.31-.35-.41-.45-.21-.24-.27-.32a.52.52,0,0,1-.09-.29.38.38,0,0,1,.15-.3.51.51,0,0,1,.32-.12.42.42,0,0,1,.21.06.53.53,0,0,1,.17.19,3.6,3.6,0,0,1,.23.67,8.41,8.41,0,0,0,.39,1.08,8.87,8.87,0,0,0,.41-1.11,3.63,3.63,0,0,1,.22-.64.49.49,0,0,1,.16-.19.37.37,0,0,1,.21-.06.52.52,0,0,1,.33.12.39.39,0,0,1,.14.3.94.94,0,0,1-.34.59,12.2,12.2,0,0,0-.94,1.09,7.85,7.85,0,0,0,1.17-.2,3,3,0,0,1,.65-.13.53.53,0,0,1,.34.11.42.42,0,0,1,.13.34"></path>
    <path class="cls-2" d="M77.48,62.85a.83.83,0,0,1-.26.67,1,1,0,0,1-.67.21,7.41,7.41,0,0,1-1.31-.27A16.54,16.54,0,0,0,72.93,63a12.07,12.07,0,0,0,1,1.29c.32.34.58.63.8.85a7,7,0,0,1,.52.64,1,1,0,0,1,.18.58.76.76,0,0,1-.29.58,1,1,0,0,1-.63.25.8.8,0,0,1-.42-.13,1,1,0,0,1-.34-.37,5.14,5.14,0,0,1-.39-1.15,16.61,16.61,0,0,0-.85-2.33,22.11,22.11,0,0,0-.82,2.34,5.69,5.69,0,0,1-.41,1.14,1.37,1.37,0,0,1-.33.37.71.71,0,0,1-.43.13,1,1,0,0,1-.63-.24.71.71,0,0,1-.29-.59,1,1,0,0,1,.17-.56,6,6,0,0,1,.53-.66c.21-.21.48-.5.82-.87a11.31,11.31,0,0,0,1-1.27,14.77,14.77,0,0,0-2.25.41,7.54,7.54,0,0,1-1.37.28,1.05,1.05,0,0,1-.67-.21.82.82,0,0,1-.26-.67.83.83,0,0,1,.26-.65,1,1,0,0,1,.67-.23,6.1,6.1,0,0,1,1.31.26,15.14,15.14,0,0,0,2.31.4,15.73,15.73,0,0,0-1-1.25c-.35-.39-.63-.69-.83-.89s-.4-.47-.53-.64a1.09,1.09,0,0,1-.17-.58.76.76,0,0,1,.29-.58,1,1,0,0,1,.63-.24.79.79,0,0,1,.42.12,1,1,0,0,1,.34.37,7.29,7.29,0,0,1,.46,1.33,15.58,15.58,0,0,0,.77,2.15,15.29,15.29,0,0,0,.82-2.21,6.45,6.45,0,0,1,.42-1.27,1,1,0,0,1,.33-.36.73.73,0,0,1,.43-.13.94.94,0,0,1,.63.23.71.71,0,0,1,.29.59,1.87,1.87,0,0,1-.68,1.19,26,26,0,0,0-1.86,2.17,16.49,16.49,0,0,0,2.31-.41A6.68,6.68,0,0,1,76.55,62a1,1,0,0,1,.67.22.84.84,0,0,1,.26.66"></path>
    <path class="cls-2" d="M92.86,54a.81.81,0,0,1-.26.66,1,1,0,0,1-.67.21,8,8,0,0,1-1.3-.26,17.27,17.27,0,0,0-2.32-.42,11.86,11.86,0,0,0,1,1.28l.8.86a5.66,5.66,0,0,1,.52.63,1.09,1.09,0,0,1,.19.59.74.74,0,0,1-.3.58,1,1,0,0,1-.63.24.79.79,0,0,1-.42-.12,1,1,0,0,1-.34-.37,5.14,5.14,0,0,1-.39-1.15,16.27,16.27,0,0,0-.84-2.33,19.79,19.79,0,0,0-.83,2.34,5.69,5.69,0,0,1-.41,1.14,1.37,1.37,0,0,1-.33.37.71.71,0,0,1-.43.12.94.94,0,0,1-.63-.23A.72.72,0,0,1,85,57.5a1,1,0,0,1,.17-.56,7.58,7.58,0,0,1,.53-.66c.21-.21.48-.5.82-.88a12.43,12.43,0,0,0,1-1.26,14.68,14.68,0,0,0-2.26.41,7.35,7.35,0,0,1-1.37.27,1,1,0,0,1-.67-.2A.82.82,0,0,1,83,54a.83.83,0,0,1,.26-.65,1,1,0,0,1,.67-.23,5.37,5.37,0,0,1,1.3.26,14.39,14.39,0,0,0,2.33.39c-.33-.43-.66-.85-1-1.24s-.63-.69-.83-.9a4.06,4.06,0,0,1-.52-.64,1,1,0,0,1-.18-.57.75.75,0,0,1,.29-.58,1,1,0,0,1,.63-.25.72.72,0,0,1,.42.13,1,1,0,0,1,.34.37,7.29,7.29,0,0,1,.46,1.33,15.58,15.58,0,0,0,.78,2.14,15.44,15.44,0,0,0,.81-2.21A7.33,7.33,0,0,1,89.17,50a1.08,1.08,0,0,1,.33-.37.73.73,0,0,1,.43-.13,1,1,0,0,1,.64.24.72.72,0,0,1,.29.59,1.87,1.87,0,0,1-.69,1.19,24,24,0,0,0-1.86,2.16,17,17,0,0,0,2.32-.4,6.5,6.5,0,0,1,1.3-.25,1,1,0,0,1,.67.22.84.84,0,0,1,.26.66"></path>
    <path class="cls-2" d="M74.77,80.05a.82.82,0,0,1-.26.67,1,1,0,0,1-.67.21,8,8,0,0,1-1.3-.26,17.27,17.27,0,0,0-2.32-.42,11.86,11.86,0,0,0,1,1.28l.8.86a5.66,5.66,0,0,1,.52.63,1.09,1.09,0,0,1,.19.59.74.74,0,0,1-.3.58,1,1,0,0,1-.63.24.72.72,0,0,1-.42-.13,1,1,0,0,1-.34-.36,5.14,5.14,0,0,1-.39-1.15,16.27,16.27,0,0,0-.84-2.33A19.79,19.79,0,0,0,69,82.8a5.11,5.11,0,0,1-.41,1.14,1.54,1.54,0,0,1-.33.37.7.7,0,0,1-.42.12,1,1,0,0,1-.64-.23.72.72,0,0,1-.29-.59,1,1,0,0,1,.17-.56,6.32,6.32,0,0,1,.53-.66c.21-.21.48-.5.82-.88a12.43,12.43,0,0,0,1-1.26,13.57,13.57,0,0,0-2.26.41,7.2,7.2,0,0,1-1.37.27,1,1,0,0,1-.67-.2,1,1,0,0,1,0-1.32,1,1,0,0,1,.67-.23,5.51,5.51,0,0,1,1.31.26,14.06,14.06,0,0,0,2.32.39c-.33-.43-.66-.85-1-1.24s-.63-.69-.83-.9a5.46,5.46,0,0,1-.52-.63,1,1,0,0,1-.18-.58.75.75,0,0,1,.29-.58,1,1,0,0,1,.64-.25.71.71,0,0,1,.41.13,1,1,0,0,1,.34.37,6.57,6.57,0,0,1,.46,1.33,15.58,15.58,0,0,0,.78,2.14,15.44,15.44,0,0,0,.81-2.21,7.33,7.33,0,0,1,.42-1.26,1.08,1.08,0,0,1,.33-.37.73.73,0,0,1,.43-.13,1,1,0,0,1,.64.24.72.72,0,0,1,.29.59,1.87,1.87,0,0,1-.69,1.19,24,24,0,0,0-1.86,2.16,17,17,0,0,0,2.32-.4,6.5,6.5,0,0,1,1.3-.25,1,1,0,0,1,.67.22.83.83,0,0,1,.26.65"></path>
    <path class="cls-2" d="M91.1,82.69a.82.82,0,0,1-.26.67,1,1,0,0,1-.67.21,8,8,0,0,1-1.31-.26,16.82,16.82,0,0,0-2.31-.42,11.86,11.86,0,0,0,1,1.28l.8.86a5.66,5.66,0,0,1,.52.63,1,1,0,0,1,.18.58.75.75,0,0,1-.29.58,1,1,0,0,1-.63.25.72.72,0,0,1-.42-.13,1,1,0,0,1-.34-.36A5.34,5.34,0,0,1,87,85.43a17.13,17.13,0,0,0-.84-2.33,20.42,20.42,0,0,0-.83,2.33,5.61,5.61,0,0,1-.41,1.15,1.54,1.54,0,0,1-.33.37.71.71,0,0,1-.43.12,1,1,0,0,1-.63-.23.73.73,0,0,1-.29-.6.92.92,0,0,1,.17-.55A5.22,5.22,0,0,1,84,85c.21-.21.48-.51.82-.88a11.17,11.17,0,0,0,1-1.26,14.8,14.8,0,0,0-2.25.4,6.85,6.85,0,0,1-1.37.28,1.09,1.09,0,0,1-.67-.2.83.83,0,0,1-.26-.68.84.84,0,0,1,.26-.65,1,1,0,0,1,.67-.23,5.69,5.69,0,0,1,1.31.27,14.11,14.11,0,0,0,2.31.39,13.63,13.63,0,0,0-1-1.24c-.35-.39-.63-.69-.83-.9a5.44,5.44,0,0,1-.52-.64,1,1,0,0,1-.18-.57.73.73,0,0,1,.29-.58,1,1,0,0,1,.63-.25.79.79,0,0,1,.42.12,1.11,1.11,0,0,1,.34.37,7.29,7.29,0,0,1,.46,1.33,14.08,14.08,0,0,0,.78,2.15A15.89,15.89,0,0,0,87,80.05a7,7,0,0,1,.42-1.27,1.15,1.15,0,0,1,.33-.36.73.73,0,0,1,.43-.13,1,1,0,0,1,.63.23.73.73,0,0,1,.29.6,1.86,1.86,0,0,1-.68,1.18,26,26,0,0,0-1.86,2.17,16.6,16.6,0,0,0,2.31-.4,6.85,6.85,0,0,1,1.31-.26,1,1,0,0,1,.67.23.8.8,0,0,1,.26.65"></path>
    <path class="cls-2" d="M103,67a.79.79,0,0,1-.26.67,1,1,0,0,1-.66.21,7.84,7.84,0,0,1-1.31-.26,17,17,0,0,0-2.32-.42,13.2,13.2,0,0,0,1,1.28l.81.86a5.43,5.43,0,0,1,.51.63,1,1,0,0,1,.19.58.72.72,0,0,1-.3.58.92.92,0,0,1-.63.25.72.72,0,0,1-.42-.13,1.15,1.15,0,0,1-.33-.36,5.34,5.34,0,0,1-.39-1.15A16.17,16.17,0,0,0,98,67.36c-.39,1-.67,1.76-.83,2.33a5.26,5.26,0,0,1-.41,1.15,1.5,1.5,0,0,1-.32.37.73.73,0,0,1-.43.12,1,1,0,0,1-.64-.24.72.72,0,0,1-.29-.59A.93.93,0,0,1,95.3,70a4.59,4.59,0,0,1,.53-.66l.82-.88a13.92,13.92,0,0,0,1-1.26,14.93,14.93,0,0,0-2.26.4,6.67,6.67,0,0,1-1.36.28,1.07,1.07,0,0,1-.67-.2,1,1,0,0,1,0-1.33,1,1,0,0,1,.67-.23,6,6,0,0,1,1.3.26,13.15,13.15,0,0,0,2.32.4,15.56,15.56,0,0,0-1-1.24l-.83-.9A5.68,5.68,0,0,1,95.3,64a1,1,0,0,1-.18-.57.72.72,0,0,1,.3-.58,1,1,0,0,1,.63-.25.73.73,0,0,1,.41.12,1,1,0,0,1,.34.37,6.57,6.57,0,0,1,.46,1.33A15.23,15.23,0,0,0,98,66.52a15.89,15.89,0,0,0,.81-2.21A6.78,6.78,0,0,1,99.28,63a1.15,1.15,0,0,1,.33-.36.7.7,0,0,1,.42-.13,1,1,0,0,1,.64.23.76.76,0,0,1,.29.6,1.83,1.83,0,0,1-.69,1.18c-.45.46-1.07,1.18-1.86,2.17a16.77,16.77,0,0,0,2.32-.4,6.85,6.85,0,0,1,1.31-.26,1,1,0,0,1,.66.23A.77.77,0,0,1,103,67"></path>
    <path class="cls-2" d="M66.56,91.83a.8.8,0,0,1-.26.67,1,1,0,0,1-.67.21,7.38,7.38,0,0,1-1.3-.27A15.64,15.64,0,0,0,62,92a14.54,14.54,0,0,0,1,1.28l.8.85a4.72,4.72,0,0,1,.52.64,1,1,0,0,1,.19.58.74.74,0,0,1-.3.58,1,1,0,0,1-.63.25.8.8,0,0,1-.42-.13,1.08,1.08,0,0,1-.33-.37,4.29,4.29,0,0,1-.39-1.15,16.61,16.61,0,0,0-.85-2.33,22.61,22.61,0,0,0-.83,2.34,5.11,5.11,0,0,1-.41,1.14,1.1,1.1,0,0,1-.33.37.7.7,0,0,1-.42.13A1,1,0,0,1,59,96a.74.74,0,0,1-.29-.59,1,1,0,0,1,.17-.56,8.06,8.06,0,0,1,.54-.66l.82-.87a13.92,13.92,0,0,0,1-1.26,13.79,13.79,0,0,0-2.26.4,7.54,7.54,0,0,1-1.37.28A1,1,0,0,1,57,92.5a.78.78,0,0,1-.26-.67.8.8,0,0,1,.26-.65,1,1,0,0,1,.66-.23,6,6,0,0,1,1.31.26,15.08,15.08,0,0,0,2.32.4,13.87,13.87,0,0,0-1-1.25c-.35-.39-.63-.69-.82-.89a4.76,4.76,0,0,1-.53-.64,1,1,0,0,1-.18-.58.74.74,0,0,1,.3-.58,1,1,0,0,1,.63-.24.68.68,0,0,1,.41.12,1,1,0,0,1,.34.37,6.57,6.57,0,0,1,.46,1.33,15.69,15.69,0,0,0,.78,2.15,16.37,16.37,0,0,0,.81-2.21,6.51,6.51,0,0,1,.43-1.27,1.17,1.17,0,0,1,.32-.37.8.8,0,0,1,.43-.12,1,1,0,0,1,.64.23.74.74,0,0,1,.29.59,1.85,1.85,0,0,1-.69,1.19A24.46,24.46,0,0,0,62,91.61a16.65,16.65,0,0,0,2.32-.41,6.5,6.5,0,0,1,1.3-.25,1,1,0,0,1,.67.22.8.8,0,0,1,.26.66"></path>
    <path class="cls-2" d="M74.77,93.75a3.42,3.42,0,1,0,3.42,3.41,3.42,3.42,0,0,0-3.42-3.41m.3,6.48a2.51,2.51,0,1,1,2.51-2.51,2.51,2.51,0,0,1-2.51,2.51"></path>
    <path class="cls-2" d="M76.71,98.53a1.12,1.12,0,1,1-1.11-1.11,1.12,1.12,0,0,1,1.11,1.11"></path>
    <path class="cls-2" d="M96.74,52.77a3.42,3.42,0,1,0,3.42,3.41,3.41,3.41,0,0,0-3.42-3.41m.3,6.48a2.51,2.51,0,1,1,2.51-2.51A2.51,2.51,0,0,1,97,59.25"></path>
    <path class="cls-2" d="M98.69,57.55a1.12,1.12,0,1,1-1.12-1.11,1.12,1.12,0,0,1,1.12,1.11"></path>
    <path class="cls-2" d="M69.45,84.81a3.42,3.42,0,1,0,3.42,3.42,3.43,3.43,0,0,0-3.42-3.42m.29,6.48a2.51,2.51,0,1,1,2.51-2.51,2.5,2.5,0,0,1-2.51,2.51"></path>
    <path class="cls-2" d="M71.39,89.6a1.12,1.12,0,1,1-1.12-1.12,1.12,1.12,0,0,1,1.12,1.12"></path>
    <path class="cls-2" d="M55.34,74.6A3.42,3.42,0,1,0,58.76,78a3.42,3.42,0,0,0-3.42-3.42m.3,6.48a2.51,2.51,0,1,1,2.51-2.51,2.51,2.51,0,0,1-2.51,2.51"></path>
    <path class="cls-2" d="M57.29,79.39a1.12,1.12,0,1,1-1.12-1.12,1.12,1.12,0,0,1,1.12,1.12"></path>
    <path class="cls-2" d="M60.69,71.09V67.67l.52-.52h3.42v3.42l-.52.52Zm3.15-3.15H61v2.89h2.89Z"></path>
    <path class="cls-2" d="M89.84,48.52V45.1l.52-.52h3.42V48l-.52.52ZM93,45.37H90.1v2.89H93Z"></path>
    <path class="cls-2" d="M86,68.44V65l.53-.53h3.42v3.42l-.53.53Zm3.16-3.15H86.23v2.89h2.89Z"></path>
    <path class="cls-2" d="M52.24,67.23l.57-.23a1.73,1.73,0,0,1,.71-.14,1.85,1.85,0,0,1,1.54,2.88,1.83,1.83,0,0,1-.83.68l-.57.24a2,2,0,0,1-.71.14,1.83,1.83,0,0,1-1.32-.54,1.87,1.87,0,0,1-.24-2.33,2,2,0,0,1,.85-.7m.7,3.32A1.6,1.6,0,0,0,54.55,69a1.53,1.53,0,0,0-.47-1.14A1.55,1.55,0,0,0,53,67.34a1.59,1.59,0,0,0-1.14.47,1.61,1.61,0,0,0,0,2.27,1.51,1.51,0,0,0,1.13.47"></path>
    <path class="cls-2" d="M56.67,58.37l.59-.24a1.93,1.93,0,0,1,2.66,1.77A1.85,1.85,0,0,1,59.59,61a1.81,1.81,0,0,1-.86.71l-.59.25a2.06,2.06,0,0,1-.73.14,1.91,1.91,0,0,1-1.93-1.92,1.86,1.86,0,0,1,.31-1.06,2,2,0,0,1,.88-.72m.73,3.44a1.63,1.63,0,0,0,1.18-.48A1.67,1.67,0,0,0,56.23,59a1.56,1.56,0,0,0-.49,1.16,1.62,1.62,0,0,0,.48,1.19,1.59,1.59,0,0,0,1.18.49"></path>
    <path class="cls-2" d="M89.58,59.83l.57-.24a2,2,0,0,1,.71-.14,1.79,1.79,0,0,1,1.31.54,1.82,1.82,0,0,1,.55,1.32A1.87,1.87,0,0,1,91.57,63l-.57.23a1.73,1.73,0,0,1-.71.14,1.86,1.86,0,0,1-1.55-2.87,1.92,1.92,0,0,1,.84-.69m.71,3.32a1.59,1.59,0,0,0,1.14-.47,1.57,1.57,0,0,0,.47-1.14,1.55,1.55,0,0,0-.47-1.13,1.62,1.62,0,0,0-2.27,0,1.51,1.51,0,0,0-.48,1.12,1.56,1.56,0,0,0,.47,1.15,1.53,1.53,0,0,0,1.14.48"></path>
    <path class="cls-2" d="M100.38,50.36l.58-.23a1.68,1.68,0,0,1,.7-.14,1.86,1.86,0,0,1,1.86,1.85,1.79,1.79,0,0,1-.32,1,1.74,1.74,0,0,1-.83.68l-.57.24a1.86,1.86,0,0,1-.7.14,1.86,1.86,0,0,1-1.56-2.87,2,2,0,0,1,.84-.7m.71,3.32a1.6,1.6,0,0,0,1.61-1.6,1.59,1.59,0,0,0-.47-1.14,1.61,1.61,0,0,0-2.27,0,1.49,1.49,0,0,0-.47,1.12,1.57,1.57,0,0,0,.46,1.15,1.52,1.52,0,0,0,1.14.47"></path>
    <polygon class="cls-2" points="110.7 48.98 112.18 48.37 111.56 49.84 113.04 50.45 111.56 51.05 112.18 52.53 110.7 51.92 110.1 53.39 109.49 51.92 108.02 52.53 108.63 51.05 107.16 50.45 108.63 49.84 108.02 48.37 109.48 48.98 110.1 47.51 110.7 48.98"></polygon>
    <polygon class="cls-2" points="58.36 64.25 59.83 63.64 59.22 65.11 60.69 65.72 59.22 66.33 59.83 67.8 58.36 67.19 57.75 68.66 57.14 67.19 55.67 67.8 56.28 66.33 54.81 65.72 56.28 65.11 55.67 63.64 57.14 64.25 57.75 62.78 58.36 64.25"></polygon>
    <polygon class="cls-2" points="64.15 82.24 65.62 81.64 65.01 83.1 66.48 83.71 65.01 84.32 65.62 85.79 64.15 85.18 63.54 86.65 62.93 85.18 61.46 85.79 62.07 84.32 60.6 83.71 62.07 83.1 61.46 81.64 62.93 82.24 63.54 80.77 64.15 82.24"></polygon>
    <path class="cls-2" d="M69.08,68.76a1.14,1.14,0,0,1,.85-.43A1.08,1.08,0,0,1,71,69.39a1,1,0,0,1-1,1c-1,0-.91-.87-1.75-.92a1.23,1.23,0,0,0,.49.87,1.1,1.1,0,0,1,.44.9,1.06,1.06,0,0,1-1.08,1,1.07,1.07,0,0,1-1-1.06c0-.87.92-.91.91-1.74-.84,0-.86.93-1.74.93a1.07,1.07,0,0,1-1.06-1.06,1.09,1.09,0,0,1,1-1.06c.94,0,.92.92,1.76.92-.07-.8-.93-.89-.93-1.75a1.06,1.06,0,0,1,2.11,0c0,1-.87.91-.91,1.77a1.16,1.16,0,0,0,.85-.49"></path>
    <path class="cls-2" d="M81.14,92.36a1.14,1.14,0,0,1,.85-.43A1.08,1.08,0,0,1,83.06,93,1,1,0,0,1,82,94c-1,0-.91-.87-1.75-.92a1.23,1.23,0,0,0,.49.87,1.11,1.11,0,0,1,.44.9,1.05,1.05,0,0,1-1.08,1,1.07,1.07,0,0,1-1-1.06c0-.87.92-.91.91-1.74-.84.06-.86.94-1.74.94A1.07,1.07,0,0,1,77.22,93a1.1,1.1,0,0,1,1-1.06c.94,0,.92.92,1.76.92-.07-.79-.93-.88-.93-1.75a1.06,1.06,0,0,1,2.11,0c0,1-.87.9-.91,1.76a1.16,1.16,0,0,0,.85-.49"></path>
    <path class="cls-2" d="M63.61,77.05a1.14,1.14,0,0,1,.85-.43,1.08,1.08,0,0,1,1.07,1.06,1,1,0,0,1-1,1c-1,0-.91-.87-1.75-.92a1.23,1.23,0,0,0,.49.87,1.11,1.11,0,0,1,.44.9,1.05,1.05,0,0,1-1.08,1,1.07,1.07,0,0,1-1-1.06c0-.87.91-.91.91-1.74-.84,0-.86.94-1.74.94a1.07,1.07,0,0,1-1.06-1.07,1.09,1.09,0,0,1,1-1.06c.93,0,.92.92,1.76.92-.07-.8-.93-.89-.93-1.75a1.06,1.06,0,0,1,2.11,0c0,1-.87.91-.91,1.77a1.18,1.18,0,0,0,.85-.49"></path>
    <path class="cls-2" d="M67,65a1.4,1.4,0,0,0-.06-.41l.66-.38-.36-.6-.64.39a1.36,1.36,0,0,0-.69-.39v-.76H65.2v.76a1.37,1.37,0,0,0-.7.4l-.66-.4-.33.6.65.38a1.4,1.4,0,0,0-.06.41,1.47,1.47,0,0,0,.06.42l-.65.38.36.6.65-.39a1.45,1.45,0,0,0,.68.39v.75h.68v-.76a1.4,1.4,0,0,0,.69-.39l.66.4.34-.6-.66-.39A1.4,1.4,0,0,0,67,65"></path>
    <path class="cls-2" d="M96.18,73.9a1.4,1.4,0,0,0-.06-.41l.66-.38-.35-.6-.65.4a1.37,1.37,0,0,0-.69-.4v-.76h-.68v.76a1.37,1.37,0,0,0-.7.4l-.66-.4-.33.6.65.38a1.4,1.4,0,0,0-.06.41,1.47,1.47,0,0,0,.06.42l-.65.38.36.6.65-.39a1.45,1.45,0,0,0,.68.39v.75h.68V75.3a1.5,1.5,0,0,0,.69-.4l.66.4.34-.6-.66-.39a1.4,1.4,0,0,0,.06-.41"></path>
    <path class="cls-2" d="M93.72,51.53a.85.85,0,0,0,0-.23l.37-.22-.2-.34-.37.22a.88.88,0,0,0-.39-.22v-.43h-.39v.43a.81.81,0,0,0-.39.23l-.38-.23-.19.34.37.22a.85.85,0,0,0,0,.23.93.93,0,0,0,0,.24l-.37.22.2.34.37-.22a.94.94,0,0,0,.39.22v.43h.39v-.43a.81.81,0,0,0,.39-.23l.38.23.19-.34-.37-.22a.93.93,0,0,0,0-.24"></path>
    <polygon class="cls-2" points="136.29 73.51 137.47 74.69 136.31 75.86 135.05 74.69 136.29 73.51"></polygon>
    <path class="cls-2" d="M92.6,95.93l1.19,1.18-1.17,1.16-1.25-1.16Zm2.74-.37-1.16,1.17L93,95.56l1.17-1.26ZM93,98.67l1.17-1.19,1.18,1.19L94.18,100Zm2.71-.4-1.17-1.16,1.19-1.18L97,97.15Z"></path>
    <path class="cls-2" d="M125.7,74.29l-1.16,1.16-1.17-1.17L124.54,73Zm-2.33,3.09,1.17-1.17,1.19,1.17-1.19,1.29Zm2.71-.39-1.16-1.16,1.18-1.18,1.25,1.22Z"></path>
    <polygon class="cls-2" points="128.63 55.13 130.29 55.13 130.29 56.78 128.63 56.78 128.63 58.45 126.96 58.45 126.96 56.78 125.33 56.78 125.33 55.13 126.96 55.13 126.96 53.48 128.63 53.48 128.63 55.13"></polygon>
    <polygon class="cls-2" points="125.04 83.52 125.94 83.52 125.94 84.42 125.04 84.42 125.04 85.33 124.13 85.33 124.13 84.42 123.24 84.42 123.24 83.52 124.13 83.52 124.13 82.62 125.04 82.62 125.04 83.52"></polygon>
    <polygon class="cls-2" points="90.84 88.03 91.87 88.03 91.87 89.06 90.84 89.06 90.84 90.09 89.8 90.09 89.8 89.06 88.79 89.06 88.79 88.03 89.8 88.03 89.8 87 90.84 87 90.84 88.03"></polygon>
    <polygon class="cls-2" points="99.68 73.17 100.58 73.17 100.58 74.07 99.68 74.07 99.68 74.98 98.77 74.98 98.77 74.07 97.88 74.07 97.88 73.17 98.77 73.17 98.77 72.27 99.68 72.27 99.68 73.17"></polygon>
    <polygon class="cls-2" points="131.56 75.28 133.21 75.28 133.21 76.93 131.56 76.93 131.56 78.6 129.89 78.6 129.89 76.93 128.25 76.93 128.25 75.28 129.89 75.28 129.89 73.63 131.56 73.63 131.56 75.28"></polygon>
    <polygon class="cls-2" points="120.52 88.55 122.18 88.55 122.18 90.2 120.52 90.2 120.52 91.86 118.86 91.86 118.86 90.2 117.22 90.2 117.22 88.55 118.86 88.55 118.86 86.89 120.52 86.89 120.52 88.55"></polygon>
    <polygon class="cls-2" points="110.16 91.65 111.82 91.65 111.82 93.3 110.16 93.3 110.16 94.97 108.5 94.97 108.5 93.3 106.86 93.3 106.86 91.65 108.5 91.65 108.5 90 110.16 90 110.16 91.65"></polygon>
    <polygon class="cls-2" points="118.93 48.06 120.59 48.06 120.59 49.71 118.93 49.71 118.93 51.38 117.27 51.38 117.27 49.71 115.63 49.71 115.63 48.06 117.27 48.06 117.27 46.41 118.93 46.41 118.93 48.06"></polygon>
    <polygon class="cls-2" points="126.37 59.43 127.13 59.24 126.57 59.8 127.35 60.03 126.57 60.27 127.13 60.82 126.37 60.63 126.59 61.39 125.97 60.82 125.75 61.61 125.55 60.84 124.97 61.42 125.17 60.65 124.39 60.85 124.97 60.25 124.17 60.03 124.97 59.81 124.39 59.21 125.17 59.41 124.97 58.64 125.55 59.22 125.75 58.45 125.97 59.24 126.59 58.67 126.37 59.43"></polygon>
    <polygon class="cls-2" points="115.75 52.46 116.52 52.26 115.96 52.82 116.73 53.05 115.96 53.29 116.52 53.84 115.75 53.65 115.98 54.42 115.35 53.84 115.13 54.64 114.94 53.86 114.36 54.44 114.56 53.67 113.78 53.87 114.36 53.28 113.56 53.05 114.36 52.83 113.78 52.24 114.56 52.44 114.36 51.66 114.94 52.24 115.13 51.47 115.35 52.26 115.98 51.69 115.75 52.46"></polygon>
    <path class="cls-2" d="M127.09,63.44a1.6,1.6,0,1,0,1.6,1.6,1.6,1.6,0,0,0-1.6-1.6m0,2.58a1,1,0,1,1,1-1,1,1,0,0,1-1,1"></path>
    <path class="cls-2" d="M104.63,47.58a1.6,1.6,0,1,0,1.6,1.6,1.6,1.6,0,0,0-1.6-1.6m0,2.58a1,1,0,1,1,1-1,1,1,0,0,1-1,1"></path>
    <path class="cls-2" d="M122.11,44.5a1.61,1.61,0,1,0,1.61,1.6,1.6,1.6,0,0,0-1.61-1.6m0,2.59a1,1,0,1,1,1-1,1,1,0,0,1-1,1"></path>
    <path class="cls-2" d="M124.17,86a1.61,1.61,0,1,0,1.6,1.61,1.61,1.61,0,0,0-1.6-1.61m0,2.59a1,1,0,1,1,1-1,1,1,0,0,1-1,1"></path>
    <path class="cls-2" d="M128.1,68.26a.75.75,0,1,1-1.5,0,.75.75,0,0,1,1.5,0"></path>
    <path class="cls-2" d="M106.08,52.08a.75.75,0,0,1-1.5,0,.75.75,0,0,1,1.5,0"></path>
    <path class="cls-2" d="M98.8,61.62a.75.75,0,1,1-.75-.75.76.76,0,0,1,.75.75"></path>
    <path class="cls-2" d="M115,50.14a.75.75,0,1,1-.75-.75.75.75,0,0,1,.75.75"></path>
    <path class="cls-2" d="M122.11,85.44a.75.75,0,0,1-1.5,0,.75.75,0,0,1,1.5,0"></path>
    <path class="cls-2" d="M136.35,78.11a.75.75,0,1,1-.75-.75.76.76,0,0,1,.75.75"></path>
    <path class="cls-2" d="M136.21,64a.75.75,0,1,1-1.5,0,.75.75,0,0,1,1.5,0"></path>
    <path class="cls-2" d="M132.77,88.14a.75.75,0,1,1-.75-.75.75.75,0,0,1,.75.75"></path>
    <path class="cls-2" d="M122.93,92a.75.75,0,1,1-.75-.75.75.75,0,0,1,.75.75"></path>
    <path class="cls-2" d="M127.81,62.14a.76.76,0,1,1-.76-.75.75.75,0,0,1,.76.75"></path>
    <path class="cls-2" d="M124.71,55.59a.75.75,0,1,1-.75-.75.76.76,0,0,1,.75.75"></path>
    <path class="cls-2" d="M135.24,54.3a.4.4,0,0,1-.13.34.51.51,0,0,1-.34.11,4.26,4.26,0,0,1-.65-.14A8.8,8.8,0,0,0,133,54.4a7,7,0,0,0,.52.65l.41.43a2.82,2.82,0,0,1,.26.32.52.52,0,0,1,.09.29.41.41,0,0,1-.14.3.51.51,0,0,1-.32.12.36.36,0,0,1-.22-.07.47.47,0,0,1-.16-.18,2.5,2.5,0,0,1-.2-.58,7.18,7.18,0,0,0-.43-1.17c-.19.49-.33.88-.41,1.17a2.63,2.63,0,0,1-.21.58.8.8,0,0,1-.16.19.38.38,0,0,1-.22.06.51.51,0,0,1-.32-.12.37.37,0,0,1-.15-.3.49.49,0,0,1,.09-.28,4,4,0,0,1,.27-.33l.41-.44a5.77,5.77,0,0,0,.52-.64,7.46,7.46,0,0,0-1.14.21,3.79,3.79,0,0,1-.69.14.5.5,0,0,1-.33-.11.4.4,0,0,1-.13-.34.38.38,0,0,1,.13-.32.46.46,0,0,1,.33-.12,3.3,3.3,0,0,1,.66.13,6.12,6.12,0,0,0,1.17.2,8,8,0,0,0-.51-.62l-.42-.45a1.92,1.92,0,0,1-.26-.33.48.48,0,0,1-.1-.28.38.38,0,0,1,.15-.3.53.53,0,0,1,.32-.12.37.37,0,0,1,.21.06.53.53,0,0,1,.17.19,3,3,0,0,1,.23.67,10.25,10.25,0,0,0,.39,1.08,7.52,7.52,0,0,0,.41-1.11,3.63,3.63,0,0,1,.22-.64.6.6,0,0,1,.16-.19.43.43,0,0,1,.22-.06.51.51,0,0,1,.32.12.35.35,0,0,1,.14.3.92.92,0,0,1-.34.59,12.2,12.2,0,0,0-.94,1.09,7.85,7.85,0,0,0,1.17-.2,4.07,4.07,0,0,1,.65-.13.51.51,0,0,1,.34.11.42.42,0,0,1,.13.33"></path>
    <path class="cls-2" d="M143.69,66.06a.81.81,0,0,1-.26.66,1,1,0,0,1-.67.21,7,7,0,0,1-1.31-.26,16.82,16.82,0,0,0-2.31-.42,13.49,13.49,0,0,0,1,1.29l.81.85a5.88,5.88,0,0,1,.52.64,1,1,0,0,1,.18.58.76.76,0,0,1-.29.58,1,1,0,0,1-.63.24.77.77,0,0,1-.43-.13,1,1,0,0,1-.33-.36,5.14,5.14,0,0,1-.39-1.15,16.61,16.61,0,0,0-.85-2.33c-.39,1-.67,1.76-.83,2.34a5.25,5.25,0,0,1-.4,1.14,1.37,1.37,0,0,1-.33.37.71.71,0,0,1-.43.12,1,1,0,0,1-.64-.23.74.74,0,0,1-.28-.59,1,1,0,0,1,.17-.56,6,6,0,0,1,.53-.66c.21-.21.48-.51.82-.87a15.69,15.69,0,0,0,1-1.27,14.91,14.91,0,0,0-2.26.41,7.15,7.15,0,0,1-1.36.27,1,1,0,0,1-.67-.2.82.82,0,0,1-.26-.67.83.83,0,0,1,.26-.65.94.94,0,0,1,.67-.23,5.93,5.93,0,0,1,1.3.26,14.44,14.44,0,0,0,2.32.39c-.32-.43-.66-.85-1-1.24s-.07-.75-.27-1,.12-.81,0-1-.12,0-.12-.18-.42-.65-.22-.82-.22,0,0,0a.72.72,0,0,1,.42.13,1.12,1.12,0,0,1,.34.37,7.55,7.55,0,0,1,.45,1.33,16.47,16.47,0,0,0,.78,2.14,14,14,0,0,0,.81-2.2,7,7,0,0,1,.43-1.27,1.08,1.08,0,0,1,.33-.37.8.8,0,0,1,.43-.13,1,1,0,0,1,.63.24.71.71,0,0,1,.29.59,1.87,1.87,0,0,1-.68,1.19,24,24,0,0,0-1.86,2.16,16.6,16.6,0,0,0,2.31-.4,6.68,6.68,0,0,1,1.31-.25,1,1,0,0,1,.67.22.84.84,0,0,1,.26.66"></path>
    <path class="cls-2" d="M132.73,49.1a.82.82,0,0,1-.26.67,1.05,1.05,0,0,1-.67.21,7.41,7.41,0,0,1-1.31-.27,16.89,16.89,0,0,0-2.31-.41,11.86,11.86,0,0,0,1,1.28l.8.86a7.07,7.07,0,0,1,.52.63,1,1,0,0,1,.18.58.75.75,0,0,1-.29.58,1,1,0,0,1-.63.25.8.8,0,0,1-.42-.13A1.11,1.11,0,0,1,129,53a5.14,5.14,0,0,1-.39-1.15,17.62,17.62,0,0,0-.84-2.32,20.42,20.42,0,0,0-.83,2.33,5.45,5.45,0,0,1-.41,1.14,1.37,1.37,0,0,1-.33.37.65.65,0,0,1-.43.13,1,1,0,0,1-.63-.24.7.7,0,0,1-.29-.59,1,1,0,0,1,.17-.56,5.25,5.25,0,0,1,.53-.65l.82-.88a11.17,11.17,0,0,0,1-1.26,13.66,13.66,0,0,0-2.25.4,6.85,6.85,0,0,1-1.37.28,1.11,1.11,0,0,1-.67-.2.84.84,0,0,1-.26-.68.83.83,0,0,1,.26-.65,1,1,0,0,1,.67-.23,6.1,6.1,0,0,1,1.31.26,14,14,0,0,0,2.31.4,15.31,15.31,0,0,0-1-1.25c-.35-.39-.63-.69-.83-.89a5.68,5.68,0,0,1-.53-.64,1.08,1.08,0,0,1-.17-.57.77.77,0,0,1,.29-.59,1,1,0,0,1,.63-.24.79.79,0,0,1,.42.12,1.11,1.11,0,0,1,.34.37,7.29,7.29,0,0,1,.46,1.33,14.08,14.08,0,0,0,.78,2.15,15.89,15.89,0,0,0,.81-2.21,6.7,6.7,0,0,1,.42-1.27,1,1,0,0,1,.33-.36.73.73,0,0,1,.43-.13,1,1,0,0,1,.63.23.73.73,0,0,1,.29.6,1.88,1.88,0,0,1-.68,1.18,26,26,0,0,0-1.86,2.17,18.23,18.23,0,0,0,2.31-.4,7,7,0,0,1,1.31-.26,1.06,1.06,0,0,1,.67.22.84.84,0,0,1,.26.66"></path>
    <path class="cls-2" d="M140,82.59a.82.82,0,0,1-.26.67,1.05,1.05,0,0,1-.67.21,7.41,7.41,0,0,1-1.31-.27,18.75,18.75,0,0,0-2.32-.41,14.88,14.88,0,0,0,1,1.28l.81.86a7.07,7.07,0,0,1,.52.63,1,1,0,0,1,.18.58.73.73,0,0,1-.3.58A.91.91,0,0,1,137,87a.72.72,0,0,1-.42-.13,1,1,0,0,1-.34-.37,5,5,0,0,1-.39-1.15A16.59,16.59,0,0,0,135,83c-.39,1-.67,1.76-.83,2.33a5.25,5.25,0,0,1-.4,1.14,1.61,1.61,0,0,1-.33.38.73.73,0,0,1-.43.12,1,1,0,0,1-.64-.23.76.76,0,0,1-.29-.6,1,1,0,0,1,.18-.56,5.25,5.25,0,0,1,.53-.65l.82-.88a13.92,13.92,0,0,0,1-1.26,14.93,14.93,0,0,0-2.26.4,6.67,6.67,0,0,1-1.36.28,1.09,1.09,0,0,1-.67-.2,1,1,0,0,1,0-1.33,1,1,0,0,1,.67-.23,6,6,0,0,1,1.3.26,13.32,13.32,0,0,0,2.32.4c-.32-.44-.66-.85-1-1.25l-.83-.89a5.68,5.68,0,0,1-.53-.64,1,1,0,0,1-.18-.57.72.72,0,0,1,.3-.58,1,1,0,0,1,.63-.25.79.79,0,0,1,.42.12,1.23,1.23,0,0,1,.34.37,7.55,7.55,0,0,1,.45,1.33,15.23,15.23,0,0,0,.78,2.15,15.89,15.89,0,0,0,.81-2.21,6.78,6.78,0,0,1,.43-1.27,1,1,0,0,1,.33-.36.73.73,0,0,1,.43-.13,1,1,0,0,1,.63.23.73.73,0,0,1,.29.6,1.88,1.88,0,0,1-.68,1.18,27.77,27.77,0,0,0-1.87,2.17,16.77,16.77,0,0,0,2.32-.4,6.85,6.85,0,0,1,1.31-.26,1,1,0,0,1,.67.23.8.8,0,0,1,.26.65"></path>
    <path class="cls-2" d="M132,94.2a.82.82,0,0,1-.26.67,1,1,0,0,1-.67.21,7.41,7.41,0,0,1-1.31-.27,16.89,16.89,0,0,0-2.31-.41,11.86,11.86,0,0,0,1,1.28l.8.86a7.07,7.07,0,0,1,.52.63,1,1,0,0,1,.18.58.76.76,0,0,1-.29.58,1,1,0,0,1-.63.25.8.8,0,0,1-.42-.13,1,1,0,0,1-.34-.37,5.14,5.14,0,0,1-.39-1.15,16.59,16.59,0,0,0-.85-2.32,22.09,22.09,0,0,0-.82,2.33,5.69,5.69,0,0,1-.41,1.14,1.37,1.37,0,0,1-.33.37.65.65,0,0,1-.43.13,1,1,0,0,1-.63-.24.7.7,0,0,1-.29-.59,1,1,0,0,1,.17-.56,5.25,5.25,0,0,1,.53-.65l.82-.88a11.17,11.17,0,0,0,1-1.26,13.66,13.66,0,0,0-2.25.4,6.72,6.72,0,0,1-1.37.28,1.05,1.05,0,0,1-.67-.21.8.8,0,0,1-.26-.67.83.83,0,0,1,.26-.65,1,1,0,0,1,.67-.23,6.1,6.1,0,0,1,1.31.26,14,14,0,0,0,2.31.4,15.73,15.73,0,0,0-1-1.25c-.35-.39-.63-.69-.83-.89a7,7,0,0,1-.53-.64,1.09,1.09,0,0,1-.17-.58.76.76,0,0,1,.29-.58,1,1,0,0,1,.63-.25.8.8,0,0,1,.42.13,1.11,1.11,0,0,1,.34.37,7.29,7.29,0,0,1,.46,1.33,15.58,15.58,0,0,0,.77,2.15,14.87,14.87,0,0,0,.82-2.21,6.7,6.7,0,0,1,.42-1.27,1,1,0,0,1,.33-.36.74.74,0,0,1,.43-.14,1,1,0,0,1,.63.24.72.72,0,0,1,.29.59,1.87,1.87,0,0,1-.68,1.19A24.46,24.46,0,0,0,127.43,94a16.49,16.49,0,0,0,2.31-.41,7.58,7.58,0,0,1,1.31-.25,1,1,0,0,1,.67.22.84.84,0,0,1,.26.66"></path>
    <path class="cls-2" d="M105.1,83.16a.78.78,0,0,1-.26.66,1,1,0,0,1-.67.21,7,7,0,0,1-1.3-.26,17,17,0,0,0-2.32-.42,12.08,12.08,0,0,0,1,1.28l.8.86a4.18,4.18,0,0,1,.52.64,1,1,0,0,1,.19.58.74.74,0,0,1-.3.58,1,1,0,0,1-.63.24.79.79,0,0,1-.42-.12,1.08,1.08,0,0,1-.33-.37,4.29,4.29,0,0,1-.39-1.15,16.61,16.61,0,0,0-.85-2.33,22.61,22.61,0,0,0-.83,2.34A4.64,4.64,0,0,1,98.94,87a1.1,1.1,0,0,1-.33.37.7.7,0,0,1-.42.12,1,1,0,0,1-.64-.23.74.74,0,0,1-.29-.59,1,1,0,0,1,.17-.56,8.06,8.06,0,0,1,.54-.66l.82-.87a15.69,15.69,0,0,0,1-1.27,14.91,14.91,0,0,0-2.26.41,7.15,7.15,0,0,1-1.36.27,1,1,0,0,1-.67-.2.79.79,0,0,1-.26-.67.83.83,0,0,1,.26-.66,1,1,0,0,1,.67-.22,5.46,5.46,0,0,1,1.3.26,14.06,14.06,0,0,0,2.32.39,15.27,15.27,0,0,0-1-1.24l-.82-.9a4.77,4.77,0,0,1-.53-.63,1,1,0,0,1-.18-.58.74.74,0,0,1,.3-.58,1,1,0,0,1,.63-.25.76.76,0,0,1,.41.13,1,1,0,0,1,.34.37,6.57,6.57,0,0,1,.46,1.33,15.12,15.12,0,0,0,.78,2.14,15.89,15.89,0,0,0,.81-2.21,6.34,6.34,0,0,1,.43-1.26,1.17,1.17,0,0,1,.32-.37.83.83,0,0,1,.43-.13,1,1,0,0,1,.64.24.72.72,0,0,1,.29.59,1.87,1.87,0,0,1-.69,1.19,25.55,25.55,0,0,0-1.86,2.16,16.77,16.77,0,0,0,2.32-.4,6.63,6.63,0,0,1,1.3-.25,1,1,0,0,1,.67.22.8.8,0,0,1,.26.66"></path>
    <path class="cls-2" d="M131.45,58a3.42,3.42,0,1,0,3.42,3.42A3.42,3.42,0,0,0,131.45,58m.3,6.48a2.51,2.51,0,1,1,2.51-2.51,2.51,2.51,0,0,1-2.51,2.51"></path>
    <path class="cls-2" d="M133.39,62.73a1.12,1.12,0,1,1-1.11-1.11,1.12,1.12,0,0,1,1.11,1.11"></path>
    <path class="cls-2" d="M113.44,40.26a3.42,3.42,0,1,0,3.42,3.42,3.42,3.42,0,0,0-3.42-3.42m.3,6.48a2.51,2.51,0,1,1,2.51-2.51,2.51,2.51,0,0,1-2.51,2.51"></path>
    <path class="cls-2" d="M115.38,45.05a1.12,1.12,0,1,1-1.11-1.12,1.11,1.11,0,0,1,1.11,1.12"></path>
    <path class="cls-2" d="M104.63,69.6A3.42,3.42,0,1,0,108.05,73a3.42,3.42,0,0,0-3.42-3.42m.3,6.48a2.51,2.51,0,1,1,2.5-2.51,2.51,2.51,0,0,1-2.5,2.51"></path>
    <path class="cls-2" d="M120.54,77.13A3.42,3.42,0,1,0,124,80.55a3.42,3.42,0,0,0-3.42-3.42m.3,6.49a2.51,2.51,0,1,1,2.5-2.52,2.51,2.51,0,0,1-2.5,2.52"></path>
    <path class="cls-2" d="M125.88,73.63V70.21l.53-.53h3.42V73.1l-.53.53ZM129,70.47h-2.89v2.9H129Z"></path>
    <path class="cls-2" d="M115,59.2V55.78l.53-.53h3.42v3.42l-.53.53ZM118.14,56h-2.9v2.89h2.9Z"></path>
    <path class="cls-2" d="M103.65,57.56V54.14l.53-.52h3.42V57l-.53.52Zm3.16-3.15h-2.89V57.3h2.89Z"></path>
    <path class="cls-2" d="M122.19,61.47l.57-.23a1.73,1.73,0,0,1,.71-.14A1.85,1.85,0,0,1,125,64a1.83,1.83,0,0,1-.83.68l-.57.24a1.91,1.91,0,0,1-.71.14A1.86,1.86,0,0,1,121,63.19a1.88,1.88,0,0,1,.3-1,2,2,0,0,1,.85-.7m.71,3.32a1.6,1.6,0,0,0,1.61-1.6,1.57,1.57,0,0,0-.47-1.14,1.59,1.59,0,0,0-1.14-.47,1.55,1.55,0,0,0-1.13.47,1.5,1.5,0,0,0-.48,1.12,1.58,1.58,0,0,0,.47,1.15,1.52,1.52,0,0,0,1.14.47"></path>
    <polygon class="cls-2" points="124.1 66.73 125.57 66.13 124.96 67.6 126.43 68.2 124.96 68.81 125.57 70.28 124.1 69.67 123.49 71.14 122.89 69.67 121.41 70.28 122.02 68.81 120.55 68.2 122.02 67.6 121.41 66.13 122.88 66.73 123.49 65.26 124.1 66.73"></polygon>
    <polygon class="cls-2" points="86.56 89.41 88.03 88.8 87.42 90.27 88.89 90.88 87.42 91.48 88.03 92.95 86.56 92.35 85.95 93.82 85.35 92.35 83.88 92.95 84.48 91.48 83.01 90.88 84.48 90.27 83.88 88.8 85.34 89.41 85.95 87.94 86.56 89.41"></polygon>
    <polygon class="cls-2" points="129.34 84.78 130.81 84.17 130.2 85.64 131.68 86.25 130.2 86.86 130.81 88.33 129.34 87.72 128.74 89.19 128.13 87.72 126.66 88.33 127.26 86.86 125.8 86.25 127.26 85.64 126.66 84.17 128.12 84.78 128.74 83.31 129.34 84.78"></polygon>
    <path class="cls-2" d="M134.28,71.3a1.11,1.11,0,0,1,.84-.43,1.08,1.08,0,0,1,1.08,1,1,1,0,0,1-1,1c-1,0-.91-.87-1.76-.92a1.23,1.23,0,0,0,.5.88,1.11,1.11,0,0,1,.44.9,1.05,1.05,0,0,1-1.08,1,1.07,1.07,0,0,1-1-1.06c0-.86.92-.91.92-1.74-.84.06-.86.94-1.75.94a1.08,1.08,0,0,1-1.06-1.07,1.09,1.09,0,0,1,1.05-1c.93,0,.92.91,1.76.91-.07-.79-.93-.88-.93-1.74a1.05,1.05,0,0,1,2.1,0c0,1-.87.9-.91,1.76a1.2,1.2,0,0,0,.86-.48"></path>
    <path class="cls-2" d="M114,88.16a1.11,1.11,0,0,1,.85-.43,1.07,1.07,0,0,1,1.07,1,1,1,0,0,1-1,1c-.95,0-.91-.87-1.75-.92a1.21,1.21,0,0,0,.49.87,1.12,1.12,0,0,1,.44.91,1.05,1.05,0,0,1-1.08,1,1.07,1.07,0,0,1-1-1.06c0-.87.92-.91.91-1.74-.84.06-.85.94-1.74.94a1.07,1.07,0,0,1-1.06-1.07,1.09,1.09,0,0,1,1-1c.94,0,.92.92,1.76.92-.07-.8-.93-.89-.93-1.75a1.06,1.06,0,0,1,2.11,0c0,1-.87.9-.91,1.77a1.23,1.23,0,0,0,.85-.49"></path>
    <path class="cls-2" d="M103.17,59a1.11,1.11,0,0,1,.85-.43,1.07,1.07,0,0,1,1.07,1.05,1,1,0,0,1-1,1c-1,0-.91-.87-1.76-.92a1.23,1.23,0,0,0,.5.88,1.1,1.1,0,0,1,.43.9,1.05,1.05,0,0,1-1.08,1,1.07,1.07,0,0,1-1-1.06c0-.86.92-.91.91-1.74-.84.06-.85.94-1.74.94a1.07,1.07,0,0,1-1.06-1.07,1.09,1.09,0,0,1,1-1.05c.94,0,.92.91,1.76.91-.06-.79-.93-.88-.93-1.74a1.06,1.06,0,0,1,2.11,0c0,.95-.87.9-.91,1.76a1.18,1.18,0,0,0,.85-.48"></path>
    <path class="cls-2" d="M128.81,79.59a1.11,1.11,0,0,1,.84-.43,1.08,1.08,0,0,1,1.08,1,1,1,0,0,1-1,1.06c-1,0-.91-.88-1.76-.93a1.19,1.19,0,0,0,.5.87,1.15,1.15,0,0,1,.44.91,1.06,1.06,0,0,1-2.12,0c0-.88.92-.92.91-1.75-.84.06-.85.94-1.74.94a1.08,1.08,0,0,1-1.06-1.07,1.09,1.09,0,0,1,1.05-1c.93,0,.91.92,1.75.92-.06-.8-.92-.89-.92-1.75a1.05,1.05,0,0,1,2.1,0c0,1-.87.9-.91,1.77a1.21,1.21,0,0,0,.86-.49"></path>
    <path class="cls-2" d="M121.83,52.69a1.14,1.14,0,0,1,.85-.43,1.08,1.08,0,0,1,1.07,1.06,1,1,0,0,1-1,1c-1,0-.91-.87-1.75-.91a1.25,1.25,0,0,0,.49.87,1.09,1.09,0,0,1,.44.9,1.05,1.05,0,0,1-1.08,1,1.07,1.07,0,0,1-1-1.05c0-.87.92-.91.91-1.74-.84,0-.86.93-1.74.93a1.07,1.07,0,0,1-1.06-1.06,1.09,1.09,0,0,1,1-1.06c.94,0,.92.92,1.76.92-.07-.8-.93-.89-.93-1.75a1.06,1.06,0,0,1,2.11,0c0,1-.87.9-.91,1.77a1.19,1.19,0,0,0,.85-.49"></path>
    <path class="cls-2" d="M132.17,67.51a1.4,1.4,0,0,0-.06-.41l.65-.39-.35-.6-.65.4a1.37,1.37,0,0,0-.68-.39v-.77h-.69v.76a1.5,1.5,0,0,0-.69.4l-.67-.4-.33.6.66.39a1.43,1.43,0,0,0,0,.82l-.65.38.35.6.65-.38a1.48,1.48,0,0,0,.68.38v.76h.69V68.9a1.45,1.45,0,0,0,.68-.39l.67.39.33-.6-.65-.38a1.4,1.4,0,0,0,.06-.41"></path>
    <path class="cls-2" d="M112.6,55.41a1.84,1.84,0,0,0-.06-.41l.65-.38-.36-.6-.64.4a1.47,1.47,0,0,0-.68-.4v-.76h-.69V54a1.53,1.53,0,0,0-.7.4l-.66-.4-.33.6.65.38a1.4,1.4,0,0,0-.06.41,1.42,1.42,0,0,0,.06.42l-.65.38.36.6.65-.39a1.37,1.37,0,0,0,.68.39v.76h.69v-.76a1.45,1.45,0,0,0,.68-.39l.66.39.34-.6-.65-.38a1.85,1.85,0,0,0,.06-.42"></path>
    <path class="cls-2" d="M77.94,104.23a1.4,1.4,0,0,0-.06-.41l.65-.38-.35-.6-.65.39a1.37,1.37,0,0,0-.68-.39v-.76h-.69v.76a1.43,1.43,0,0,0-.7.39l-.66-.39-.33.6.65.38a1.84,1.84,0,0,0-.06.41,1.76,1.76,0,0,0,.06.41l-.64.39.35.59.65-.38a1.54,1.54,0,0,0,.68.39v.75h.69v-.76a1.37,1.37,0,0,0,.68-.39l.67.39.33-.59-.65-.39a1.4,1.4,0,0,0,.06-.41"></path>
    <path class="cls-2" d="M123.72,58.56a1.84,1.84,0,0,0-.06-.41l.65-.38-.35-.6-.65.39a1.54,1.54,0,0,0-.68-.39v-.76h-.69v.76a1.45,1.45,0,0,0-.7.4l-.66-.4-.33.6.65.38a1.84,1.84,0,0,0-.06.41,1.93,1.93,0,0,0,.06.42l-.64.38.35.6.65-.39a1.45,1.45,0,0,0,.68.39v.76h.69V60a1.37,1.37,0,0,0,.68-.39l.66.4.34-.6-.65-.38a1.93,1.93,0,0,0,.06-.42"></path>
    <polygon class="cls-2" points="80.59 107.57 81.49 107.57 81.49 108.47 80.59 108.47 80.59 109.38 79.68 109.38 79.68 108.47 78.79 108.47 78.79 107.57 79.68 107.57 79.68 106.67 80.59 106.67 80.59 107.57"></polygon>
    <path class="cls-2" d="M78.07,109.65a.4.4,0,0,1-.13.34.5.5,0,0,1-.33.1A3.61,3.61,0,0,1,77,110a8.8,8.8,0,0,0-1.17-.21,6.67,6.67,0,0,0,.53.65l.4.43a2.15,2.15,0,0,1,.26.32.46.46,0,0,1,.1.29.36.36,0,0,1-.15.29.47.47,0,0,1-.32.13.38.38,0,0,1-.21-.07.49.49,0,0,1-.17-.18A2.69,2.69,0,0,1,76,111a7.21,7.21,0,0,0-.42-1.17,11.15,11.15,0,0,0-.42,1.17,2.63,2.63,0,0,1-.21.58.73.73,0,0,1-.16.18.38.38,0,0,1-.22.07.51.51,0,0,1-.32-.12.39.39,0,0,1-.14-.3.57.57,0,0,1,.08-.28,2.83,2.83,0,0,1,.27-.33l.42-.44a7.16,7.16,0,0,0,.51-.64,7.49,7.49,0,0,0-1.14.2,3.11,3.11,0,0,1-.68.14.51.51,0,0,1-.34-.1.4.4,0,0,1-.13-.34.42.42,0,0,1,.13-.33.51.51,0,0,1,.34-.11,2.73,2.73,0,0,1,.65.13,7.21,7.21,0,0,0,1.17.2,7.79,7.79,0,0,0-.51-.63l-.42-.45a2,2,0,0,1-.26-.32.5.5,0,0,1-.09-.29.36.36,0,0,1,.15-.29.47.47,0,0,1,.31-.12.31.31,0,0,1,.21.06.49.49,0,0,1,.17.18,3.17,3.17,0,0,1,.23.67,7.54,7.54,0,0,0,.4,1.08,7.67,7.67,0,0,0,.4-1.11,3.63,3.63,0,0,1,.22-.64.57.57,0,0,1,.16-.18.43.43,0,0,1,.22-.06.5.5,0,0,1,.32.11.37.37,0,0,1,.15.3,1,1,0,0,1-.35.6,14.13,14.13,0,0,0-.94,1.09,9.39,9.39,0,0,0,1.17-.2,3.08,3.08,0,0,1,.66-.13.5.5,0,0,1,.33.11.4.4,0,0,1,.13.33"></path>
    <path class="cls-2" d="M75.43,122.44a.83.83,0,0,1-.26.67,1,1,0,0,1-.67.2,7,7,0,0,1-1.31-.26,16.82,16.82,0,0,0-2.31-.42,13.49,13.49,0,0,0,1,1.29l.81.85a7,7,0,0,1,.52.64,1,1,0,0,1,.18.58.76.76,0,0,1-.29.58,1,1,0,0,1-.63.24.85.85,0,0,1-.43-.12,1.08,1.08,0,0,1-.33-.37,5.14,5.14,0,0,1-.39-1.15,16.61,16.61,0,0,0-.85-2.33c-.39,1-.67,1.76-.83,2.34a5.25,5.25,0,0,1-.4,1.14,1.37,1.37,0,0,1-.33.37.73.73,0,0,1-.43.12,1,1,0,0,1-.64-.23.73.73,0,0,1-.28-.59,1,1,0,0,1,.17-.56,6,6,0,0,1,.53-.66l.82-.87a14.12,14.12,0,0,0,1-1.27,14.91,14.91,0,0,0-2.26.41,7.15,7.15,0,0,1-1.36.27,1,1,0,0,1-.67-.2.82.82,0,0,1-.26-.67.83.83,0,0,1,.26-.65.94.94,0,0,1,.67-.23,5.93,5.93,0,0,1,1.3.26,15.53,15.53,0,0,0,2.32.4,15.73,15.73,0,0,0-1-1.25l-.83-.9a5.71,5.71,0,0,1-.53-.63,1.09,1.09,0,0,1-.17-.58.73.73,0,0,1,.29-.58,1,1,0,0,1,.63-.25.72.72,0,0,1,.42.13,1.12,1.12,0,0,1,.34.37,7.24,7.24,0,0,1,.45,1.33A16.47,16.47,0,0,0,70.5,122a13.6,13.6,0,0,0,.81-2.2,7,7,0,0,1,.43-1.27,1.08,1.08,0,0,1,.33-.37.78.78,0,0,1,.43-.13,1,1,0,0,1,.63.24.71.71,0,0,1,.29.59,1.85,1.85,0,0,1-.69,1.19,26.6,26.6,0,0,0-1.85,2.17,18.09,18.09,0,0,0,2.31-.41,6.56,6.56,0,0,1,1.31-.25,1,1,0,0,1,.67.22.84.84,0,0,1,.26.66"></path>
    <path class="cls-2" d="M73.48,112.65l.58-.23a1.68,1.68,0,0,1,.7-.14,1.83,1.83,0,0,1,1.32.54,1.84,1.84,0,0,1,.22,2.34,1.74,1.74,0,0,1-.83.68l-.57.24a1.86,1.86,0,0,1-.7.14,1.86,1.86,0,0,1-1.56-2.87,2,2,0,0,1,.84-.7m.71,3.32a1.53,1.53,0,0,0,1.14-.47,1.55,1.55,0,0,0,.47-1.13,1.57,1.57,0,0,0-.47-1.14,1.61,1.61,0,0,0-2.27,0,1.49,1.49,0,0,0-.47,1.12,1.57,1.57,0,0,0,.46,1.15,1.52,1.52,0,0,0,1.14.47"></path>
    <path class="cls-2" d="M108.25,109.32l1.19,1.18-1.17,1.17L107,110.5ZM111,109l-1.16,1.17L108.65,109l1.18-1.26Zm.38,2.71-1.16-1.17,1.18-1.18,1.24,1.23Z"></path>
    <path class="cls-2" d="M109.86,125.76l1.18,1.18-1.17,1.16-1.25-1.16Zm2.73-.36-1.16,1.16-1.17-1.17,1.17-1.26Zm-2.33,3.1,1.17-1.18,1.19,1.18-1.19,1.29Zm2.71-.4-1.16-1.16,1.18-1.18,1.25,1.23Z"></path>
    <path class="cls-2" d="M88,136.41l1.19,1.17L88,138.75l-1.25-1.17Zm2.74-.37-1.16,1.17L88.42,136l1.18-1.25Zm-2.34,3.1L89.6,138l1.18,1.18-1.18,1.29Zm2.72-.39L90,137.58l1.18-1.17,1.25,1.22Z"></path>
    <path class="cls-2" d="M80.46,129l1.18,1.18-1.17,1.17-1.25-1.17Zm2.73-.36L82,129.85l-1.17-1.18L82,127.42Zm-2.33,3.1L82,130.6l1.18,1.18L82,133.07Zm2.71-.39-1.16-1.17L83.59,129l1.25,1.23Z"></path>
    <polygon class="cls-2" points="84.76 112.54 85.94 113.72 84.77 114.88 83.52 113.72 84.76 112.54"></polygon>
    <polygon class="cls-2" points="85.58 127.02 86.48 127.02 86.48 127.92 85.58 127.92 85.58 128.82 84.67 128.82 84.67 127.92 83.78 127.92 83.78 127.02 84.67 127.02 84.67 126.12 85.58 126.12 85.58 127.02"></polygon>
    <polygon class="cls-2" points="98.39 136.37 99.29 136.37 99.29 137.27 98.39 137.27 98.39 138.18 97.48 138.18 97.48 137.27 96.59 137.27 96.59 136.37 97.48 136.37 97.48 135.47 98.39 135.47 98.39 136.37"></polygon>
    <polygon class="cls-2" points="121.74 95.83 122.64 95.83 122.64 96.73 121.74 96.73 121.74 97.63 120.83 97.63 120.83 96.73 119.94 96.73 119.94 95.83 120.83 95.83 120.83 94.93 121.74 94.93 121.74 95.83"></polygon>
    <polygon class="cls-2" points="109.79 102.54 110.69 102.54 110.69 103.44 109.79 103.44 109.79 104.34 108.88 104.34 108.88 103.44 107.99 103.44 107.99 102.54 108.88 102.54 108.88 101.64 109.79 101.64 109.79 102.54"></polygon>
    <polygon class="cls-2" points="88.18 131.3 89.84 131.3 89.84 132.95 88.18 132.95 88.18 134.62 86.51 134.62 86.51 132.95 84.87 132.95 84.87 131.3 86.51 131.3 86.51 129.65 88.18 129.65 88.18 131.3"></polygon>
    <polygon class="cls-2" points="80.96 114.01 82.62 114.01 82.62 115.66 80.96 115.66 80.96 117.33 79.3 117.33 79.3 115.66 77.66 115.66 77.66 114.01 79.3 114.01 79.3 112.36 80.96 112.36 80.96 114.01"></polygon>
    <polygon class="cls-2" points="93.87 141.4 95.53 141.4 95.53 143.05 93.87 143.05 93.87 144.72 92.2 144.72 92.2 143.05 90.56 143.05 90.56 141.4 92.2 141.4 92.2 139.75 93.87 139.75 93.87 141.4"></polygon>
    <polygon class="cls-2" points="89.67 98 91.33 98 91.33 99.65 89.67 99.65 89.67 101.31 88 101.31 88 99.65 86.37 99.65 86.37 98 88 98 88 96.34 89.67 96.34 89.67 98"></polygon>
    <polygon class="cls-2" points="114.14 100.21 115.8 100.21 115.8 101.86 114.14 101.86 114.14 103.52 112.47 103.52 112.47 101.86 110.83 101.86 110.83 100.21 112.47 100.21 112.47 98.56 114.14 98.56 114.14 100.21"></polygon>
    <polygon class="cls-2" points="116.12 134.07 116.89 133.88 116.32 134.43 117.1 134.67 116.32 134.9 116.89 135.46 116.12 135.26 116.34 136.03 115.72 135.46 115.5 136.25 115.3 135.47 114.73 136.06 114.92 135.29 114.15 135.48 114.73 134.89 113.92 134.67 114.73 134.44 114.15 133.85 114.92 134.05 114.73 133.27 115.3 133.85 115.5 133.09 115.72 133.88 116.34 133.31 116.12 134.07"></polygon>
    <polygon class="cls-2" points="93.36 101.24 94.41 100.98 93.64 101.74 94.7 102.05 93.64 102.38 94.41 103.14 93.36 102.88 93.67 103.93 92.81 103.14 92.51 104.23 92.24 103.17 91.45 103.96 91.72 102.91 90.66 103.18 91.45 102.36 90.35 102.05 91.45 101.75 90.66 100.94 91.72 101.21 91.45 100.15 92.24 100.94 92.51 99.89 92.81 100.98 93.67 100.19 93.36 101.24"></polygon>
    <polygon class="cls-2" points="117.7 102.93 118.47 102.74 117.91 103.29 118.68 103.52 117.91 103.76 118.47 104.31 117.7 104.12 117.93 104.89 117.3 104.31 117.08 105.11 116.89 104.33 116.31 104.91 116.51 104.14 115.73 104.34 116.31 103.75 115.5 103.52 116.31 103.3 115.73 102.71 116.51 102.91 116.31 102.13 116.89 102.71 117.08 101.94 117.3 102.74 117.93 102.16 117.7 102.93"></polygon>
    <polygon class="cls-2" points="111.3 96.11 112.06 95.92 111.5 96.47 112.28 96.7 111.5 96.94 112.06 97.5 111.3 97.3 111.53 98.07 110.9 97.5 110.68 98.29 110.48 97.51 109.9 98.1 110.1 97.33 109.33 97.52 109.9 96.93 109.1 96.7 109.9 96.49 109.33 95.89 110.1 96.09 109.9 95.31 110.48 95.89 110.68 95.13 110.9 95.92 111.53 95.34 111.3 96.11"></polygon>
    <path class="cls-2" d="M92.81,83.78a1.6,1.6,0,1,0,1.61,1.6,1.6,1.6,0,0,0-1.61-1.6m0,2.58a1,1,0,1,1,1-1,1,1,0,0,1-1,1"></path>
    <path class="cls-2" d="M100.4,75.21a1.6,1.6,0,1,0,1.6,1.6,1.6,1.6,0,0,0-1.6-1.6m0,2.58a1,1,0,0,1,0-2,1,1,0,1,1,0,2"></path>
    <path class="cls-2" d="M78,131.21a1.6,1.6,0,1,0,1.6,1.6,1.61,1.61,0,0,0-1.6-1.6m0,2.58a1,1,0,1,1,1-1,1,1,0,0,1-1,1"></path>
    <path class="cls-2" d="M82.63,109.88a1.6,1.6,0,1,0,1.6,1.6,1.6,1.6,0,0,0-1.6-1.6m0,2.58a1,1,0,1,1,1-1,1,1,0,0,1-1,1"></path>
    <path class="cls-2" d="M97.52,138.84a1.6,1.6,0,1,0,1.6,1.6,1.6,1.6,0,0,0-1.6-1.6m0,2.59a1,1,0,1,1,0-2,1,1,0,0,1,0,2"></path>
    <path class="cls-2" d="M119.19,110.48a.75.75,0,1,1-1.5,0,.75.75,0,0,1,1.5,0"></path>
    <path class="cls-2" d="M85,117a.75.75,0,1,1-.75-.75A.75.75,0,0,1,85,117"></path>
    <path class="cls-2" d="M86.3,136.59a.75.75,0,0,1-1.5,0,.75.75,0,0,1,1.5,0"></path>
    <path class="cls-2" d="M95.46,138.3a.75.75,0,1,1-.75-.75.75.75,0,0,1,.75.75"></path>
    <path class="cls-2" d="M109.56,129.52a.75.75,0,1,1-.75-.75.76.76,0,0,1,.75.75"></path>
    <path class="cls-2" d="M114.06,137.34a.75.75,0,0,1-1.5,0,.75.75,0,0,1,1.5,0"></path>
    <path class="cls-2" d="M96.28,144.86a.75.75,0,1,1-.75-.75.75.75,0,0,1,.75.75"></path>
    <path class="cls-2" d="M90.31,144a.75.75,0,0,1-1.5,0,.75.75,0,0,1,1.5,0"></path>
    <path class="cls-2" d="M97.11,100a.75.75,0,1,1-.75-.75.75.75,0,0,1,.75.75"></path>
    <path class="cls-2" d="M83.38,106.33a.75.75,0,1,1-.75-.75.75.75,0,0,1,.75.75"></path>
    <path class="cls-2" d="M79.87,110.89a.75.75,0,0,1-1.5,0,.75.75,0,1,1,1.5,0"></path>
    <path class="cls-2" d="M81.65,119.85a.75.75,0,0,1-1.5,0,.75.75,0,0,1,1.5,0"></path>
    <path class="cls-2" d="M98.38,95.53a.75.75,0,1,1-.75-.75.75.75,0,0,1,.75.75"></path>
    <path class="cls-2" d="M101.15,89.56a.75.75,0,1,1-.75-.75.75.75,0,0,1,.75.75"></path>
    <path class="cls-2" d="M87.08,95.14a.75.75,0,1,1-.75-.75.76.76,0,0,1,.75.75"></path>
    <path class="cls-2" d="M97.74,77.32a.75.75,0,0,1-1.5,0,.75.75,0,0,1,1.5,0"></path>
    <path class="cls-2" d="M83.38,95.89a.75.75,0,1,1-.75-.75.76.76,0,0,1,.75.75"></path>
    <path class="cls-2" d="M111,105.86a.75.75,0,0,1-1.5,0,.75.75,0,0,1,1.5,0"></path>
    <path class="cls-2" d="M107.1,102.47a.75.75,0,0,1-1.5,0,.75.75,0,0,1,1.5,0"></path>
    <path class="cls-2" d="M109.14,105.73a.4.4,0,0,1-.13.34.53.53,0,0,1-.34.11A3.81,3.81,0,0,1,108,106a8.8,8.8,0,0,0-1.17-.21,5.66,5.66,0,0,0,.52.65l.41.43c.11.12.19.23.26.32a.52.52,0,0,1,.09.29.36.36,0,0,1-.15.29.45.45,0,0,1-.32.13.35.35,0,0,1-.21-.07.59.59,0,0,1-.17-.18,2.59,2.59,0,0,1-.19-.58,9.22,9.22,0,0,0-.43-1.17,11.15,11.15,0,0,0-.42,1.17,2.28,2.28,0,0,1-.2.58.81.81,0,0,1-.17.19.33.33,0,0,1-.21.06.47.47,0,0,1-.32-.12.37.37,0,0,1-.15-.3.49.49,0,0,1,.09-.28,2.83,2.83,0,0,1,.27-.33l.41-.44a7.16,7.16,0,0,0,.51-.64,7.56,7.56,0,0,0-1.13.21,3.79,3.79,0,0,1-.69.14.53.53,0,0,1-.34-.11.43.43,0,0,1-.13-.34.41.41,0,0,1,.13-.32.49.49,0,0,1,.34-.12,3.58,3.58,0,0,1,.66.13,6.14,6.14,0,0,0,1.16.2A6.23,6.23,0,0,0,106,105l-.41-.45a2.83,2.83,0,0,1-.27-.33.47.47,0,0,1-.09-.28.38.38,0,0,1,.15-.3.51.51,0,0,1,.32-.12.42.42,0,0,1,.21.06.53.53,0,0,1,.17.19,3.6,3.6,0,0,1,.23.67,7.79,7.79,0,0,0,.39,1.07,8.26,8.26,0,0,0,.41-1.1,2.89,2.89,0,0,1,.21-.64.63.63,0,0,1,.17-.19.37.37,0,0,1,.21-.06.47.47,0,0,1,.32.12.36.36,0,0,1,.15.3.92.92,0,0,1-.35.59c-.22.23-.54.59-.93,1.09a7.85,7.85,0,0,0,1.17-.2,3,3,0,0,1,.65-.13.53.53,0,0,1,.34.11.42.42,0,0,1,.13.33"></path>
    <path class="cls-2" d="M84.23,135.62a.39.39,0,0,1-.13.33.51.51,0,0,1-.34.11,4.26,4.26,0,0,1-.65-.14,8.8,8.8,0,0,0-1.17-.21,7,7,0,0,0,.52.65l.41.43a2.82,2.82,0,0,1,.26.32.52.52,0,0,1,.09.29.38.38,0,0,1-.15.3.47.47,0,0,1-.31.12.36.36,0,0,1-.22-.07.47.47,0,0,1-.16-.18,2.1,2.1,0,0,1-.2-.58,8.3,8.3,0,0,0-.43-1.17c-.19.49-.33.89-.41,1.17a2.63,2.63,0,0,1-.21.58.64.64,0,0,1-.16.19.38.38,0,0,1-.22.06.51.51,0,0,1-.32-.12.37.37,0,0,1-.15-.3.49.49,0,0,1,.09-.28l.27-.33.41-.44a5.77,5.77,0,0,0,.52-.64,8.92,8.92,0,0,0-1.14.21,3.79,3.79,0,0,1-.69.14.56.56,0,0,1-.33-.1.41.41,0,0,1-.13-.34.42.42,0,0,1,.13-.33.46.46,0,0,1,.33-.12,3.3,3.3,0,0,1,.66.13,6.12,6.12,0,0,0,1.17.2,8,8,0,0,0-.51-.62l-.42-.45c-.12-.13-.2-.24-.27-.32a.62.62,0,0,1-.09-.29.38.38,0,0,1,.15-.3.51.51,0,0,1,.32-.12.37.37,0,0,1,.21.06.64.64,0,0,1,.17.19,3,3,0,0,1,.23.67,10.25,10.25,0,0,0,.39,1.08,7.52,7.52,0,0,0,.41-1.11,3.63,3.63,0,0,1,.22-.64.6.6,0,0,1,.16-.19.43.43,0,0,1,.22-.06.51.51,0,0,1,.32.12.36.36,0,0,1,.14.3.92.92,0,0,1-.34.59,13.86,13.86,0,0,0-.94,1.09,7.85,7.85,0,0,0,1.17-.2,4.07,4.07,0,0,1,.65-.13.47.47,0,0,1,.34.12.39.39,0,0,1,.13.33"></path>
    <path class="cls-2" d="M88,108.16a.39.39,0,0,1-.13.33.53.53,0,0,1-.34.11,3.81,3.81,0,0,1-.65-.14,10.89,10.89,0,0,0-1.17-.2c.19.25.36.47.52.64l.41.44a3.05,3.05,0,0,1,.26.31.52.52,0,0,1,.09.29.35.35,0,0,1-.15.29.45.45,0,0,1-.32.13.42.42,0,0,1-.21-.06.6.6,0,0,1-.16-.19,2.1,2.1,0,0,1-.2-.58,9.82,9.82,0,0,0-.43-1.17,9.46,9.46,0,0,0-.41,1.18,2.49,2.49,0,0,1-.21.57.65.65,0,0,1-.17.19.33.33,0,0,1-.21.06.49.49,0,0,1-.32-.12.37.37,0,0,1-.15-.3.49.49,0,0,1,.09-.28c.06-.08.15-.19.27-.32s.24-.26.41-.45a5.58,5.58,0,0,0,.51-.63,7.58,7.58,0,0,0-1.13.2,3.79,3.79,0,0,1-.69.14.6.6,0,0,1-.34-.1.44.44,0,0,1-.13-.34.45.45,0,0,1,.13-.33.49.49,0,0,1,.34-.12,3.58,3.58,0,0,1,.66.13,6.14,6.14,0,0,0,1.16.2c-.16-.21-.33-.42-.51-.62l-.41-.45c-.12-.13-.21-.24-.27-.32a.52.52,0,0,1-.09-.29.4.4,0,0,1,.15-.3.51.51,0,0,1,.32-.12.42.42,0,0,1,.21.06.64.64,0,0,1,.17.19,3.6,3.6,0,0,1,.23.67,7.9,7.9,0,0,0,.39,1.08,8.33,8.33,0,0,0,.41-1.11,2.94,2.94,0,0,1,.22-.64.49.49,0,0,1,.16-.19.37.37,0,0,1,.21-.06.47.47,0,0,1,.32.12.37.37,0,0,1,.15.3.89.89,0,0,1-.34.59,13.86,13.86,0,0,0-.94,1.09,7.85,7.85,0,0,0,1.17-.2,4.07,4.07,0,0,1,.65-.13.49.49,0,0,1,.34.12.39.39,0,0,1,.13.33"></path>
    <path class="cls-2" d="M105.26,100.28a.61.61,0,0,1-.19.5.75.75,0,0,1-.5.16,5.73,5.73,0,0,1-1-.2,11.57,11.57,0,0,0-1.74-.31,11.38,11.38,0,0,0,.78,1l.6.64a3.43,3.43,0,0,1,.39.48.76.76,0,0,1,.14.43.57.57,0,0,1-.22.44.76.76,0,0,1-.48.18.59.59,0,0,1-.31-.09.76.76,0,0,1-.25-.28,3.91,3.91,0,0,1-.3-.86,10.77,10.77,0,0,0-.63-1.74,14.26,14.26,0,0,0-.62,1.74,3.77,3.77,0,0,1-.31.86.87.87,0,0,1-.25.28.5.5,0,0,1-.31.09.71.71,0,0,1-.48-.17.55.55,0,0,1-.22-.45.72.72,0,0,1,.13-.42,5.15,5.15,0,0,1,.4-.49l.61-.66a8.42,8.42,0,0,0,.77-.94,10.4,10.4,0,0,0-1.69.3,5.38,5.38,0,0,1-1,.21.8.8,0,0,1-.5-.15.63.63,0,0,1-.19-.51.61.61,0,0,1,.19-.49.76.76,0,0,1,.5-.17,4.45,4.45,0,0,1,1,.2,12.05,12.05,0,0,0,1.74.29,9.91,9.91,0,0,0-.76-.93c-.27-.29-.47-.52-.62-.67a5.57,5.57,0,0,1-.4-.48.75.75,0,0,1-.13-.43.56.56,0,0,1,.22-.44.76.76,0,0,1,.48-.18.59.59,0,0,1,.31.09.77.77,0,0,1,.25.28,4.92,4.92,0,0,1,.34,1,12.35,12.35,0,0,0,.59,1.62,12.6,12.6,0,0,0,.61-1.66,4.52,4.52,0,0,1,.32-1,.83.83,0,0,1,.24-.28.62.62,0,0,1,.32-.09.72.72,0,0,1,.48.17.55.55,0,0,1,.22.45,1.38,1.38,0,0,1-.52.89,18.9,18.9,0,0,0-1.39,1.62,11.77,11.77,0,0,0,1.74-.3,4.67,4.67,0,0,1,1-.19.76.76,0,0,1,.5.17.6.6,0,0,1,.19.49"></path>
    <path class="cls-2" d="M87.55,101.16a.79.79,0,0,1-.26.67,1,1,0,0,1-.66.21,7.24,7.24,0,0,1-1.31-.27,18.75,18.75,0,0,0-2.32-.41,13.2,13.2,0,0,0,1,1.28l.81.86a5.43,5.43,0,0,1,.51.63,1,1,0,0,1,.19.58.73.73,0,0,1-.3.58.94.94,0,0,1-.63.25.8.8,0,0,1-.42-.13,1.08,1.08,0,0,1-.33-.37,5.21,5.21,0,0,1-.39-1.14,16.17,16.17,0,0,0-.85-2.33c-.39,1-.67,1.76-.83,2.33a4.92,4.92,0,0,1-.41,1.14,1.39,1.39,0,0,1-.32.38.75.75,0,0,1-.43.12,1,1,0,0,1-.64-.24.72.72,0,0,1-.29-.59,1,1,0,0,1,.17-.56,6.73,6.73,0,0,1,.54-.65l.82-.88a13.92,13.92,0,0,0,1-1.26,14.93,14.93,0,0,0-2.26.4,6.72,6.72,0,0,1-1.37.28,1.06,1.06,0,0,1-.66-.2.81.81,0,0,1-.26-.68.8.8,0,0,1,.26-.65,1,1,0,0,1,.66-.23,6,6,0,0,1,1.31.26,14.14,14.14,0,0,0,2.32.4c-.32-.44-.66-.85-1-1.25l-.83-.89a4.76,4.76,0,0,1-.53-.64,1,1,0,0,1-.18-.57A.75.75,0,0,1,80,97a1,1,0,0,1,.63-.24.73.73,0,0,1,.41.12,1.11,1.11,0,0,1,.34.37,6.57,6.57,0,0,1,.46,1.33,15.23,15.23,0,0,0,.78,2.15,15.89,15.89,0,0,0,.81-2.21,6.78,6.78,0,0,1,.43-1.27,1,1,0,0,1,.33-.36.7.7,0,0,1,.42-.13,1,1,0,0,1,.64.23.76.76,0,0,1,.29.6,1.86,1.86,0,0,1-.69,1.18A28.12,28.12,0,0,0,83,100.94a18.74,18.74,0,0,0,2.32-.4,6.85,6.85,0,0,1,1.31-.26,1,1,0,0,1,.66.22.8.8,0,0,1,.26.66"></path>
    <path class="cls-2" d="M113.31,135.45a.78.78,0,0,1-.26.66,1,1,0,0,1-.66.21,6.87,6.87,0,0,1-1.31-.26,17,17,0,0,0-2.32-.42,12.08,12.08,0,0,0,1,1.28c.32.35.59.63.81.86a4.71,4.71,0,0,1,.51.64,1,1,0,0,1,.19.58.74.74,0,0,1-.3.58,1,1,0,0,1-.63.24.79.79,0,0,1-.42-.12,1.08,1.08,0,0,1-.33-.37,5.14,5.14,0,0,1-.39-1.15,16.61,16.61,0,0,0-.85-2.33c-.39,1-.67,1.76-.83,2.34a5.11,5.11,0,0,1-.41,1.14,1.2,1.2,0,0,1-.32.37.68.68,0,0,1-.43.12,1,1,0,0,1-.64-.23.74.74,0,0,1-.29-.59,1,1,0,0,1,.18-.56,6,6,0,0,1,.53-.66l.82-.87a15.69,15.69,0,0,0,1-1.27,14.91,14.91,0,0,0-2.26.41,7.3,7.3,0,0,1-1.36.27,1,1,0,0,1-.67-.2.79.79,0,0,1-.26-.67.8.8,0,0,1,.26-.65,1,1,0,0,1,.67-.23,6,6,0,0,1,1.3.26,14.25,14.25,0,0,0,2.32.39c-.32-.43-.66-.85-1-1.24l-.83-.9a5.71,5.71,0,0,1-.53-.63,1,1,0,0,1-.18-.58.74.74,0,0,1,.3-.58,1,1,0,0,1,.63-.25.74.74,0,0,1,.41.13,1,1,0,0,1,.34.37,6.57,6.57,0,0,1,.46,1.33,15.12,15.12,0,0,0,.78,2.14,15.82,15.82,0,0,0,.81-2.2,6.51,6.51,0,0,1,.43-1.27,1.08,1.08,0,0,1,.33-.37.77.77,0,0,1,.42-.13,1,1,0,0,1,.64.24.72.72,0,0,1,.29.59,1.87,1.87,0,0,1-.69,1.19,27.55,27.55,0,0,0-1.86,2.16,15.62,15.62,0,0,0,2.32-.4,6.56,6.56,0,0,1,1.31-.25,1,1,0,0,1,.66.22.8.8,0,0,1,.26.66"></path>
    <path class="cls-2" d="M105.33,147.05a.82.82,0,0,1-.26.67,1.05,1.05,0,0,1-.67.21,8,8,0,0,1-1.31-.26,16.7,16.7,0,0,0-2.32-.42,14.88,14.88,0,0,0,1,1.28l.81.86a7.07,7.07,0,0,1,.52.63,1.07,1.07,0,0,1,.18.58.75.75,0,0,1-.3.59,1,1,0,0,1-.62.24.72.72,0,0,1-.42-.13.91.91,0,0,1-.34-.36,5.34,5.34,0,0,1-.39-1.15,16.17,16.17,0,0,0-.85-2.33c-.39,1-.67,1.76-.83,2.33a5.19,5.19,0,0,1-.4,1.15,1.54,1.54,0,0,1-.33.37.73.73,0,0,1-.43.12,1,1,0,0,1-.64-.23.76.76,0,0,1-.29-.6,1,1,0,0,1,.18-.55,6,6,0,0,1,.53-.66c.21-.21.48-.51.82-.87a15.69,15.69,0,0,0,1-1.27,16.29,16.29,0,0,0-2.26.4,6.67,6.67,0,0,1-1.36.28,1.09,1.09,0,0,1-.67-.2.83.83,0,0,1-.26-.68.84.84,0,0,1,.26-.65,1,1,0,0,1,.67-.22,5.46,5.46,0,0,1,1.3.26,14.44,14.44,0,0,0,2.32.39c-.32-.43-.66-.85-1-1.24l-.83-.9a6.82,6.82,0,0,1-.53-.63,1,1,0,0,1-.18-.58.73.73,0,0,1,.3-.58,1,1,0,0,1,.63-.25.79.79,0,0,1,.42.12,1.28,1.28,0,0,1,.34.38,7.24,7.24,0,0,1,.45,1.33,15.12,15.12,0,0,0,.78,2.14,15.89,15.89,0,0,0,.81-2.21,6.34,6.34,0,0,1,.43-1.26,1.08,1.08,0,0,1,.33-.37.8.8,0,0,1,.43-.13,1,1,0,0,1,.63.24.7.7,0,0,1,.29.59,1.9,1.9,0,0,1-.68,1.19,25.49,25.49,0,0,0-1.87,2.16,16.77,16.77,0,0,0,2.32-.4,6.68,6.68,0,0,1,1.31-.25,1,1,0,0,1,.67.22.83.83,0,0,1,.26.65"></path>
    <path class="cls-2" d="M89.72,122.11a.82.82,0,0,1-.26.67,1,1,0,0,1-.67.21,8,8,0,0,1-1.3-.26,17,17,0,0,0-2.32-.42,13.2,13.2,0,0,0,1,1.28l.8.86a5.66,5.66,0,0,1,.52.63,1,1,0,0,1,.19.58.75.75,0,0,1-.3.59,1,1,0,0,1-.63.24.72.72,0,0,1-.42-.13A1.07,1.07,0,0,1,86,126a5.34,5.34,0,0,1-.39-1.15,15.85,15.85,0,0,0-.84-2.33,20.42,20.42,0,0,0-.83,2.33,5.05,5.05,0,0,1-.41,1.15,1.35,1.35,0,0,1-.33.37.71.71,0,0,1-.43.12,1,1,0,0,1-.63-.23.76.76,0,0,1-.29-.6,1,1,0,0,1,.17-.55,6.32,6.32,0,0,1,.53-.66c.21-.21.48-.51.83-.88a13.92,13.92,0,0,0,1-1.26,14.93,14.93,0,0,0-2.26.4,6.72,6.72,0,0,1-1.37.28,1.11,1.11,0,0,1-.67-.2.83.83,0,0,1-.26-.68.84.84,0,0,1,.26-.65,1,1,0,0,1,.67-.22,5.51,5.51,0,0,1,1.31.26,14.06,14.06,0,0,0,2.32.39,15.27,15.27,0,0,0-1-1.24c-.35-.39-.63-.69-.83-.9a6.47,6.47,0,0,1-.52-.63,1,1,0,0,1-.18-.58.72.72,0,0,1,.3-.58.91.91,0,0,1,.62-.25.79.79,0,0,1,.42.12,1.16,1.16,0,0,1,.34.38,6.33,6.33,0,0,1,.46,1.33,15.58,15.58,0,0,0,.78,2.14,15.89,15.89,0,0,0,.81-2.21,7.33,7.33,0,0,1,.42-1.26,1.08,1.08,0,0,1,.33-.37.73.73,0,0,1,.43-.13,1,1,0,0,1,.64.24.72.72,0,0,1,.29.59,1.87,1.87,0,0,1-.69,1.19,24,24,0,0,0-1.86,2.16,17,17,0,0,0,2.32-.4,6.5,6.5,0,0,1,1.3-.25,1,1,0,0,1,.67.22.81.81,0,0,1,.26.65"></path>
    <path class="cls-2" d="M116,91.71a3.42,3.42,0,1,0,3.42,3.42A3.42,3.42,0,0,0,116,91.71m.3,6.48a2.51,2.51,0,1,1,2.51-2.5,2.5,2.5,0,0,1-2.51,2.5"></path>
    <path class="cls-2" d="M117.92,96.5a1.12,1.12,0,1,1-1.11-1.11,1.12,1.12,0,0,1,1.11,1.11"></path>
    <path class="cls-2" d="M95.53,87.35A3.42,3.42,0,1,0,99,90.77a3.42,3.42,0,0,0-3.42-3.42m.3,6.48a2.51,2.51,0,1,1,2.51-2.51,2.51,2.51,0,0,1-2.51,2.51"></path>
    <path class="cls-2" d="M97.47,92.14A1.12,1.12,0,1,1,96.36,91a1.11,1.11,0,0,1,1.11,1.12"></path>
    <path class="cls-2" d="M78,122.45a3.42,3.42,0,1,0,3.42,3.42A3.43,3.43,0,0,0,78,122.45m.29,6.49a2.51,2.51,0,1,1,2.51-2.51,2.51,2.51,0,0,1-2.51,2.51"></path>
    <path class="cls-2" d="M79.92,127.24a1.12,1.12,0,1,1-1.12-1.11,1.12,1.12,0,0,1,1.12,1.11"></path>
    <path class="cls-2" d="M118.18,121.42a3.42,3.42,0,1,0,3.42,3.42,3.42,3.42,0,0,0-3.42-3.42m.3,6.49A2.51,2.51,0,1,1,121,125.4a2.51,2.51,0,0,1-2.51,2.51"></path>
    <path class="cls-2" d="M119.45,124.9a1.12,1.12,0,1,1-1.11-1.12,1.12,1.12,0,0,1,1.11,1.12"></path>
    <path class="cls-2" d="M108,140.2a3.42,3.42,0,1,0,3.42,3.42A3.42,3.42,0,0,0,108,140.2m.3,6.48a2.51,2.51,0,1,1,2.51-2.5,2.5,2.5,0,0,1-2.51,2.5"></path>
    <path class="cls-2" d="M109.93,145a1.12,1.12,0,1,1-1.11-1.12,1.12,1.12,0,0,1,1.11,1.12"></path>
    <path class="cls-2" d="M93.89,130a3.42,3.42,0,1,0,3.42,3.42A3.42,3.42,0,0,0,93.89,130m.29,6.48A2.51,2.51,0,1,1,96.69,134a2.5,2.5,0,0,1-2.51,2.51"></path>
    <path class="cls-2" d="M95.83,134.78a1.12,1.12,0,1,1-1.12-1.12,1.12,1.12,0,0,1,1.12,1.12"></path>
    <path class="cls-2" d="M113.22,110.51l.57-.24a1.91,1.91,0,0,1,.71-.14A1.86,1.86,0,0,1,116,113a1.83,1.83,0,0,1-.83.68l-.57.24a2,2,0,0,1-.71.14,1.84,1.84,0,0,1-1.86-1.86,1.79,1.79,0,0,1,.3-1,2,2,0,0,1,.85-.7m.7,3.32a1.55,1.55,0,0,0,1.14-.47,1.61,1.61,0,0,0,0-2.27,1.61,1.61,0,0,0-2.27,0,1.52,1.52,0,0,0-.47,1.11,1.61,1.61,0,0,0,1.6,1.63"></path>
    <path class="cls-2" d="M113.29,128.66l.57-.23a1.76,1.76,0,0,1,.71-.14,1.85,1.85,0,0,1,.71,3.56l-.57.24a1.91,1.91,0,0,1-.71.14,1.79,1.79,0,0,1-1.31-.54,1.81,1.81,0,0,1-.54-1.32,1.86,1.86,0,0,1,.29-1,2,2,0,0,1,.85-.7M114,132a1.55,1.55,0,0,0,1.13-.47,1.52,1.52,0,0,0,.48-1.13,1.55,1.55,0,0,0-.47-1.14,1.59,1.59,0,0,0-1.14-.47,1.62,1.62,0,0,0-1.61,1.59,1.59,1.59,0,0,0,.47,1.15A1.55,1.55,0,0,0,114,132"></path>
    <polygon class="cls-2" points="114.31 105.53 115.78 104.93 115.17 106.4 116.64 107 115.17 107.61 115.78 109.08 114.31 108.48 113.7 109.94 113.1 108.48 111.63 109.08 112.23 107.61 110.76 107 112.23 106.4 111.63 104.93 113.09 105.53 113.7 104.07 114.31 105.53"></polygon>
    <polygon class="cls-2" points="102.21 92.72 103.68 92.11 103.07 93.58 104.54 94.19 103.07 94.8 103.68 96.26 102.21 95.66 101.6 97.13 100.99 95.66 99.52 96.26 100.13 94.8 98.66 94.19 100.13 93.58 99.52 92.11 100.99 92.72 101.6 91.25 102.21 92.72"></polygon>
    <polygon class="cls-2" points="77.31 117.43 78.79 116.82 78.17 118.29 79.65 118.9 78.17 119.51 78.79 120.97 77.31 120.37 76.71 121.84 76.1 120.37 74.63 120.97 75.24 119.51 73.77 118.9 75.24 118.29 74.63 116.82 76.09 117.43 76.71 115.96 77.31 117.43"></polygon>
    <path class="cls-2" d="M74.4,127.44a.75.75,0,0,1-1.5,0,.75.75,0,0,1,1.5,0"></path>
    <path class="cls-2" d="M79.94,138.45l.58-.23a1.7,1.7,0,0,1,.71-.14,1.82,1.82,0,0,1,1.31.54,1.79,1.79,0,0,1,.54,1.31,1.86,1.86,0,0,1-.31,1,1.81,1.81,0,0,1-.84.68l-.57.24a1.86,1.86,0,0,1-.7.14,1.86,1.86,0,0,1-1.56-2.87,2,2,0,0,1,.84-.7m.71,3.32a1.56,1.56,0,0,0,1.14-.46,1.62,1.62,0,0,0,0-2.28,1.61,1.61,0,0,0-2.27,0,1.5,1.5,0,0,0-.47,1.12,1.57,1.57,0,0,0,.46,1.15,1.52,1.52,0,0,0,1.14.47"></path>
    <path class="cls-2" d="M74.15,128.57a1.6,1.6,0,1,0,1.6,1.6,1.6,1.6,0,0,0-1.6-1.6m0,2.59a1,1,0,1,1,1-1,1,1,0,0,1-1,1"></path>
    <path class="cls-2" d="M78.53,136.14a.93.93,0,0,0,0-.24l.37-.22-.2-.34-.37.23a.77.77,0,0,0-.39-.23v-.43h-.39v.43a.86.86,0,0,0-.39.23l-.38-.23-.19.34.37.22a.93.93,0,0,0,0,.24.85.85,0,0,0,0,.23l-.37.22.21.34.36-.22a.9.9,0,0,0,.39.22v.43h.39v-.43a.83.83,0,0,0,.39-.22l.38.22.19-.34-.37-.22a.93.93,0,0,0,0-.23"></path>
    <path class="cls-2" d="M107.21,129.28a1,1,0,0,0,0-.24l.37-.21-.2-.34-.37.22a.73.73,0,0,0-.39-.22v-.44h-.39v.44a.73.73,0,0,0-.39.22l-.38-.22-.19.34.37.21a1,1,0,0,0,0,.24.85.85,0,0,0,0,.23l-.37.22.2.34.37-.22a.76.76,0,0,0,.39.22v.43h.39v-.43a.8.8,0,0,0,.39-.22l.38.22.19-.34-.37-.22a.85.85,0,0,0,0-.23"></path>
    <polygon class="cls-2" points="119.69 130.31 121.16 129.7 120.55 131.18 122.02 131.78 120.55 132.39 121.16 133.86 119.69 133.25 119.08 134.72 118.47 133.25 117 133.86 117.61 132.39 116.14 131.78 117.61 131.18 117 129.7 118.47 130.31 119.08 128.84 119.69 130.31"></polygon>
    <polygon class="cls-2" points="102.69 137.63 104.16 137.03 103.55 138.5 105.02 139.1 103.55 139.71 104.16 141.18 102.69 140.57 102.08 142.04 101.47 140.57 100 141.18 100.61 139.71 99.14 139.1 100.61 138.5 100 137.03 101.47 137.63 102.08 136.16 102.69 137.63"></polygon>
    <path class="cls-2" d="M107.73,124a1.14,1.14,0,0,1,.85-.43,1.07,1.07,0,0,1,1.07,1,1,1,0,0,1-1,1c-1,0-.91-.87-1.76-.92a1.23,1.23,0,0,0,.5.88,1.11,1.11,0,0,1,.44.9,1.06,1.06,0,0,1-2.12,0c0-.87.92-.92.91-1.75-.84.06-.85.94-1.74.94a1.08,1.08,0,0,1-1.06-1.07,1.09,1.09,0,0,1,1-1c.94,0,.92.92,1.76.92-.06-.8-.93-.89-.93-1.75a1.06,1.06,0,0,1,2.11,0c0,1-.87.9-.91,1.77a1.21,1.21,0,0,0,.85-.49"></path>
    <path class="cls-2" d="M87.33,141a1.14,1.14,0,0,1,.85-.43,1.08,1.08,0,0,1,1.07,1.06,1,1,0,0,1-1,1.05c-1,0-.91-.87-1.75-.92a1.23,1.23,0,0,0,.49.87,1.11,1.11,0,0,1,.44.9,1.05,1.05,0,0,1-1.08,1,1.07,1.07,0,0,1-1-1.06c0-.87.92-.91.91-1.74-.84.06-.86.94-1.74.94a1.07,1.07,0,0,1-1.06-1.07,1.09,1.09,0,0,1,1-1.06c.94,0,.92.92,1.76.92-.07-.8-.93-.89-.93-1.75a1.06,1.06,0,0,1,2.11,0c0,.95-.87.9-.91,1.76a1.16,1.16,0,0,0,.85-.49"></path>
    <path class="cls-2" d="M106,88.93a1.14,1.14,0,0,1,.85-.43,1.07,1.07,0,0,1,1.07,1,1,1,0,0,1-1,1c-1,0-.91-.87-1.76-.92a1.23,1.23,0,0,0,.5.88,1.11,1.11,0,0,1,.44.9,1.06,1.06,0,0,1-2.12,0c0-.87.92-.92.91-1.75-.84.06-.85.94-1.74.94a1.07,1.07,0,0,1-1.06-1.07,1.09,1.09,0,0,1,1-1c.94,0,.92.91,1.76.91-.06-.79-.93-.88-.93-1.74a1.06,1.06,0,0,1,2.11,0c0,.95-.87.9-.91,1.76a1.18,1.18,0,0,0,.85-.48"></path>
    <path class="cls-2" d="M102.15,132.44A1.14,1.14,0,0,1,103,132a1.07,1.07,0,0,1,1.07,1.06,1,1,0,0,1-1,1.05c-1,0-.91-.87-1.76-.92a1.21,1.21,0,0,0,.5.87,1.14,1.14,0,0,1,.44.9,1.06,1.06,0,0,1-2.12,0c0-.87.92-.91.91-1.74-.84.06-.85.93-1.74.93a1.06,1.06,0,0,1-1.06-1.06,1.1,1.1,0,0,1,1-1.06c.94,0,.92.92,1.76.92-.06-.79-.93-.88-.93-1.75a1.06,1.06,0,0,1,2.11,0c0,1-.87.9-.91,1.76a1.16,1.16,0,0,0,.85-.49"></path>
    <path class="cls-2" d="M91.62,94.19a1.35,1.35,0,0,0-.06-.41l.66-.39-.36-.6-.64.4a1.45,1.45,0,0,0-.69-.4V92h-.68v.76a1.53,1.53,0,0,0-.7.4l-.66-.4-.33.6.65.39a1.35,1.35,0,0,0-.06.41,1.4,1.4,0,0,0,.06.41l-.65.38.36.6.64-.39a1.45,1.45,0,0,0,.69.39v.76h.68v-.76a1.48,1.48,0,0,0,.69-.39l.66.39.34-.6-.66-.38a1.4,1.4,0,0,0,.06-.41"></path>
    <path class="cls-2" d="M109.28,99.49a1.31,1.31,0,0,0-.06-.41l.65-.39-.35-.6-.65.4a1.47,1.47,0,0,0-.68-.4v-.76h-.69v.76a1.53,1.53,0,0,0-.7.4l-.66-.4-.33.6.65.39a1.76,1.76,0,0,0-.06.41,1.84,1.84,0,0,0,.06.41l-.64.38.35.6.65-.39a1.45,1.45,0,0,0,.68.39v.76h.69v-.76a1.54,1.54,0,0,0,.68-.39l.67.39.33-.6-.65-.38a1.4,1.4,0,0,0,.06-.41"></path>
    <path class="cls-2" d="M106.75,95.53a.85.85,0,0,0,0-.23l.37-.22-.2-.34-.37.22a.69.69,0,0,0-.39-.22v-.43h-.39v.43a.73.73,0,0,0-.39.22l-.38-.22-.19.34.37.22a.85.85,0,0,0,0,.23,1,1,0,0,0,0,.24l-.37.22.2.34.38-.22a.91.91,0,0,0,.38.22v.43h.39v-.43a.77.77,0,0,0,.39-.23l.38.23.19-.34-.37-.22a1,1,0,0,0,0-.24"></path>
    <path class="cls-2" d="M88.34,103.49a.85.85,0,0,0,0-.23l.37-.22-.21-.34-.36.22a.94.94,0,0,0-.39-.22v-.43h-.39v.43a.84.84,0,0,0-.4.23l-.38-.23-.19.34.38.22a.71.71,0,0,0,0,.47l-.37.22.2.34.37-.22a.88.88,0,0,0,.39.22v.43h.39v-.43a.86.86,0,0,0,.39-.23l.38.23.19-.34-.37-.22a.93.93,0,0,0,0-.24"></path>
    <path class="cls-2" d="M121,107a1.4,1.4,0,0,0-.06-.41l.66-.38-.36-.6-.64.4a1.5,1.5,0,0,0-.69-.4v-.76h-.68v.76a1.53,1.53,0,0,0-.7.4l-.67-.4-.33.6.66.38a1.4,1.4,0,0,0-.06.41,1.42,1.42,0,0,0,.06.42l-.65.38.36.6.64-.39a1.4,1.4,0,0,0,.69.39v.76h.68v-.76a1.48,1.48,0,0,0,.69-.39l.66.39.34-.6-.66-.39A1.35,1.35,0,0,0,121,107"></path>
    <path class="cls-2" d="M66.25,55.41a3.42,3.42,0,1,0,3.42,3.42,3.42,3.42,0,0,0-3.42-3.42m.3,6.48a2.51,2.51,0,1,1,2.51-2.51,2.51,2.51,0,0,1-2.51,2.51"></path>
  </g>
  <g class="cls-5">
    <path class="cls-6" d="M68.42,53.12l1.19,1.18-1.17,1.16L67.19,54.3Zm2.74-.36L70,53.92l-1.18-1.17L70,51.49Zm-2.34,3.1L70,54.68l1.18,1.18L70,57.15Zm2.72-.4L70.37,54.3l1.18-1.18,1.25,1.23Z"></path>
    <polygon class="cls-6" points="62.14 51.78 63.8 51.78 63.8 53.43 62.14 53.43 62.14 55.1 60.48 55.1 60.48 53.43 58.84 53.43 58.84 51.78 60.48 51.78 60.48 50.13 62.14 50.13 62.14 51.78"></polygon>
    <polygon class="cls-6" points="69.96 46.33 70.86 46.33 70.86 47.23 69.96 47.23 69.96 48.14 69.05 48.14 69.05 47.23 68.16 47.23 68.16 46.33 69.05 46.33 69.05 45.43 69.96 45.43 69.96 46.33"></polygon>
    <polygon class="cls-6" points="63.29 56.35 64.2 56.35 64.2 57.25 63.29 57.25 63.29 58.16 62.39 58.16 62.39 57.25 61.49 57.25 61.49 56.35 62.39 56.35 62.39 55.45 63.29 55.45 63.29 56.35"></polygon>
    <polygon class="cls-6" points="73.48 43.59 75.14 43.59 75.14 45.24 73.48 45.24 73.48 46.91 71.81 46.91 71.81 45.24 70.18 45.24 70.18 43.59 71.81 43.59 71.81 41.94 73.48 41.94 73.48 43.59"></polygon>
    <path class="cls-6" d="M58.64,51.08a.75.75,0,1,1-.75-.75.75.75,0,0,1,.75.75"></path>
    <path class="cls-6" d="M70.46,50a.75.75,0,1,1-.75-.75.75.75,0,0,1,.75.75"></path>
    <path class="cls-6" d="M68.27,57.41a.75.75,0,1,1-.75-.75.75.75,0,0,1,.75.75"></path>
    <path class="cls-6" d="M67,47.86a.75.75,0,1,1-.75-.75.75.75,0,0,1,.75.75"></path>
    <path class="cls-6" d="M68.76,51a.39.39,0,0,1-.13.33.53.53,0,0,1-.34.11,3.81,3.81,0,0,1-.65-.14q-.52-.12-1.17-.21a5.66,5.66,0,0,0,.52.65l.4.43a3.07,3.07,0,0,1,.27.32.52.52,0,0,1,.09.29.36.36,0,0,1-.15.29.47.47,0,0,1-.32.13.42.42,0,0,1-.21-.06.79.79,0,0,1-.17-.19,2.59,2.59,0,0,1-.19-.58,9.82,9.82,0,0,0-.43-1.17,12,12,0,0,0-.42,1.18,2.62,2.62,0,0,1-.2.57.81.81,0,0,1-.17.19.33.33,0,0,1-.21.06A.47.47,0,0,1,65,53a.37.37,0,0,1-.15-.3.49.49,0,0,1,.09-.28,3.65,3.65,0,0,1,.27-.33l.41-.44a7.16,7.16,0,0,0,.51-.64,9.09,9.09,0,0,0-1.13.21,3.79,3.79,0,0,1-.69.14.6.6,0,0,1-.34-.1A.44.44,0,0,1,63.8,51a.44.44,0,0,1,.13-.33.49.49,0,0,1,.34-.12,3.58,3.58,0,0,1,.66.13,6.14,6.14,0,0,0,1.16.2,7.64,7.64,0,0,0-.51-.62l-.41-.45c-.12-.13-.21-.24-.27-.32a.52.52,0,0,1-.09-.29.38.38,0,0,1,.15-.3.51.51,0,0,1,.32-.12.42.42,0,0,1,.21.06.64.64,0,0,1,.17.19,3.6,3.6,0,0,1,.23.67,8.41,8.41,0,0,0,.39,1.08,8.87,8.87,0,0,0,.41-1.11A3.09,3.09,0,0,1,66.9,49a.63.63,0,0,1,.17-.19.37.37,0,0,1,.21-.06.47.47,0,0,1,.32.12.37.37,0,0,1,.15.3.87.87,0,0,1-.35.59,14.19,14.19,0,0,0-.93,1.09,8.08,8.08,0,0,0,1.17-.2,3.87,3.87,0,0,1,.65-.13.49.49,0,0,1,.34.12.39.39,0,0,1,.13.33"></path>
    <path class="cls-6" d="M66.24,45.75a.79.79,0,0,1-.26.67,1,1,0,0,1-.66.21A7.24,7.24,0,0,1,64,46.36,17.05,17.05,0,0,0,61.69,46a13.2,13.2,0,0,0,1,1.28l.81.86a5.43,5.43,0,0,1,.51.63,1,1,0,0,1,.19.58.73.73,0,0,1-.3.58.92.92,0,0,1-.63.25.8.8,0,0,1-.42-.13,1.08,1.08,0,0,1-.33-.37,5.21,5.21,0,0,1-.39-1.14,16.17,16.17,0,0,0-.85-2.33c-.39,1-.67,1.76-.83,2.33a4.92,4.92,0,0,1-.41,1.14,1.39,1.39,0,0,1-.32.38.75.75,0,0,1-.43.12,1,1,0,0,1-.64-.24.72.72,0,0,1-.29-.59,1,1,0,0,1,.18-.56,5.25,5.25,0,0,1,.53-.65l.82-.88A13.92,13.92,0,0,0,61,46a14.93,14.93,0,0,0-2.26.4,6.67,6.67,0,0,1-1.36.28,1.07,1.07,0,0,1-.67-.2.81.81,0,0,1-.26-.68.8.8,0,0,1,.26-.65,1,1,0,0,1,.67-.23,6,6,0,0,1,1.3.26,13.15,13.15,0,0,0,2.32.4,15.56,15.56,0,0,0-1-1.24l-.83-.9a5.68,5.68,0,0,1-.53-.64,1,1,0,0,1-.18-.57.75.75,0,0,1,.3-.59,1,1,0,0,1,.63-.24.73.73,0,0,1,.41.12,1.11,1.11,0,0,1,.34.37,6.57,6.57,0,0,1,.46,1.33,15.23,15.23,0,0,0,.78,2.15,15.89,15.89,0,0,0,.81-2.21,6.78,6.78,0,0,1,.43-1.27,1,1,0,0,1,.33-.36.7.7,0,0,1,.42-.13,1,1,0,0,1,.64.23.76.76,0,0,1,.29.6,1.86,1.86,0,0,1-.69,1.18c-.45.46-1.07,1.18-1.86,2.17a18.74,18.74,0,0,0,2.32-.4,6.85,6.85,0,0,1,1.31-.26,1,1,0,0,1,.66.22.8.8,0,0,1,.26.66"></path>
    <polygon class="cls-6" points="74.41 48.51 75.88 47.9 75.27 49.37 76.74 49.98 75.27 50.58 75.88 52.06 74.41 51.45 73.8 52.92 73.19 51.45 71.72 52.06 72.33 50.58 70.86 49.98 72.33 49.37 71.72 47.9 73.19 48.51 73.8 47.04 74.41 48.51"></polygon>
    <polygon class="cls-6" points="66.18 54.59 66.98 54.26 66.65 55.06 67.45 55.39 66.65 55.72 66.98 56.53 66.18 56.19 65.85 57 65.52 56.19 64.71 56.53 65.04 55.72 64.24 55.39 65.04 55.06 64.71 54.26 65.51 54.59 65.85 53.78 66.18 54.59"></polygon>
    <path class="cls-6" d="M69.13,42.55a1.83,1.83,0,0,0-.07-.46l.73-.43L69.4,41l-.73.45A1.63,1.63,0,0,0,67.9,41v-.85h-.77V41a1.58,1.58,0,0,0-.78.45L65.61,41l-.37.67.73.43a1.83,1.83,0,0,0-.07.46A1.78,1.78,0,0,0,66,43l-.73.43.4.67.73-.43a1.64,1.64,0,0,0,.76.43V45h.77v-.85a1.69,1.69,0,0,0,.77-.44l.74.44.38-.67L69.06,43a1.84,1.84,0,0,0,.07-.47"></path>
  </g>
</svg>
