<?xml version="1.0" standalone="no"?>
<!DOCTYPE svg PUBLIC "-//W3C//DTD SVG 20010904//EN"
 "http://www.w3.org/TR/2001/REC-SVG-20010904/DTD/svg10.dtd">
<svg version="1.0" xmlns="http://www.w3.org/2000/svg"
 width="203.000000pt" height="203.000000pt" viewBox="0 0 203.000000 203.000000"
 preserveAspectRatio="xMidYMid meet">
<metadata>
Created by potrace 1.11, written by Peter Selinger 2001-2013
</metadata>
<g transform="translate(0.000000,203.000000) scale(0.100000,-0.100000)"
fill="#000000" stroke="none">
<path d="M896 1681 c-313 -313 -347 -351 -341 -372 41 -129 -97 -249 -217
-188 -68 34 -98 98 -83 176 14 75 113 135 189 115 l34 -10 251 252 c138 139
251 260 251 269 0 28 -36 58 -60 49 -12 -4 -98 -84 -193 -178 l-172 -169 -171
-97 c-180 -103 -213 -128 -248 -193 -20 -39 -21 -53 -24 -422 -3 -370 -2 -384
18 -431 12 -27 36 -63 53 -80 27 -26 504 -309 632 -375 60 -30 158 -29 222 4
93 49 168 92 184 105 8 8 18 14 21 14 6 0 98 52 300 172 155 91 188 137 191
266 l2 77 71 72 c60 60 71 75 67 97 -6 29 -13 35 -44 41 -17 3 -51 -25 -154
-128 l-133 -132 11 -51 c9 -45 8 -56 -11 -95 -29 -58 -64 -82 -129 -87 -45 -4
-59 0 -93 22 -137 91 -63 302 100 283 l47 -6 186 187 c103 103 187 195 187
205 0 25 -35 56 -58 51 -10 -3 -79 -66 -153 -140 -106 -107 -139 -134 -161
-134 -27 0 -48 23 -48 53 0 8 95 110 210 226 116 115 210 216 210 223 0 25
-31 58 -53 58 -15 0 -83 -61 -222 -201 l-199 -201 -1 -73 c0 -70 -2 -76 -35
-110 -102 -105 -272 -38 -269 107 1 99 100 174 192 147 32 -9 34 -7 335 293
167 167 308 311 313 321 15 27 -15 69 -46 65 -16 -2 -115 -93 -289 -265 -162
-161 -272 -263 -284 -263 -23 0 -52 30 -52 53 0 10 71 88 158 175 87 86 166
168 174 182 29 45 -14 96 -59 71 -10 -5 -188 -180 -395 -388 l-378 -378 11
-36 c31 -99 -47 -199 -154 -199 -146 0 -205 196 -85 282 26 18 47 23 96 24
l64 1 329 329 c231 231 329 335 329 351 0 26 -25 53 -49 53 -11 0 -116 -98
-243 -225 -229 -229 -252 -247 -286 -213 -34 34 -17 55 283 356 162 163 295
301 295 307 0 22 -32 55 -53 55 -16 0 -124 -102 -371 -349z"/>
<path d="M366 1309 c-34 -27 -35 -71 -1 -104 27 -28 42 -30 79 -14 49 23 53
104 7 128 -30 16 -55 13 -85 -10z"/>
<path d="M1193 1002 c-50 -8 -70 -85 -33 -122 61 -61 163 26 110 93 -21 27
-42 35 -77 29z"/>
<path d="M552 920 c-31 -29 -30 -82 3 -108 61 -48 146 19 110 87 -23 46 -76
55 -113 21z"/>
<path d="M1344 595 c-31 -31 -31 -69 1 -100 31 -32 69 -32 102 1 20 20 24 31
19 57 -8 41 -25 57 -65 62 -25 3 -39 -2 -57 -20z"/>
</g>
</svg>
