<?xml version="1.0" encoding="UTF-8"?>
<svg xmlns="http://www.w3.org/2000/svg" xmlns:xlink="http://www.w3.org/1999/xlink" width="1200px" height="615px" viewBox="0 0 234 120">
  <title>Group 42</title>
  <defs>
    <polygon id="path-1" points="0 0 135.739527 0 135.739527 71.1907403 0 71.1907403"></polygon>
  </defs>
  <g id="DESKTOP" stroke="none" stroke-width="1" fill="none" fill-rule="evenodd">
    <g id="Home" transform="translate(-262.000000, -838.000000)">
      <g id="Group-42" transform="translate(262.000000, 838.000000)">
        <rect id="Rectangle" fill="#FFFFFF" x="0" y="0" width="234" height="120"></rect>
        <g id="Group-9" transform="translate(0.000000, 24.000000)">
          <mask id="mask-2" fill="white">
            <use xlink:href="#path-1"></use>
          </mask>
          <g id="Clip-2"></g>
          <path d="M131.922191,61.3842032 L132.635121,61.3842032 L132.635121,71.0614051 L131.976368,71.0614051 L124.786902,62.5754286 L124.786902,71.0614051 L124.079988,71.0614051 L124.079988,61.3842032 L124.717684,61.3842032 L131.922191,69.8972531 L131.922191,61.3842032 Z M108.097684,66.2393189 C108.097684,67.0334992 108.281181,67.7524458 108.651183,68.3991969 C109.021185,69.0459481 109.523545,69.5543245 110.161271,69.9242963 C110.798998,70.2943282 111.499896,70.477825 112.266973,70.477825 C113.175433,70.477825 113.954542,70.2732712 114.601293,69.8611553 C115.248044,69.4490395 115.738372,68.9165678 116.069268,68.2638003 C116.403172,67.611063 116.56862,66.9311922 116.56862,66.2242781 C116.56862,65.4572012 116.394148,64.7502872 116.048211,64.100558 C115.702274,63.4507686 115.208938,62.9333677 114.57422,62.5453471 C113.936493,62.1572663 113.199498,61.9647752 112.363233,61.9647752 C111.502904,61.9647752 110.753876,62.1572663 110.110133,62.5453471 C109.46639,62.9333677 108.970046,63.4538068 108.621101,64.1065442 C108.272157,64.7623498 108.097684,65.4722419 108.097684,66.2393189 L108.097684,66.2393189 Z M117.329681,66.1611372 C117.329681,67.0996784 117.116102,67.9479451 116.691954,68.7090358 C116.267805,69.4700965 115.672193,70.0747035 114.905116,70.5169309 C114.138039,70.9591282 113.262669,71.1817309 112.279005,71.1817309 C111.313391,71.1817309 110.45607,70.9591282 109.707042,70.5169309 C108.958014,70.0747035 108.371425,69.4791209 107.953293,68.7300929 C107.535161,67.9810648 107.327599,67.1688657 107.327599,66.2904874 C107.327599,65.3429218 107.538169,64.4886087 107.962318,63.7215317 C108.383458,62.9544548 108.973054,62.3528258 109.728099,61.9136367 C110.483143,61.4744476 111.337456,61.2548229 112.294046,61.2548229 C113.304783,61.2548229 114.192186,61.4774557 114.953246,61.9256693 C115.714307,62.3738528 116.300895,62.9725037 116.713011,63.7185236 C117.125127,64.4735679 117.329681,65.285767 117.329681,66.1611372 L117.329681,66.1611372 Z M99.8433347,71.0583669 L100.577322,71.0583669 L100.577322,61.381165 L99.8433347,61.381165 L99.8433347,71.0583669 Z M90.0367826,62.0550195 L90.0367826,71.058397 L89.3027953,71.058397 L89.3027953,62.0550195 L85.7983066,62.0550195 L85.7983066,61.3842032 L93.5683446,61.3842032 L93.5683446,62.0550195 L90.0368127,62.0550195 L90.0367826,62.0550195 Z M76.855092,62.4640971 L74.8245943,67.1868845 L78.9246957,67.1868845 L76.855092,62.4640971 Z M80.6453545,71.058397 L79.2255101,67.8517146 L74.5297961,67.8517146 L73.158082,71.058397 L72.3759644,71.058397 L76.6024079,61.3120077 L77.1288332,61.3120077 L81.4304803,71.058397 L80.6453244,71.058397 L80.6453545,71.058397 Z M65.0270666,63.8960041 C65.0270666,63.2221797 64.8225127,62.7468928 64.4103969,62.4701435 C63.9982811,62.1933942 63.414701,62.0550195 62.6566485,62.0550195 L61.1405435,62.0550195 L61.1405435,65.8091842 L62.2625815,65.8091842 C63.1620168,65.8091842 63.8478738,65.6708096 64.3201526,65.3910521 C64.7924012,65.1112946 65.0270666,64.6119426 65.0270666,63.8960041 Z M65.7941435,63.8960041 C65.7941435,64.5277145 65.616663,65.0481236 65.2617019,65.4542232 C64.9067408,65.8603227 64.4073888,66.1310557 63.7666539,66.2634141 C64.100558,66.4017888 64.3682829,66.5762612 64.5758449,66.7868313 C64.7834069,66.9974014 65.0481236,67.3463462 65.3730032,67.8366739 L67.4305743,71.058397 L66.531139,71.058397 L64.6751136,68.0923662 C64.2780385,67.4696802 63.9110449,67.0455017 63.5771408,66.8259071 C63.2432367,66.6033345 62.8220964,66.4920331 62.3197363,66.4920331 L61.1435516,66.4920331 L61.1435516,71.0553587 L60.4095643,71.0553587 L60.4095643,61.3781869 L62.8491697,61.3781869 C63.7967354,61.3781869 64.5247064,61.6037978 65.0330829,62.0550195 C65.5414594,62.5092193 65.7941435,63.1229109 65.7941435,63.8959741 L65.7941435,63.8960041 Z M44.4212746,66.2393189 C44.4212746,67.0334992 44.6047714,67.7524458 44.9747732,68.3991969 C45.344775,69.0459481 45.8471352,69.5543245 46.4848619,69.9242963 C47.1225886,70.2943282 47.8234864,70.477825 48.5905633,70.477825 C49.499023,70.477825 50.2781325,70.2732712 50.9248837,69.8611553 C51.5716348,69.4490395 52.0619624,68.9165678 52.3928583,68.2638003 C52.7267624,67.611063 52.8922104,66.9311922 52.8922104,66.2242781 C52.8922104,65.4572012 52.717738,64.7502872 52.3718013,64.100558 C52.0258647,63.4507686 51.5325289,62.9333677 50.8978104,62.5453471 C50.2600837,62.1572663 49.5230882,61.9647752 48.6868239,61.9647752 C47.8264945,61.9647752 47.0774664,62.1572663 46.4337235,62.5453471 C45.7899805,62.9333677 45.2936366,63.4538068 44.9446918,64.1065442 C44.595747,64.7623498 44.4212746,65.4722419 44.4212746,66.2393189 Z M53.653271,66.1611372 C53.653271,67.0996784 53.4396927,67.9479451 53.0155443,68.7090358 C52.5913959,69.4700965 51.9957832,70.0747035 51.2287063,70.5169309 C50.4616294,70.9591282 49.5862592,71.1817309 48.6025959,71.1817309 C47.6369814,71.1817309 46.7796601,70.9591282 46.030632,70.5169309 C45.2785958,70.0747035 44.6950157,69.4791209 44.2768836,68.7300929 C43.8587515,67.9810648 43.6511895,67.1688657 43.6511895,66.2904874 C43.6511895,65.3429218 43.8617596,64.4886087 44.2859081,63.7215317 C44.7070483,62.9544548 45.2966447,62.3528258 46.0516891,61.9136367 C46.8067334,61.4744476 47.6610465,61.2548229 48.6176366,61.2548229 C49.6283733,61.2548229 50.515776,61.4774557 51.2768366,61.9256693 C52.0378973,62.3738528 52.6244855,62.9725037 53.0366013,63.7185236 C53.4487172,64.4735679 53.653271,65.285767 53.653271,66.1611372 Z M37.4273379,61.9918485 L37.4273379,62.8311209 C36.4075768,62.2445326 35.3366772,61.9527125 34.2206555,61.9527125 C33.3994319,61.9527125 32.6654446,62.1422557 32.0217016,62.521282 C31.3779586,62.9002781 30.8816147,63.4177091 30.5326699,64.0764928 C30.1837251,64.7352465 30.0092527,65.4572012 30.0092527,66.2423571 C30.0092527,67.0455017 30.1867333,67.7674564 30.5416944,68.4112295 C30.8966555,69.0519343 31.3929993,69.5603408 32.0307261,69.9363589 C32.6684528,70.3093388 33.3964238,70.498882 34.2206555,70.498882 C35.3757831,70.498882 36.4587152,70.1920512 37.4694519,69.5783596 L37.4694519,70.4296646 C36.4677397,70.9380712 35.3848075,71.1907553 34.2206555,71.1907553 C33.2099188,71.1907553 32.3255242,70.9681526 31.5674717,70.5199089 C30.8094193,70.0717255 30.2318554,69.4730746 29.828764,68.7180603 C29.4256726,67.9660241 29.2271351,67.153825 29.2271351,66.2874793 C29.2271351,65.3308591 29.4437215,64.4735379 29.8738862,63.7094992 C30.3070591,62.9484385 30.8996636,62.3498177 31.6547079,61.9166148 C32.4097523,61.483472 33.2700817,61.2668856 34.2356962,61.2668856 C35.3065958,61.2578611 36.3684709,61.5014908 37.4273379,61.9918184 L37.4273379,61.9918485 Z M20.4042463,60.7314358 L19.8928617,60.7314358 L21.3397794,58.5505308 L22.2331984,58.5505308 L20.4042463,60.7314358 Z M18.5752943,62.0550195 L18.5752943,65.8362575 L22.807754,65.8362575 L22.807754,66.5221146 L18.5752943,66.5221146 L18.5752943,70.3935969 L23.0574301,70.3935969 L23.0574301,71.058397 L17.8413069,71.058397 L17.8413069,61.381165 L22.931088,61.381165 L22.931088,62.0520114 L18.5752943,62.0520114 L18.5752943,62.0550195 Z M10.3059042,66.2513815 C10.3059042,65.3970684 10.1254155,64.6570648 9.76142994,64.0283625 C9.39744442,63.3996602 8.87703537,62.9153489 8.19719464,62.5784367 C7.51735391,62.2385163 6.72019553,62.0700602 5.81173579,62.0700602 L3.17359279,62.0700602 L3.17359279,70.3815945 L5.92905344,70.3815945 C6.79840729,70.3815945 7.56247608,70.207092 8.22426794,69.8611553 C8.8860598,69.5152187 9.40045256,69.0309073 9.76142994,68.4052132 C10.1254155,67.7825272 10.3059042,67.0635806 10.3059042,66.2513815 L10.3059042,66.2513815 Z M11.0759892,66.1220313 C11.0759892,67.1147191 10.8594028,67.9840429 10.4262299,68.733101 C9.99305709,69.4821291 9.38541184,70.0566847 8.60329419,70.456768 C7.82418468,70.8598594 6.91873309,71.058397 5.89596385,71.058397 L2.4365973,71.058397 L2.4365973,61.3811951 L5.87791498,61.3811951 C6.90369236,61.3811951 7.80914395,61.5827408 8.59426975,61.982824 C9.37939555,62.3859154 9.99004895,62.9424222 10.4232218,63.6583607 C10.8563947,64.3773073 11.0759892,65.1985308 11.0759892,66.1220313 L11.0759892,66.1220313 Z M131.043813,0.959598198 L132.517804,0.959598198 L134.698709,9.74338107 L132.797561,10.3149286 C131.60032,7.85125798 130.008981,5.90799643 128.023605,4.49116022 C126.390213,3.30595116 124.582318,2.71334663 122.596942,2.71334663 C121.39967,2.71334663 120.325793,2.92692491 119.372211,3.35708962 C118.418629,3.78424618 117.705669,4.34075298 117.230412,5.02059371 C116.755125,5.70043444 116.517451,6.39531589 116.517451,7.10222992 C116.517451,7.73995662 116.700978,8.35963446 117.07098,8.95825528 C117.437974,9.5568761 117.997489,10.0833014 118.746517,10.5375313 C119.495515,10.9917612 120.722838,11.4730643 122.425478,11.9754245 L127.755911,13.5516623 C128.408648,13.7412055 129.359222,14.1112074 130.604594,14.6556816 C131.849996,15.2001558 132.821626,15.7777196 133.5135,16.3823567 C134.208381,16.9900019 134.752855,17.7330137 135.146892,18.611392 C135.540989,19.4897703 135.739527,20.440314 135.739527,21.4630832 C135.739527,23.7252382 134.749847,25.7045674 132.76748,27.4011912 C130.785112,29.0977849 128.222173,29.9460516 125.075653,29.9460516 C123.454263,29.9460516 122.004338,29.7114464 120.722868,29.2421758 C119.441398,28.7728751 118.06066,27.9396491 116.574636,26.7393692 L115.636095,29.4557541 L114.204218,29.4557541 L112.306079,19.2190072 L114.207226,18.8309565 C114.902108,20.7230796 115.825608,22.3324371 116.974719,23.6530427 C118.126839,24.9736183 119.399284,25.9722923 120.795063,26.6461468 C122.190843,27.3199713 123.610657,27.6568534 125.054566,27.6568534 C127.015907,27.6568534 128.733558,27.064279 130.20454,25.8790699 C131.428855,24.8863821 132.042517,23.7132056 132.042517,22.3655267 C132.042517,21.1262011 131.60032,20.1124563 130.715925,19.3213142 C129.81649,18.530142 128.21014,17.7961848 125.893869,17.1133058 L120.786039,15.6423531 C117.925293,14.8121051 115.909836,13.75023 114.739668,12.4567277 C113.5695,11.1632254 112.982911,9.67720189 112.982911,8.00166522 C112.982911,6.69312223 113.364946,5.48685615 114.126006,4.37685071 C114.890075,3.26684528 116.060243,2.33732853 117.63952,1.58830047 C119.218796,0.839272405 120.948479,0.463254302 122.828569,0.463254302 C124.407845,0.463254302 125.920942,0.736995481 127.364852,1.28146969 C128.387621,1.66350409 129.326162,2.2079783 130.183483,2.91489233 L131.043843,0.959598198 L131.043813,0.959598198 Z M86.4420496,0 L87.8709184,0 L88.0754722,0.959598198 L105.564856,0.959598198 L105.727266,0 L107.219336,0 L110.221464,8.37768333 L108.383458,9.03045075 C107.499093,6.79539915 106.449221,5.2281557 105.236938,4.32270411 C104.024656,3.41725252 102.472453,2.96302265 100.58033,2.96302265 C99.7891881,2.96302265 99.3199175,2.9931041 99.1695103,3.05627514 C99.0191031,3.11643803 98.913818,3.22473125 98.8536551,3.37213034 C98.7934922,3.52253759 98.7604026,3.99782447 98.7604026,4.80099913 L98.7604026,24.5765432 C98.7604026,25.5150844 98.8115411,26.1498029 98.913818,26.4776907 C99.0160949,26.8055785 99.163494,27.0552545 99.3530372,27.2327351 C99.5425503,27.4102156 99.807237,27.5365577 100.138133,27.6117613 C100.472037,27.6869649 101.218087,27.7320871 102.376223,27.7441197 L102.376223,29.4617704 L91.3874397,29.4617704 L91.3874397,27.7441197 C92.599722,27.7320871 93.3427338,27.6899731 93.6134668,27.6207857 C94.0887537,27.4824111 94.4316822,27.2237106 94.6362361,26.8386681 C94.8407899,26.4566337 94.9430668,25.7497197 94.9430668,24.7209341 L94.9430668,4.53327424 C94.9430668,3.90758012 94.9129854,3.52554573 94.8498143,3.39017921 C94.7896514,3.2548127 94.6723338,3.14952763 94.5038777,3.07432401 C94.3324134,2.99912039 93.9834686,2.96302265 93.451027,2.96302265 C91.9650035,2.96302265 90.7767863,3.15253577 89.8863754,3.53457016 C88.9929564,3.91660456 88.153684,4.56335569 87.3625419,5.47482357 C86.5713998,6.38629145 85.8975754,7.57150051 85.3410686,9.03045075 L83.5030921,8.37768333 L86.4420496,0 Z M67.5027698,2.67724889 C65.3730032,2.67724889 63.5440512,3.16456835 62.0159136,4.13920727 C60.4877761,5.1138462 59.2634611,6.54572313 58.3399607,8.44085437 C57.4194683,10.3329775 56.9592222,12.670306 56.9592222,15.4468237 C56.9592222,18.1030155 57.413452,20.3531079 58.3189036,22.2001088 C59.2273634,24.0471097 60.445662,25.4579296 61.9737996,26.4385848 C63.5019372,27.41924 65.222596,27.9095676 67.132768,27.9095676 C69.0278992,27.9095676 70.7094522,27.4282645 72.1684024,26.4686663 C73.6273526,25.5090681 74.8366268,23.9959712 75.7932169,21.9323839 C76.7467988,19.8687965 77.2250938,17.5765902 77.2250938,15.058773 C77.2250938,12.4988417 76.7468289,10.1554969 75.7932169,8.03174667 C74.9750015,6.20580277 73.8890612,4.85815389 72.5384042,3.98579189 C71.1877472,3.11342989 69.5092024,2.67724889 67.5027698,2.67724889 L67.5027698,2.67724889 Z M67.5117942,0.469270592 C70.1138395,0.469270592 72.4662087,1.09496471 74.5658938,2.3493611 C76.8430594,3.69700998 78.5907916,5.44775027 79.8090902,7.59857382 C81.030397,9.74939736 81.6380423,12.2431494 81.6380423,15.0768218 C81.6380423,19.462697 80.2753527,23.036373 77.5499735,25.8038663 C74.8245943,28.5683514 71.3472089,29.952098 67.1237435,29.952098 C62.4069724,29.952098 58.6738647,28.291602 55.9214122,24.967602 C53.6713199,22.2572635 52.5492819,19.0144834 52.5492819,15.2422698 C52.5492819,12.4356707 53.1840004,9.92086162 54.4504294,7.69182631 C55.7168584,5.46579914 57.515729,3.70603442 59.8470412,2.409524 C62.1783534,1.11602173 64.7322684,0.469270592 67.5117942,0.469270592 Z M27.1515152,0.959598198 L38.2034392,0.959598198 L38.2034392,2.67424075 L37.18067,2.67424075 C36.3895279,2.67424075 35.8330211,2.74944437 35.5051333,2.89985161 C35.1772455,3.05025885 34.9396021,3.26985342 34.7891949,3.55863532 C34.6387876,3.84741723 34.563584,4.36180999 34.563584,5.10482176 L34.563584,24.9826427 C34.563584,25.8941106 34.5966736,26.441593 34.6658609,26.6160654 C34.7470808,26.8627332 34.9245614,27.0372056 35.1983025,27.148507 C35.3878157,27.2297269 35.9413143,27.2718409 36.8527822,27.2718409 L38.3839279,27.2718409 C40.1406845,27.2718409 41.6658139,27.0161486 42.9593162,26.504764 C44.2528185,25.9933794 45.3688402,25.2503676 46.3103895,24.2787368 C47.2489307,23.3040979 48.1543823,21.851164 49.0267443,19.9169269 L50.8466719,20.5305884 L47.6610465,29.4587622 L27.1515152,29.4587622 L27.1515152,27.7411115 L28.0509505,27.7411115 C28.9233125,27.7411115 29.5068925,27.6659079 29.807707,27.5155007 C30.1085215,27.3650934 30.3401487,27.1184256 30.5025885,26.7694808 C30.6650283,26.4235441 30.7492564,25.8279314 30.7492564,24.9826427 L30.7492564,5.59815751 C30.7492564,4.61148601 30.6740527,3.94969415 30.5236455,3.61278193 C30.3732383,3.27586971 30.1566518,3.03521812 29.8708781,2.89383532 C29.5851043,2.74944437 28.9774591,2.67724889 28.0509505,2.67724889 L27.1515152,2.67724889 L27.1515152,0.959598198 Z M18.7347259,0.959598198 L20.2087169,0.959598198 L22.3896219,9.74338107 L20.4884744,10.3149286 C19.2912327,7.85125798 17.6999241,5.90799643 15.7145485,4.49116022 C14.0841341,3.3089593 12.276239,2.71635477 10.2878553,2.71635477 C9.09061365,2.71635477 8.01670595,2.92993306 7.06312404,3.36009776 C6.10954213,3.78725433 5.39661181,4.34376112 4.92132493,5.02360185 C4.44603804,5.70344258 4.2083946,6.39832403 4.2083946,7.10523807 C4.2083946,7.74296477 4.39189144,8.36261252 4.76189325,8.96126342 C5.12888692,9.55988424 5.68840186,10.0863096 6.43742992,10.5405395 C7.18645798,10.9947693 8.41378106,11.4760725 10.116391,11.9784327 L15.4468237,13.5547006 C16.0995911,13.7442137 17.0501648,14.1142155 18.2955368,14.6586897 C19.5409088,15.2031639 20.5125395,15.7807277 21.2044128,16.3853648 C21.8992943,16.9930101 22.4437685,17.7360219 22.8378355,18.6144002 C23.2319025,19.4927784 23.43044,20.4433522 23.43044,21.4661214 C23.43044,23.7282463 22.4407604,25.7076056 20.4583929,27.4041993 C18.4760255,29.100793 15.9130861,29.9490898 12.7665666,29.9490898 C11.1451766,29.9490898 9.69525076,29.7144545 8.41378106,29.2451839 C7.13231137,28.7759134 5.7515729,27.9426572 4.26554936,26.7423774 L3.32700817,29.4587622 L1.89813938,29.4587622 L0,19.2250535 L1.90114753,18.8370029 C2.59602898,20.729126 3.51952944,22.3384834 4.66864076,23.6590289 C5.82076023,24.9796346 7.09320549,25.9783387 8.48898468,26.652133 C9.88476388,27.3259876 11.3046082,27.6628998 12.7485178,27.6628998 C14.7098282,27.6628998 16.4274789,27.0702952 17.8984617,25.8850561 C19.1227766,24.8923683 19.7364382,23.7191918 19.7364382,22.371573 C19.7364382,21.1321873 19.2942409,20.1184726 18.4098463,19.3273004 C17.510411,18.5361884 15.9040617,17.802201 13.5877902,17.1193522 L8.47996025,15.6483694 C5.61921453,14.8181214 3.6037575,13.7562463 2.43358916,12.462744 C1.26342082,11.1692417 0.676832585,9.68321818 0.676832585,8.00768151 C0.676832585,6.69913852 1.05886698,5.49287244 1.81992762,4.382867 C2.5839964,3.27286156 3.75416474,2.34334482 5.33344077,1.59428667 C6.9127168,0.845288695 8.64240007,0.469270592 10.5224906,0.469270592 C12.1017666,0.469270592 13.6148635,0.743011771 15.058773,1.28748598 C16.0815422,1.66949029 17.0200834,2.21399459 17.8774047,2.92090862 L18.7347259,0.959598198 Z" id="Fill-1" fill="#000000" mask="url(#mask-2)"></path>
          <path d="M57.0073555,44.1204481 C57.8612776,44.1204481 58.5535419,44.8127124 58.5535419,45.6666345 C58.5535419,46.5205566 57.8612776,47.2128209 57.0073555,47.2128209 C56.1534034,47.2128209 55.4611691,46.5205566 55.4611691,45.6666345 C55.4611691,44.8127124 56.1534034,44.1204481 57.0073555,44.1204481" id="Fill-4" fill="#000000" mask="url(#mask-2)"></path>
          <path d="M78.7321684,44.1204481 C79.5861205,44.1204481 80.2783548,44.8127124 80.2783548,45.6666345 C80.2783548,46.5205566 79.5861205,47.2128209 78.7321684,47.2128209 C77.8782162,47.2128209 77.186012,46.5205566 77.186012,45.6666345 C77.186012,44.8127124 77.8782162,44.1204481 78.7321684,44.1204481" id="Fill-6" fill="#000000" mask="url(#mask-2)"></path>
          <path d="M67.8697695,44.1204481 C68.7237216,44.1204481 69.4159258,44.8127124 69.4159258,45.6666345 C69.4159258,46.5205566 68.7237216,47.2128209 67.8697695,47.2128209 C67.0158173,47.2128209 66.323583,46.5205566 66.323583,45.6666345 C66.323583,44.8127124 67.0158173,44.1204481 67.8697695,44.1204481" id="Fill-8" fill="#000000" mask="url(#mask-2)"></path>
        </g>
      </g>
    </g>
  </g>
</svg>
