<?xml version="1.0" encoding="UTF-8"?>
<!-- Generator: Adobe Illustrator 22.0.1, SVG Export Plug-In . SVG Version: 6.00 Build 0)  -->
<svg xmlns="http://www.w3.org/2000/svg" xmlns:xlink="http://www.w3.org/1999/xlink" id="Layer_1" x="0px" y="0px" viewBox="0 0 600 188.7" style="enable-background:new 0 0 600 188.7;" xml:space="preserve">
<style type="text/css">
	.st0{fill:#111111;}
</style>
<title>logo-huysman-bouw</title>
<path class="st0" d="M134.3,114v-13.9H134c-2.3,5-6.1,9.1-10.8,11.9c-4.8,2.8-10.2,4.2-15.8,4.1c-4.3,0.1-8.5-0.6-12.5-2  c-3.2-1.2-6.1-3.2-8.4-5.8c-2.2-2.7-3.8-5.8-4.7-9.1c-1.1-4-1.6-8.1-1.5-12.3V36.8h9.4v50.3c0.2,7,1.8,12.3,4.9,15.9  s8.3,5.4,15.8,5.4c3.7,0.1,7.3-0.8,10.5-2.6c2.9-1.8,5.3-4.2,7.2-7c2-3.1,3.4-6.5,4.2-10c0.9-3.8,1.4-7.6,1.4-11.4V36.8h9.4V114  H134.3 M291.1,51.8c-1.1-2.1-2.6-3.9-4.4-5.3c-1.9-1.4-4.1-2.5-6.4-3.1c-2.5-0.7-5.1-1-7.6-1c-2.1,0-4.3,0.2-6.4,0.7  c-2.1,0.4-4.1,1.2-5.9,2.2c-1.8,1-3.2,2.4-4.3,4.1c-1.2,1.9-1.7,4.1-1.6,6.3c-0.1,1.9,0.5,3.8,1.6,5.3c1.1,1.5,2.4,2.7,4,3.7  c1.7,1,3.4,1.8,5.2,2.5c1.9,0.7,3.6,1.2,5.2,1.6l12.5,2.8c2.7,0.4,5.4,1.1,8,2.2c2.5,1,4.9,2.4,7,4.1c2.1,1.7,3.8,3.9,5,6.3  c1.4,2.7,2.1,5.8,2,8.8c0.1,3.8-0.9,7.5-2.9,10.7c-1.8,2.9-4.3,5.4-7.3,7.2c-3.1,1.9-6.5,3.3-10,4c-3.6,0.8-7.3,1.2-10.9,1.2  c-9.1,0-16.4-2.1-22.1-6.4c-5.7-4.3-8.8-11.2-9.6-20.7h9.4c0.4,6.4,2.7,11.2,7,14.5c4.2,3.2,9.5,4.8,15.8,4.8c2.4,0,4.8-0.2,7.1-0.7  c2.4-0.5,4.7-1.3,6.8-2.5c2-1.1,3.8-2.7,5.1-4.6c1.4-2,2.1-4.4,2-6.8c0.1-2-0.4-4-1.4-5.8c-1-1.6-2.3-2.9-3.8-3.9  c-1.7-1.1-3.5-2-5.5-2.6c-2-0.7-4.1-1.3-6.2-1.8l-12.1-2.7c-2.9-0.7-5.7-1.6-8.5-2.7c-2.4-1-4.7-2.3-6.8-3.9  c-1.9-1.5-3.5-3.5-4.6-5.7c-1.2-2.6-1.7-5.4-1.6-8.3c-0.1-3.5,0.8-7,2.6-10c1.7-2.8,4-5.1,6.8-6.7c2.9-1.7,6.1-3,9.4-3.8  c3.4-0.8,6.8-1.2,10.2-1.2c3.7,0,7.3,0.5,10.9,1.5c3.2,0.9,6.2,2.5,8.8,4.6c2.6,2.1,4.6,4.8,6.1,7.8c1.6,3.4,2.4,7.2,2.5,10.9h-9.4  C292.9,56.8,292.2,54.2,291.1,51.8 M333,36.8v13h0.5c2.3-4.5,5.6-8.4,9.8-11.2c4-2.7,9.2-4,15.5-4c4.9-0.1,9.7,1.2,13.8,3.7  c4.2,2.5,7.2,6.6,8.3,11.4c2-4.8,5.6-8.8,10.2-11.4c4.4-2.5,9.3-3.8,14.4-3.7c17.1,0,25.6,9,25.6,27.1V114h-9.5V62.1  c0-6.4-1.4-11.3-4-14.6s-7.4-5-14.2-5c-3.5-0.1-7,0.7-10.2,2.3c-2.6,1.5-4.9,3.6-6.5,6.2c-1.7,2.7-2.8,5.8-3.4,8.9  c-0.7,3.4-1,6.9-1,10.4V114h-9.4V61.6c0-2.5-0.3-5-0.8-7.4c-0.5-2.2-1.4-4.3-2.7-6.1c-1.3-1.8-3-3.2-5-4.1c-2.4-1.1-5-1.6-7.6-1.5  c-3.6-0.1-7.2,0.7-10.4,2.2c-2.9,1.4-5.3,3.4-7.2,6c-1.9,2.7-3.3,5.8-4.1,9c-0.9,3.7-1.4,7.5-1.3,11.3v43h-9.4V36.8H333 M503,71.8  c-0.8,1.2-2,2.1-3.5,2.4c-1.5,0.4-3,0.8-4.5,1c-4,0.7-8.1,1.3-12.4,1.9c-3.9,0.5-7.8,1.3-11.6,2.5c-3.2,0.9-6.1,2.5-8.6,4.7  c-2.2,2-3.4,5-3.4,8.8c0,2.2,0.4,4.4,1.4,6.4c0.9,1.8,2.2,3.5,3.8,4.8c1.6,1.4,3.5,2.4,5.5,3.1c2.1,0.7,4.2,1,6.4,1  c3.5,0,7-0.5,10.3-1.6c3.2-1,6.1-2.6,8.6-4.8c2.4-2.1,4.4-4.7,5.9-7.6c1.5-3.2,2.2-6.7,2.2-10.2V71.8H503 M455.9,48.8  c1.5-3.2,3.7-5.9,6.5-8.1c2.9-2.2,6.1-3.7,9.6-4.6c4-1,8.1-1.5,12.3-1.5c3.4,0,6.8,0.3,10.2,1c3.3,0.6,6.4,1.8,9.1,3.7  c2.8,1.9,5.1,4.5,6.6,7.6c1.7,3.2,2.5,7.5,2.5,12.6v41c0,3.8,1.8,5.7,5.5,5.7c1,0,2.1-0.2,3-0.6v7.9c-1.1,0.2-2.1,0.3-2.9,0.5  s-1.9,0.2-3.2,0.2c-2,0.1-3.9-0.3-5.8-1c-1.4-0.6-2.5-1.5-3.4-2.8c-0.8-1.3-1.4-2.7-1.6-4.3c-0.3-1.8-0.4-3.6-0.4-5.5h-0.3  c-1.6,2.3-3.3,4.6-5.2,6.7c-1.7,1.9-3.7,3.5-5.8,4.9c-2.3,1.4-4.8,2.4-7.3,3c-3.2,0.7-6.5,1.1-9.8,1.1c-3.4,0-6.8-0.4-10.1-1.3  c-3-0.8-5.8-2.1-8.2-4c-2.4-1.9-4.3-4.3-5.5-7c-1.4-3.2-2.1-6.6-2-10.1c0-5.4,1.2-9.6,3.6-12.6c2.5-3.1,5.8-5.5,9.5-7  c4.3-1.7,8.8-2.8,13.3-3.4c4.9-0.7,9.9-1.3,15-1.9c2-0.2,3.8-0.4,5.2-0.7c1.3-0.2,2.6-0.8,3.7-1.6c1-0.8,1.8-1.9,2.3-3.1  c0.6-1.6,0.9-3.4,0.8-5.1c0.1-2.7-0.4-5.4-1.6-7.8c-1-2-2.5-3.7-4.3-4.9c-1.9-1.3-4.1-2.1-6.4-2.5c-2.6-0.5-5.2-0.7-7.9-0.7  c-6,0-10.9,1.4-14.7,4.3s-5.8,7.4-6,13.7H453C453.2,56.4,454.2,52.4,455.9,48.8L455.9,48.8z M546.7,36.8v13.3h0.3  c1.8-4.7,5.2-8.7,9.6-11.3c4.5-2.8,9.8-4.3,15.1-4.3c4.6-0.1,9.2,0.6,13.6,2.1c3.4,1.2,6.4,3.2,8.8,5.9c2.3,2.7,3.9,5.9,4.7,9.4  c0.9,4.1,1.4,8.2,1.3,12.4V114h-9.4V65.8c0-3.1-0.3-6.2-0.9-9.2c-0.5-2.7-1.6-5.2-3.1-7.4c-1.6-2.1-3.7-3.8-6.1-4.9  c-3-1.3-6.2-1.9-9.5-1.8c-3.5-0.1-6.9,0.6-10.1,2c-2.9,1.3-5.4,3.2-7.5,5.5c-2.1,2.5-3.7,5.3-4.8,8.4c-1.2,3.4-1.8,7-1.9,10.6v45  h-9.4V36.8L546.7,36.8"></path>
<path class="st0" d="M8.6,51.3L8.6,51.3L8.6,51.3 M61.2,51.6c-0.9-3.4-2.5-6.5-4.7-9.1c-2.3-2.6-5.2-4.6-8.4-5.8  c-4-1.4-8.2-2.1-12.5-2c-5.5-0.1-11,1.4-15.8,4.1c-4.8,2.8-8.5,6.9-10.8,11.9l-0.3,0.5V38.5c0-0.2-0.4-15.4,8-24  c3.8-3.9,8.7-5.8,15.1-5.8V0c-8.7,0-15.9,2.8-21.3,8.4C-0.4,19.6,0,38,0,38.6V114h9.4V73.5c0-3.9,0.4-7.7,1.3-11.5  c0.8-3.6,2.2-6.9,4.2-10c1.8-2.8,4.3-5.2,7.2-7c3.2-1.8,6.8-2.6,10.5-2.5c7.5,0,12.8,1.8,15.8,5.4s4.7,8.9,4.9,15.9v50.3h9.4V63.9  C62.8,59.8,62.3,55.6,61.2,51.6z M216.3,99.6L216.3,99.6L216.3,99.6 M163.7,99.2c0.9,3.4,2.5,6.5,4.7,9.1c2.3,2.6,5.2,4.6,8.4,5.8  c4,1.4,8.2,2.1,12.5,2c5.5,0.1,11-1.4,15.8-4.1c4.8-2.7,8.6-6.9,10.9-11.9l0.3-0.5v12.8c0,0.2,0.4,15.4-8,24  c-3.8,3.9-8.7,5.8-15.1,5.8v8.7c8.7,0,15.9-2.8,21.3-8.4c10.9-11.2,10.5-29.5,10.5-30.2V36.8h-9.4v40.6c0,3.9-0.5,7.7-1.4,11.4  c-0.8,3.5-2.2,6.9-4.2,9.9c-1.8,2.8-4.3,5.2-7.2,7c-3.2,1.8-6.8,2.7-10.5,2.6c-7.5,0-12.7-1.8-15.8-5.4c-3.1-3.6-4.7-8.9-4.9-15.8  V36.8h-9.4v50.1C162.2,91.1,162.7,95.2,163.7,99.2L163.7,99.2z M13.4,183.5c0.1,1.4-0.5,2.8-1.5,3.8c-1.1,0.9-2.5,1.4-4,1.3H0.7  v-18.5h7c1.5-0.1,2.9,0.4,4,1.3c1,0.9,1.5,2.2,1.4,3.6c0,0.9-0.3,1.8-0.8,2.5c-0.5,0.7-1.2,1.2-2,1.5  C12.3,179.6,13.5,181.5,13.4,183.5L13.4,183.5z M11.1,175c0.1-0.9-0.3-1.8-1-2.4c-0.8-0.6-1.7-0.9-2.6-0.8H2.7v6.4h4.8  c0.9,0,1.9-0.2,2.6-0.8C10.8,176.8,11.2,175.9,11.1,175z M11.4,183.4c0-0.9-0.3-1.8-1-2.5c-0.8-0.6-1.7-1-2.7-0.9h-5v6.8h5  c1,0.1,2-0.3,2.7-0.9C11.1,185.2,11.5,184.3,11.4,183.4L11.4,183.4z M43.4,179.3c0,1.5,0,3.1-0.2,4.6c-0.2,1.1-0.7,2.1-1.5,2.9  c-2.6,2.6-6.8,2.6-9.5,0c-0.8-0.8-1.3-1.8-1.5-2.9c-0.3-3-0.3-6.1,0-9.1c0.2-1.1,0.7-2.1,1.5-2.9c2.6-2.6,6.8-2.6,9.5,0  c0.8,0.8,1.3,1.8,1.5,2.9C43.4,176.3,43.4,177.8,43.4,179.3L43.4,179.3z M41.4,179.3c0-1.4,0-2.8-0.2-4.2c-0.1-0.8-0.5-1.6-1.1-2.2  c-1.8-1.8-4.6-1.8-6.4,0c0,0,0,0,0,0c-0.6,0.6-0.9,1.3-1.1,2.2c-0.3,2.8-0.3,5.6,0,8.3c0.1,0.8,0.5,1.6,1.1,2.2  c1.8,1.8,4.6,1.8,6.4,0c0,0,0,0,0,0c0.6-0.6,0.9-1.3,1.1-2.2C41.4,182.1,41.5,180.7,41.4,179.3L41.4,179.3z M73.8,182.5  c0.1,1.7-0.6,3.3-1.8,4.5c-2.6,2.3-6.6,2.3-9.3,0c-1.2-1.2-1.9-2.8-1.8-4.5v-12.4h2v12.2c-0.1,1.2,0.4,2.5,1.2,3.4  c1.8,1.7,4.7,1.7,6.5,0c0.8-0.9,1.3-2.1,1.2-3.4v-12.3h2L73.8,182.5z M111.1,170.1l-4.7,18.5h-1.8l-4.1-14.8l-4.1,14.8h-1.8  l-4.7-18.5h2.1l3.6,14.9l4.1-14.9h1.8l4.1,14.9l3.6-14.9L111.1,170.1z M138.8,188.6h-11.5v-18.5h11.5v1.8h-9.5v6.5h8.1v1.8h-8.1v6.7  h9.5L138.8,188.6z M169.7,188.6h-1.9l-9.8-14.8v14.9h-2v-18.5h1.9l9.8,14.8v-14.8h2L169.7,188.6z M223.6,188.6h-2v-14.1l-5.1,11.1  h-1.7l-5.1-11.1v14.1h-2v-18.5h2l6,13.1l5.9-13.1h2L223.6,188.6z M253.6,188.6h-11.5v-18.5h11.5v1.8H244v6.5h8.1v1.8H244v6.7h9.5  L253.6,188.6z M281.5,171.8h-5.4v16.7h-2v-16.7h-5.4v-1.8h12.7L281.5,171.8z M329,170.1l-6.1,18.5h-1.6l-6.1-18.5h2.1l4.8,15l4.8-15  H329z M356.5,188.6H345v-18.5h11.5v1.8H347v6.5h8.1v1.8H347v6.7h9.5L356.5,188.6z M386.6,188.6h-2.3l-4.2-8.2h-4.5v8.2h-2v-18.5h7.1  c1.5-0.1,2.9,0.4,4,1.4c1,1,1.6,2.3,1.5,3.8c0,1.2-0.3,2.4-1.1,3.3c-0.8,0.9-1.8,1.5-2.9,1.7L386.6,188.6z M384.3,175.2  c0.1-0.9-0.3-1.9-1-2.5c-0.8-0.6-1.7-0.9-2.7-0.9h-4.9v6.8h4.9c1,0,1.9-0.3,2.7-0.9C384,177.1,384.4,176.2,384.3,175.2L384.3,175.2z   M414.6,171.8h-5.4v16.7h-2v-16.7H402v-1.8h12.7L414.6,171.8z M444.2,188.6h-2.3l-4.2-8.2h-4.5v8.2h-2v-18.5h7.1  c1.5-0.1,2.9,0.4,4,1.4c1,1,1.6,2.3,1.5,3.8c0,1.2-0.3,2.4-1.1,3.3c-0.8,0.9-1.8,1.5-2.9,1.7L444.2,188.6z M441.8,175.2  c0.1-0.9-0.3-1.9-1-2.5c-0.8-0.6-1.7-0.9-2.7-0.9h-4.9v6.8h4.9c1,0,1.9-0.3,2.7-0.9C441.5,177.1,441.9,176.2,441.8,175.2  L441.8,175.2z M473.6,179.3c0,1.5,0,3.1-0.2,4.6c-0.2,1.1-0.7,2.1-1.5,2.9c-2.6,2.6-6.8,2.6-9.5,0c-0.8-0.8-1.3-1.8-1.5-2.9  c-0.3-3-0.3-6.1,0-9.1c0.2-1.1,0.7-2.1,1.5-2.9c2.6-2.6,6.8-2.6,9.5,0c0.8,0.8,1.3,1.8,1.5,2.9C473.6,176.3,473.7,177.8,473.6,179.3  L473.6,179.3z M471.6,179.3c0-1.4,0-2.8-0.2-4.2c-0.1-0.8-0.5-1.6-1.1-2.2c-1.8-1.8-4.6-1.8-6.4,0c0,0,0,0,0,0  c-0.6,0.6-0.9,1.3-1.1,2.2c-0.3,2.8-0.3,5.6,0,8.3c0.1,0.8,0.5,1.6,1.1,2.2c1.8,1.8,4.6,1.8,6.4,0c0,0,0,0,0,0  c0.6-0.6,0.9-1.3,1.1-2.2C471.6,182.1,471.7,180.7,471.6,179.3L471.6,179.3z M504,182.5c0.1,1.7-0.6,3.3-1.8,4.5  c-2.6,2.3-6.6,2.3-9.3,0c-1.2-1.2-1.9-2.8-1.8-4.5v-12.4h2v12.2c-0.1,1.2,0.4,2.5,1.2,3.4c0.9,0.9,2,1.3,3.2,1.3  c1.2,0.1,2.4-0.4,3.3-1.3c0.8-0.9,1.3-2.1,1.2-3.4v-12.3h2L504,182.5z M541.3,170.1l-4.7,18.5h-1.8l-4.1-14.8l-4.1,14.8h-1.8  l-4.7-18.5h2.1l3.6,14.9l4.1-14.9h1.8l4.1,14.9l3.6-14.9L541.3,170.1z M569,188.6h-11.5v-18.5H569v1.8h-9.5v6.5h8.1v1.8h-8.1v6.7  h9.5V188.6z M599.9,188.6H598l-9.8-14.9v14.9h-2v-18.5h1.9l9.8,14.8v-14.8h2V188.6z"></path>
</svg>
