<svg xmlns="http://www.w3.org/2000/svg" xmlns:xlink="http://www.w3.org/1999/xlink" viewBox="0 0 285.8 62.1" class="logo-jd"><title>Jules Destrooper</title> <defs><path id="lbxsttjrsg-a" d="M21.6 14.7l-9.5 9.6-8.4 8.5S1.4 35 1.3 36.3c0 1 .4 2.1 1.9 3.6l8.9 9 9.2 9.3.3.3c.6.6 1.6.6 2.3 0 .3-.3.5-.8.5-1.2v-2.8c0-1.7-.2-2-1.7-2h-.2c-1 0-1.7-.8-1.7-1.7 0-1 .8-1.7 1.7-1.7 1 0 1.7.8 1.7 1.7v.1c0 .7.4 1 1 1.1h82.7-.4c17.5 0 35.6 8.8 35.6 8.8s18.3-8.8 34.8-8.8h-.5 83.5c.6 0 1-.3 1-1.1v-.1c0-1 .8-1.7 1.7-1.7 1 0 1.7.8 1.7 1.7 0 1-.8 1.7-1.7 1.7h-.2c-1.5 0-1.7.3-1.7 2v2.8c0 .4.1.9.5 1.2.6.6 1.6.6 2.3 0l.3-.3 9.2-9.3 8.9-9c1.5-1.5 2-2.6 1.9-3.6-.1-1.3-2.4-3.5-2.4-3.5l-8.4-8.5-9.5-9.5c-.3-.3-.7-.4-1.1-.4-.9 0-1.6.7-1.6 1.6v3.5c0 1.7.2 2 1.7 2h.2c1 0 1.7.8 1.7 1.7 0 1-.8 1.7-1.7 1.7-1 0-1.7-.8-1.7-1.7v-.1c0-.8-.4-1.1-1.1-1.1H25.3c-.7 0-1.1.3-1.1 1.1v.1c0 1-.8 1.7-1.7 1.7-1 0-1.7-.8-1.7-1.7s.8-1.7 1.7-1.7h.2c1.5 0 1.7-.3 1.7-2V16c0-.9-.7-1.6-1.6-1.6-.5-.2-.9 0-1.2.3"></path></defs> <clipPath id="lbxsttjrsg-b"><use overflow="visible" xlink:href="#lbxsttjrsg-a"></use></clipPath> <linearGradient id="lbxsttjrsg-c" x1=".176" x2="285.822" y1="36.44" y2="36.44" gradientUnits="userSpaceOnUse"><stop offset="0" stop-color="#0d1d40"></stop> <stop offset=".064" stop-color="#102045"></stop> <stop offset=".169" stop-color="#162951"></stop> <stop offset=".301" stop-color="#1d3566"></stop> <stop offset=".364" stop-color="#1f3c72"></stop> <stop offset=".422" stop-color="#1f3e76"></stop> <stop offset=".492" stop-color="#1d4482"></stop> <stop offset=".5" stop-color="#1c4584"></stop> <stop offset=".641" stop-color="#1f3c71"></stop> <stop offset=".7" stop-color="#1d3666"></stop> <stop offset=".831" stop-color="#162951"></stop> <stop offset=".936" stop-color="#102045"></stop> <stop offset="1" stop-color="#0d1d40"></stop></linearGradient> <path fill="url(#lbxsttjrsg-c)" d="M.2-17.1h285.6v107H.2z" clip-path="url(#lbxsttjrsg-b)"></path> <path fill="#FFF" d="M250.5 27.3h1c.2 0 .4 0 .5.2.1.1.2.2.2.4v.3l-.1.2-.1.1h-.1.1l.1.1.1.1v.5c0 .1 0 .2.1.2h-.4l-.1-.2V29v-.3l-.1-.2-.1-.1h-.8v.9h-.4v-2zm.4 1h.6c.1 0 .2 0 .3-.1s.1-.1.1-.3v-.2l-.1-.1h-.8v.7z"></path> <path fill="#FFF" d="M251.4 26.7c1 0 1.7.8 1.7 1.7 0 1-.8 1.7-1.7 1.7s-1.7-.8-1.7-1.7c-.1-1 .7-1.7 1.7-1.7m0-.4c-1.2 0-2.1 1-2.1 2.1 0 1.2 1 2.1 2.1 2.1 1.2 0 2.1-1 2.1-2.1 0-1.2-1-2.1-2.1-2.1M164.5 26.6h-10.3v4l.1-.2c.9-1.4 2.5-2.1 3.5-1.6v13.4c0 2.2-.4 4-.9 5h4.8c-.6-1-.9-2.8-.9-5V28.9c1-.5 2.6.1 3.5 1.6l.1.2v-4.1zM72.3 44.7c1.9 0 3.5-.7 4.1-1.7v4.3H65c.6-1 .9-2.8.9-5V31.6c0-2.2-.4-4.1-.9-5h4.9c-.6 1-.9 2.8-.9 5v13.1h3.3zM192.7 43.6c0 2-1.7 3.7-3.7 3.7h-3.6c-2 0-3.7-1.6-3.7-3.7V30.2c0-2 1.7-3.7 3.7-3.7h3.6c2 0 3.7 1.7 3.7 3.7v13.4zM189.6 31c0-1-.8-1.9-1.9-1.9h-1c-1 0-1.9.9-1.9 1.9v11.7c0 1 .8 1.9 1.9 1.9h1c1 0 1.9-.9 1.9-1.9V31zM206.9 43.6c0 2-1.7 3.7-3.7 3.7h-3.6c-2 0-3.7-1.6-3.7-3.7V30.2c0-2 1.7-3.7 3.7-3.7h3.6c2 0 3.7 1.7 3.7 3.7v13.4zM203.8 31c0-1-.8-1.9-1.9-1.9h-1c-1 0-1.9.9-1.9 1.9v11.7c0 1 .8 1.9 1.9 1.9h1c1 0 1.9-.9 1.9-1.9V31zM53.9 31.5c0-2.2.4-4 .9-5h-5c.6 1 .9 2.8.9 5v12c0 2 1.7 3.7 3.7 3.7H58c2 0 3.7-1.7 3.7-3.7v-12c0-2.2.4-4 .9-5h-4.9c.6 1 .9 2.8.9 5v11.2c0 1-.8 1.9-1.9 1.9h-1c-1 0-1.9-.8-1.9-1.9v-1.2l.1-10zM39.7 40.4c-.3.6-.6 1.1-.7 1.8v.5c0 1 .8 2 1.9 2h.7c1 0 1.9-.9 1.9-2V31.6c0-2.2-.4-4-.9-5h4.9c-.6 1-.9 2.8-.9 5v12.1c0 2-1.7 3.7-3.7 3.7h-3.5c-2.1-.2-3.1-2.3-3.1-2.3-.4-.7-.4-1.7-.4-1.7 0-2.2-.8-2.8-.8-2.8l4.6-.2zM230.9 39c-.5-.7-1.7-1.1-3-1.1-.3 0-.6 0-.9.1v6.8h2.3c1.9 0 3.5-.7 4.1-1.7l.9 4.3h-11.4c.6-1 .9-2.8.9-5V31.8c0-2.2-.4-4.1-.9-5h11.4l-.9 4.3c-.6-1-2.2-1.7-4.1-1.7H227V34.8c.3 0 .6.1.9.1 1.4 0 2.5-.5 3-1.1V39zM115.9 31.6c0-2.2-.4-4-.9-5h6.5c.3 0 .7.1 1 .2 2.4 1 4.2 5.2 4.2 10.2 0 5.3-2 9.7-4.7 10.3H114.9c.6-1 .9-2.8.9-5V31.8l.1-.2zM119 29v15.7c.2.1.4.1.6.1 2.1 0 3.8-3.6 3.8-8s-1.7-8-3.8-8c-.2.1-.4.2-.6.2zM93.4 47.1c-1-.2-1.8-.1-2.4.3l.8-3.6 1.6.7s3.1 1.2 4.8-.6c0 0 1.5-1.7-.2-4 0 0-.3-.5-1.5-1.7l-3.8-3.7s-2.3-2-1.6-4.9c0 0 .7-3.6 4.9-3.2l2.6.4c.8.1 1.5 0 1.9-.3l-.8 3.5-1.4-.6s-2.7-1-3.7.5c0 0-1.1 1.1.6 2.9l3.2 3.1s2.4 2.1 3.1 4.6c0 0 2 7.4-7 6.8l-1.1-.2zM144.6 47.1c-1-.2-1.8-.1-2.4.3l.8-3.6 1.6.7s3.1 1.2 4.8-.6c0 0 1.5-1.7-.2-4 0 0-.3-.5-1.5-1.7l-3.8-3.7s-2.3-2-1.6-4.9c0 0 .7-3.6 4.9-3.2l2.6.4c.8.1 1.5 0 1.9-.3l-.8 3.5-1.3-.6s-2.7-1-3.7.5c0 0-1.1 1.1.6 2.9l3.2 3.1s2.4 2.1 3.1 4.6c0 0 2 7.4-7 6.8l-1.2-.2zM248.4 47.3c-.1-.4-.8-.6-1-3.4-.1-1.1.2-5.1-2.8-6.4-.1 0-.2-.1-.2-.3 0-.1.1-.2.2-.3.2-.1.9-.4 1.8-1.1 2.2-2 1.8-4.6 1.5-5.5-1.5-4.1-5.5-3.8-5.5-3.8H236.7c.6 1 .9 2.9.9 5v.1c-.1 3.5 0 6.8 0 10.3v.2c0 2.2-.4 4.1-.9 5h5c-.6-1-.9-2.9-.9-5v-4.6h1.1c1.1 0 2.2 1.1 2.3 2 .3 2.2-.6 5.1 1 7 .5.6 1.1.7 1.8.7l1.4.1zm-3.7-15.4c0 1.6-1.1 2.9-2.4 2.9h-1.8V29h1.8c1.4 0 2.4 1.3 2.4 2.9M179.1 47.3c-.1-.4-.8-.6-1-3.4-.1-1.1.2-5.1-2.8-6.4-.1 0-.2-.1-.2-.3 0-.1.1-.2.2-.3.2-.1.9-.4 1.8-1.1 2.2-2 1.8-4.6 1.5-5.5-1.5-4.1-5.5-3.8-5.5-3.8H167.4c.6 1 .9 2.9.9 5v.1c-.1 3.5 0 6.8 0 10.3v.2c0 2.2-.4 4.1-.9 5h5c-.6-1-.9-2.9-.9-5v-4.6h1.1c1.1 0 2.2 1.1 2.4 2 .3 2.2-.6 5.1 1 7 .5.6 1.1.7 1.8.7l1.3.1zm-3.6-15.4c0 1.6-1.1 2.9-2.4 2.9h-1.8V29h1.8c1.3 0 2.4 1.3 2.4 2.9M219.2 36c2.2-2 1.8-4.7 1.5-5.6-1.5-4.1-5.5-3.8-5.5-3.8H209.5c.6 1 .9 2.9.9 5v.1c-.1 3.5 0 6.8 0 10.3v.2c0 2.2-.4 4.1-.9 5h5c-.6-1-.9-2.9-.9-5v-4.6h1.1c2.3 0 3.7-.9 4.5-1.6m-1.5-4.1c0 1.6-1.1 2.9-2.4 2.9h-1.8V29h1.8c1.4 0 2.4 1.3 2.4 2.9M136.7 39c-.5-.7-1.7-1.1-3-1.1-.3 0-.6 0-.9.1v6.8h2.3c1.9 0 3.5-.7 4.1-1.7l.9 4.3h-11.4c.6-1 .9-2.8.9-5V31.8c0-2.2-.4-4.1-.9-5h11.4l-.9 4.3c-.6-1-2.2-1.7-4.1-1.7h-2.3V34.8c.3 0 .6.1.9.1 1.4 0 2.5-.5 3-1.1V39zM85.7 39c-.5-.7-1.7-1.1-3-1.1-.3 0-.6 0-.9.1v6.8h2.3c1.9 0 3.5-.7 4.1-1.7l.9 4.3H77.8c.6-1 .9-2.8.9-5V31.8c0-2.2-.4-4.1-.9-5h11.4l-.9 4.3c-.6-1-2.2-1.7-4.1-1.7h-2.3V34.8c.3 0 .6.1.9.1 1.4 0 2.5-.5 3-1.1V39zM143 57.8c-.3-1-.8-2.4-.9-3.4-.1-.8-.2-2.5.9-2.5s1 1.7.9 2.5c-.1 1-.5 2.5-.9 3.4zM144.6 57.8c-.2-1.2.8-2.6 1.8-3 1-.5 2.1.3 1.4 1.1-.7.8-1.7.4-3.2 1.9M141.5 57.8c.2-1.2-.8-2.6-1.8-3-1-.5-2.1.3-1.4 1.1.7.8 1.7.4 3.2 1.9"></path> <path fill="#263D7D" d="M125.1 14.7c0 .5-.3.9-.8 1 .6.1 1 .5 1 1.1 0 .7-.6 1.2-1.6 1.2h-1.9v-4.3h1.8c1-.1 1.5.4 1.5 1m-.5.1c0-.4-.3-.7-.9-.7h-1.3v1.4h1.3c.5 0 .9-.2.9-.7m.2 1.9c0-.5-.4-.8-1.1-.8h-1.3v1.5h1.3c.7.1 1.1-.2 1.1-.7M126.7 13.6h.5v4.3h-.5zM130.2 14.1c-.6 0-.9.2-.9.6 0 1.1 2.4.5 2.4 2.1 0 .7-.6 1.2-1.6 1.2-.6 0-1.2-.3-1.7-.7l.2-.4c.4.4 1 .6 1.4.6.6 0 1-.3 1-.7 0-1.2-2.4-.5-2.4-2.1 0-.7.6-1.1 1.5-1.1.5 0 1 .2 1.4.4l-.2.4c-.3-.2-.7-.3-1.1-.3M135 14.1c-1 0-1.8.8-1.8 1.7 0 1 .8 1.7 1.8 1.7.5 0 .9-.2 1.3-.5l.3.3c-.4.4-1 .7-1.6.7-1.2 0-2.2-1-2.2-2.2 0-1.2 1-2.2 2.3-2.2.6 0 1.2.2 1.6.6l-.3.4c-.4-.3-.9-.5-1.4-.5M139.7 17.5c.8 0 1.3-.5 1.3-1.3v-2.5h.5v2.5c0 1.1-.7 1.8-1.8 1.8s-1.8-.7-1.8-1.8v-2.5h.5v2.5c0 .8.5 1.3 1.3 1.3M143.1 13.6h.5v4.3h-.5zM148.1 13.6v.5h-1.4V18h-.5v-3.9h-1.4v-.5zM152.2 13.6v.5h-2.4v1.5h2.1v.4h-2.1v1.5h2.5v.5h-3v-4.4zM156.6 18l-.9-1.4h-1.5V18h-.5v-4.3h1.6c1.1 0 1.7.5 1.7 1.5 0 .7-.4 1.2-1 1.4l1 1.5h-.4zm-1.2-1.9c.8 0 1.2-.4 1.2-1 0-.7-.4-1-1.2-1h-1.2v2h1.2zM158.6 13.6h.5v4.3h-.5zM163.8 13.6v.5h-2.4v1.5h2.2v.4h-2.2v1.5h2.5v.5h-3v-4.4zM97.2 57.8c0 .5-.3.8-.7.9.6.1.9.5.9 1 0 .7-.5 1.1-1.4 1.1h-1.7v-4H96c.7 0 1.2.4 1.2 1m-.5.1c0-.4-.3-.6-.9-.6h-1.2v1.3h1.2c.6-.1.9-.3.9-.7m.2 1.7c0-.4-.4-.7-1-.7h-1.2v1.4h1.2c.6.1 1-.2 1-.7M101.5 56.8v.4h-2.2v1.4h2v.4h-2v1.4h2.3v.4h-2.8v-4zM103.4 56.8v3.6h1.8v.4H103v-4zM109.2 58.8h.4v1.5c-.4.3-.9.5-1.5.5-1.2 0-2.1-.9-2.1-2s.9-2 2.1-2c.6 0 1.1.2 1.5.5l-.3.3c-.3-.3-.8-.5-1.2-.5-.9 0-1.6.7-1.6 1.6 0 .9.7 1.6 1.7 1.6.4 0 .7-.1 1.1-.3v-1.2zM111.2 56.8h.5v4h-.5zM114.9 60.4c.8 0 1.2-.5 1.2-1.2v-2.4h.5v2.4c0 1-.6 1.7-1.7 1.7s-1.7-.6-1.7-1.7v-2.4h.5v2.4c0 .7.5 1.2 1.2 1.2M118.8 56.8l1.4 2.9 1.5-2.9h.6v4h-.5v-3.3l-1.4 2.9h-.3l-1.5-2.9v3.3h-.4v-4zM163.8 57.2c-.5 0-.9.2-.9.5 0 1 2.3.5 2.2 1.9 0 .7-.6 1.1-1.4 1.1-.6 0-1.2-.3-1.5-.6l.2-.4c.4.4.9.6 1.3.6.6 0 .9-.2.9-.6 0-1.1-2.2-.5-2.2-1.9 0-.6.6-1 1.4-1 .5 0 .9.1 1.3.4l-.2.4c-.3-.3-.8-.4-1.1-.4M166.6 56.8h.5v4h-.5zM169.1 56.8l2.4 3.2v-3.2h.5v4h-.5l-2.4-3.3v3.3h-.5v-4zM175.3 57.2c-.9 0-1.6.7-1.6 1.6 0 .9.7 1.6 1.6 1.6.4 0 .9-.2 1.2-.5l.3.3c-.4.4-.9.6-1.5.6-1.2 0-2.1-.9-2.1-2s.9-2 2.1-2c.5 0 1.1.2 1.5.6l-.3.3c-.3-.3-.8-.5-1.2-.5M180.7 56.8v.4h-2.3v1.4h2.1v.4h-2.1v1.4h2.4v.4H178v-4zM185.7 56.8v4h-.5v-3.6h-.9v-.4zM189.6 57.8c0 .4-.2.7-.6.9.5.2.8.5.8 1 0 .7-.6 1.1-1.5 1.1s-1.5-.4-1.5-1.1c0-.5.3-.9.9-1-.4-.2-.7-.5-.7-.9 0-.6.5-1 1.3-1s1.3.3 1.3 1m-2.3 1.8c0 .5.4.8 1 .8.7 0 1-.3 1-.8s-.4-.8-1-.8c-.7.1-1 .3-1 .8m.1-1.8c0 .4.3.7.9.7.6 0 .9-.3.9-.7 0-.4-.3-.7-.9-.7-.6 0-.9.3-.9.7M193.6 57.8c0 .4-.2.7-.6.9.5.2.8.5.8 1 0 .7-.6 1.1-1.5 1.1s-1.5-.4-1.5-1.1c0-.5.3-.9.9-1-.4-.2-.7-.5-.7-.9 0-.6.5-1 1.3-1s1.3.3 1.3 1m-2.3 1.8c0 .5.4.8 1 .8.7 0 1-.3 1-.8s-.4-.8-1-.8c-.6.1-1 .3-1 .8m.2-1.8c0 .4.3.7.9.7s.9-.3.9-.7c0-.4-.3-.7-.9-.7s-.9.3-.9.7M196.6 57.2c-.9 0-1.3.7-1.2 1.8.2-.5.6-.8 1.2-.8.8 0 1.3.5 1.3 1.3s-.5 1.3-1.4 1.3c-1 0-1.6-.7-1.6-1.9 0-1.3.6-2.1 1.7-2.1.4 0 .8.1 1.1.3l-.2.4c-.2-.3-.5-.3-.9-.3m-1.1 2.3c0 .4.3.9 1 .9.6 0 1-.3 1-.9 0-.5-.4-.9-.9-.9-.7 0-1.1.4-1.1.9"></path> <g><defs><path id="lbxsttjrsg-d" d="M62.6 58.5l27 .6V58l-27 .5zm139.7.6l21-.6-21-.6v1.2zM62.5 15.9l54.8.5v-1.1l-54.8.6zm106 .6l54.8-.5-54.8-.6v1.1zm-32-9.6c1 1.2 2.4.7 4.4 2.7.3-1.7-1.1-3.5-2.4-4.2-.3-.1-.6-.2-.9-.2-1.1 0-1.8.9-1.1 1.7m11.2-1.5c-1.4.7-2.8 2.5-2.4 4.2 2-2.1 3.4-1.5 4.4-2.7.7-.8-.1-1.6-1.1-1.6-.4-.1-.7 0-.9.1m-5.9-.4c.2 1.4.8 3.3 1.2 4.6.5-1.3 1.1-3.3 1.2-4.6.1-1.1.3-3.4-1.2-3.4s-1.3 2.3-1.2 3.4"></path></defs> <clipPath id="lbxsttjrsg-e"><use overflow="visible" xlink:href="#lbxsttjrsg-d"></use></clipPath> <linearGradient id="lbxsttjrsg-f" x1="46.489" x2="238.604" y1="36.44" y2="36.44" gradientUnits="userSpaceOnUse"><stop offset="0" stop-color="#a07b2c"></stop> <stop offset=".081" stop-color="#a68030"></stop> <stop offset=".213" stop-color="#b88d40"></stop> <stop offset=".364" stop-color="#d7a45e"></stop> <stop offset=".399" stop-color="#dba863"></stop> <stop offset=".446" stop-color="#e7b771"></stop> <stop offset=".5" stop-color="#ffd188"></stop> <stop offset=".5" stop-color="#ffd189"></stop> <stop offset=".538" stop-color="#efc079"></stop> <stop offset=".603" stop-color="#ddab65"></stop> <stop offset=".641" stop-color="#d7a45e"></stop> <stop offset=".79" stop-color="#b88d40"></stop> <stop offset=".92" stop-color="#a68030"></stop> <stop offset="1" stop-color="#a07b2c"></stop></linearGradient> <path fill="url(#lbxsttjrsg-f)" d="M46.5-17.1h192.1v107H46.5z" clip-path="url(#lbxsttjrsg-e)"></path></g> <path fill="#FFF" d="M17.1 36.5c-1.4.5-3.5 1-5 1.2-1.2.1-3.7.3-3.7-1.2 0-1.4 2.5-1.3 3.7-1.2 1.5.2 3.6.8 5 1.2zM22.1 32c-1-1-1.2-2.9-1-4 .3-1.1 1.4-1.1 1.6 0 .1 1.4-.7 1.7-.6 4M19.4 33.4c-1.8.3-3.8-1-4.5-2.3-.7-1.3.5-2.7 1.6-1.9 1.2 1 .6 2.2 2.9 4.2M22.1 41.1c-1 1-1.2 2.9-1 4 .3 1.1 1.4 1.1 1.6 0 .1-1.4-.7-1.7-.6-4M19.4 39.8c-1.8-.3-3.8 1-4.5 2.3-.7 1.3.5 2.7 1.6 1.9 1.2-1.1.6-2.3 2.9-4.2M23.4 36.7c0 .7-.6 1.3-1.3 1.3-.7 0-1.3-.6-1.3-1.3s.6-1.3 1.3-1.3c.7 0 1.3.6 1.3 1.3M268.6 36.5c1.4.5 3.5 1 5 1.2 1.2.1 3.7.3 3.7-1.2 0-1.4-2.5-1.3-3.7-1.2-1.4.2-3.5.8-5 1.2zM263.6 32c1-1 1.2-2.9 1-4-.3-1.1-1.4-1.1-1.6 0-.1 1.4.7 1.7.6 4M266.4 33.4c1.8.3 3.8-1 4.5-2.3.7-1.3-.5-2.7-1.6-1.9-1.3 1-.7 2.2-2.9 4.2M263.6 41.1c1 1 1.2 2.9 1 4-.3 1.1-1.4 1.1-1.6 0-.1-1.4.7-1.7.6-4M266.4 39.8c1.8-.3 3.8 1 4.5 2.3.7 1.3-.5 2.7-1.6 1.9-1.3-1.1-.7-2.3-2.9-4.2M262.4 36.7c0 .7.6 1.3 1.3 1.3.7 0 1.3-.6 1.3-1.3s-.6-1.3-1.3-1.3c-.7 0-1.3.6-1.3 1.3"></path></svg>