<svg xmlns="http://www.w3.org/2000/svg" viewBox="0 0 4512.4 2362.2" fill="#000" class="logo-slots"><title>Slots Décoration NL</title> <g><path d="M622.8 31.9h49l72.5 292-63.2 19c-39.8-81.9-92.7-146.5-158.7-193.6-54.2-39.3-114.3-59-180.4-59-39.8 0-75.5 7.1-107.2 21.4-31.7 14.2-55.4 32.7-71.2 55.3-15.8 22.6-23.7 45.7-23.7 69.2 0 21.2 6.1 41.8 18.4 61.7 12.2 19.9 30.8 37.4 55.7 52.5 24.9 15.1 65.7 31.1 122.3 47.8l177.2 52.4c21.7 6.3 53.3 18.6 94.7 36.7 41.4 18.1 73.7 37.3 96.7 57.4 23.1 20.2 41.2 44.9 54.3 74.1 13.1 29.2 19.7 60.8 19.7 94.8 0 75.2-32.9 141-98.8 197.4-65.9 56.4-151.1 84.6-255.7 84.6-53.9 0-102.1-7.8-144.7-23.4-42.6-15.6-88.5-43.3-137.9-83.2l-31.2 90.3H63.1L0 639.1l63.2-12.9c23.1 62.9 53.8 116.4 92 160.3 38.3 43.9 80.6 77.1 127 99.5 46.4 22.4 93.6 33.6 141.6 33.6 65.2 0 122.3-19.7 171.2-59.1 40.7-33 61.1-72 61.1-116.8 0-41.2-14.7-74.9-44.1-101.2-29.9-26.3-83.3-50.7-160.3-73.4l-169.8-48.9c-95.1-27.6-162.1-62.9-201-105.9-38.9-43-58.4-92.4-58.4-148.1 0-43.5 12.7-83.6 38-120.5 25.4-36.9 64.3-67.8 116.8-92.7 52.5-24.9 110-37.4 172.5-37.4 52.5 0 102.8 9.1 150.8 27.2 34 12.7 65.2 30.8 93.7 54.3l28.5-65.2zM902.6 31.9H1270v57h-34c-26.3 0-44.8 2.5-55.7 7.5-10.9 5-18.8 12.3-23.8 21.9-5 9.6-7.5 26.7-7.5 51.4v660.8c0 30.3 1.1 48.5 3.4 54.3 2.7 8.2 8.6 14 17.7 17.7 6.3 2.7 24.7 4.1 55 4.1h50.9c58.4 0 109.1-8.5 152.1-25.5s80.1-41.7 111.4-74c31.2-32.4 61.3-80.7 90.3-145l60.5 20.4-105.9 296.8H902.6v-57.1h29.9c29 0 48.4-2.5 58.4-7.5s17.7-13.2 23.1-24.8c5.4-11.5 8.2-31.3 8.2-59.4V186.1c0-32.8-2.5-54.8-7.5-66-5-11.2-12.2-19.2-21.7-23.9-9.5-4.8-29.7-7.2-60.5-7.2h-29.9V31.9zM2244.3 15.6c86.5 0 164.7 20.8 234.5 62.5 75.7 44.8 133.8 103 174.3 174.5 40.6 71.5 60.8 154.4 60.8 248.6 0 145.8-45.3 264.6-135.9 356.6-90.6 91.9-206.2 137.9-346.6 137.9-156.8 0-280.9-55.2-372.4-165.7-74.8-90.1-112.1-197.9-112.1-323.3 0-93.3 21.1-176.9 63.2-251 42.1-74 101.9-132.5 179.4-175.6 77.5-43 162.4-64.5 254.8-64.5zM2244 89c-70.8 0-131.6 16.2-182.4 48.6-50.8 32.4-91.5 80-122.2 143-30.6 62.9-45.9 140.6-45.9 232.9 0 88.3 15.1 163.1 45.2 224.5 30.2 61.4 70.7 108.3 121.5 140.9s108 48.9 171.5 48.9c63 0 118.9-16 167.4-47.9s88.7-82.2 120.5-150.8c31.7-68.6 47.6-144.8 47.6-228.5 0-85.1-15.9-163-47.6-233.6-27.2-60.7-63.3-105.5-108.2-134.5-44.9-29-100.7-43.5-167.4-43.5zM2873.6 0h47.5l6.8 31.9h581.4l5.4-31.9h49.6l99.8 278.5-61.1 21.7c-29.4-74.3-64.3-126.4-104.6-156.5-40.3-30.1-91.9-45.2-154.8-45.2-26.3 0-41.9 1-46.9 3.1-5 2-8.5 5.6-10.5 10.5-2 5-3.1 20.8-3.1 47.5V817c0 31.2 1.7 52.3 5.1 63.2 3.4 10.9 8.3 19.2 14.6 25.1 6.3 5.9 15.1 10.1 26.1 12.6 11.1 2.5 35.9 4 74.4 4.4v57.1H3038v-57.1c40.3-.4 65-1.8 74-4.1 15.8-4.6 27.2-13.2 34-26 6.8-12.7 10.2-36.2 10.2-70.4V150.7c0-20.8-1-33.5-3.1-38-2-4.5-5.9-8-11.5-10.5-5.7-2.5-17.3-3.7-35-3.7-49.4 0-88.9 6.3-118.5 19-29.7 12.7-57.6 34.2-83.9 64.5-26.3 30.3-48.7 69.7-67.2 118.2l-61.1-21.7L2873.6 0zM4356.3 31.9h49l72.5 292-63.2 19c-39.8-81.9-92.7-146.5-158.7-193.6-54.3-39.4-114.4-59.1-180.4-59.1-39.8 0-75.5 7.1-107.2 21.4-31.7 14.2-55.4 32.7-71.2 55.3-15.8 22.6-23.7 45.7-23.7 69.2 0 21.2 6.1 41.8 18.4 61.7 12.2 19.9 30.8 37.4 55.7 52.5 24.9 15.1 65.7 31.1 122.3 47.8l177.2 52.4c21.7 6.3 53.3 18.6 94.7 36.7 41.4 18.1 73.7 37.3 96.7 57.4 23.1 20.2 41.2 44.9 54.3 74.1 13.1 29.2 19.7 60.8 19.7 94.8 0 75.2-32.9 141-98.8 197.4-65.9 56.4-151.1 84.6-255.7 84.6-53.9 0-102.1-7.8-144.7-23.4-42.6-15.6-88.5-43.3-137.9-83.2l-31.2 90.3h-47.6l-63.1-340.3 63.2-12.9c23.1 62.9 53.8 116.4 92 160.3 38.3 43.9 80.6 77.1 127 99.5 46.4 22.4 93.6 33.6 141.6 33.6 65.2 0 122.3-19.7 171.2-59.1 40.7-33 61.1-72 61.1-116.8 0-41.2-14.7-74.9-44.1-101.2-29.9-26.3-83.3-50.7-160.3-73.4L4015.3 520c-95.1-27.6-162.1-62.9-201-105.9-38.9-43-58.4-92.4-58.4-148.1 0-43.5 12.7-83.6 38-120.5 25.4-36.9 64.3-67.8 116.8-92.7 52.5-24.9 110-37.4 172.5-37.4 52.5 0 102.8 9.1 150.8 27.2 34 12.7 65.2 30.8 93.7 54.3l28.6-65zM368.2 2198.1c0 33-7.2 61.9-21.6 86.8-14.4 24.9-34.6 44-60.6 57.3-25.9 13.4-56 20-90 20H81v-321.7h114.4c34.1 0 64.2 6.7 90.3 20 26.1 13.4 46.4 31.9 60.8 55.7 14.4 23.9 21.7 51.2 21.7 81.9zm-25.6 4.3c0-28.4-6-53-18.1-73.9-12.1-20.9-29.4-37-52-48.2-22.6-11.3-49.1-16.9-79.3-16.9h-87.7v276.3h91.6c28.9 0 54.3-5.8 76.3-17.3s39.1-27.6 51.1-48.4c12.1-20.7 18.1-44.6 18.1-71.6zM617.5 2062.9v125.7h140.7v22.8H617.5v128.7h149v22.1H593.1v-321.7h169.2v22.3H617.5zm60.8-44h-17l48.1-72.5h29.7l-60.8 72.5zM1244.2 2060.8v27.9c-33.9-19.5-69.5-29.2-106.6-29.2-27.3 0-51.7 6.3-73.1 18.9-21.4 12.6-37.9 29.8-49.5 51.7-11.6 21.9-17.4 45.9-17.4 72 0 26.7 5.9 50.7 17.7 72.1 11.8 21.3 28.3 38.2 49.5 50.7 21.2 12.4 45.4 18.7 72.8 18.7 38.4 0 74.4-10.2 108-30.6v28.3c-33.3 16.9-69.3 25.3-108 25.3-33.6 0-63-7.4-88.2-22.3-25.2-14.9-44.4-34.8-57.8-59.9-13.4-25-20-52-20-80.8 0-31.8 7.2-60.3 21.5-85.7 14.4-25.3 34.1-45.2 59.2-59.6 25.1-14.4 53.7-21.6 85.8-21.6 35.6-.3 70.9 7.8 106.1 24.1zM1783.6 2199.4c0 31.2-7.1 59.4-21.2 84.7s-33.9 45.4-59.4 60.1c-25.5 14.7-54.6 22.1-87.3 22.1-32.1 0-60.6-7.4-85.5-22.1-25-14.7-44.4-34.5-58.3-59.4-13.9-24.9-20.8-51.9-20.8-81.1 0-31.5 7-59.9 21.1-85.4 14-25.5 33.6-45.5 58.7-60.1 25.1-14.6 53.5-21.9 85.3-21.9 33.6 0 63.1 7.4 88.4 22.3 25.3 14.9 44.8 34.8 58.5 59.6 13.7 25.1 20.5 52.1 20.5 81.2zm-306.9 2.6c0 26.4 6.1 50.3 18.4 71.8s29 38.4 50.2 50.7c21.2 12.3 44.5 18.4 70 18.4 30.2 0 56.1-6.8 77.6-20.5 21.5-13.7 37.8-31.4 48.8-53.1 11.1-21.7 16.6-44.3 16.6-67.8 0-25.5-5.8-49-17.3-70.6-11.5-21.6-27.9-38.8-49-51.7-21.2-12.9-45.7-19.3-73.5-19.3-28.6 0-53.5 6.4-74.9 19.3-21.4 12.9-37.9 30.2-49.5 51.9-11.6 21.8-17.4 45.4-17.4 70.9zM2187.2 2124.1c0 21-5.9 38.3-17.7 51.8-11.8 13.5-28.4 22.5-49.7 26.9 11.1 4.6 20 10.4 26.9 17.4 6.9 7 15.7 18.6 26.5 34.9l68.4 107.1h-29.9l-61.7-98.6c-13.2-20.7-25.4-34.8-36.5-42.1-11.1-7.4-25.1-11.1-41.8-11.1h-39.1v151.7h-24.4v-321.7h81.1c31.5 0 55.7 7.5 72.6 22.5 16.9 15.1 25.3 35.5 25.3 61.2zm-25.5 0c0-22.4-6.8-38.2-20.5-47.4-13.7-9.2-33.1-13.8-58.3-13.8h-50.4v124.8h37.3c29.9 0 52.7-4.6 68.4-13.9 15.7-9.3 23.5-25.9 23.5-49.7zM2680.9 2362.2l-47.2-106.6h-156.1l-45.6 106.6h-26l140.5-324h17.5l143 324h-26.1zm-126-285.7l-67.5 157h136.3l-68.8-157zM2993.1 2062.9v299.3h-24.4v-299.3h-116.5v-22.3h258.3v22.3h-117.4zM3319.1 2362.2v-321.7h24.4v321.7h-24.4zM3900.4 2199.4c0 31.2-7.1 59.4-21.2 84.7s-33.9 45.4-59.4 60.1c-25.5 14.7-54.6 22.1-87.3 22.1-32.1 0-60.6-7.4-85.5-22.1-24.9-14.7-44.4-34.5-58.3-59.4-13.9-24.9-20.8-51.9-20.8-81.1 0-31.5 7-59.9 21.1-85.4 14-25.5 33.6-45.5 58.7-60.1s53.5-21.9 85.3-21.9c33.6 0 63.1 7.4 88.4 22.3 25.3 14.9 44.8 34.8 58.5 59.6 13.7 25.1 20.5 52.1 20.5 81.2zm-306.9 2.6c0 26.4 6.1 50.3 18.4 71.8 12.3 21.5 29 38.4 50.2 50.7 21.2 12.3 44.5 18.4 70 18.4 30.2 0 56.1-6.8 77.6-20.5 21.5-13.7 37.8-31.4 48.8-53.1 11.1-21.7 16.6-44.3 16.6-67.8 0-25.5-5.8-49-17.3-70.6-11.5-21.6-27.9-38.8-49-51.7-21.2-12.9-45.7-19.3-73.5-19.3-28.6 0-53.5 6.4-74.9 19.3-21.4 12.9-37.9 30.2-49.5 51.9-11.6 21.8-17.4 45.4-17.4 70.9zM4385.5 2040.6h23.7v321.7h-21.9l-239-282.1v282.1h-23.5v-321.7h21.2l239.5 283v-283z"></path> <g><circle cx="1895.1" cy="1518.1" r="51.4"></circle> <circle cx="2617.3" cy="1518.1" r="51.4"></circle> <circle cx="2256.2" cy="1518.1" r="51.4"></circle></g></g></svg>