<?xml version="1.0" encoding="UTF-8"?>
<svg width="600px" height="277px" xmlns="http://www.w3.org/2000/svg" xmlns:xlink="http://www.w3.org/1999/xlink" id="Layer_1" viewBox="0 0 231.51 106.8">
  <defs>
    <style>.cls-1{fill:none;}.cls-2{clip-path:url(#clip-path);}.cls-3{fill:#2c2584;}</style>
    <clipPath id="clip-path" transform="translate(0 0)">
      <rect class="cls-1" width="231.51" height="106.8"></rect>
    </clipPath>
  </defs>
  <title>ranson</title>
  <g class="cls-2">
    <path class="cls-3" d="M0,106.38V84.18H8.34c5.46,0,8.73,1.95,8.73,6.87,0,3.51-1.65,5.43-4.62,6.33l4.95,9H12.24L7.62,98H4.8v8.37ZM4.8,94.23H8.13c2.82,0,4.17-.81,4.17-3.06s-1.35-3-4.17-3H4.8Z" transform="translate(0 0)"></path>
    <path class="cls-3" d="M21.48,106.38l7.86-22.29H34l7.86,22.29H36.9l-1.65-5H27.69l-1.71,5Zm7.41-8.49h5.22l-2.55-7.56H31.5Z" transform="translate(0 0)"></path>
    <polygon class="cls-3" points="46.89 106.38 46.89 84.18 51.78 84.18 61.08 98.34 61.14 98.34 61.14 84.18 65.64 84.18 65.64 106.38 61.14 106.38 51.45 92.1 51.39 92.1 51.39 106.38 46.89 106.38"></polygon>
    <path class="cls-3" d="M71.55,101.34l3.69-2.19a6.59,6.59,0,0,0,6,3.78c2.25,0,3.87-.84,3.87-2.55s-1.59-2.4-4.5-3.21c-4-1.11-8.1-2.13-8.1-6.78,0-4.14,3.24-6.63,8-6.63a10,10,0,0,1,8.82,4.56L85.95,90.9a6.61,6.61,0,0,0-5.46-3.15c-2.07,0-3.21.9-3.21,2.22,0,1.77,1.65,2.4,4.56,3.21,3.9,1.05,8,2.28,8,6.87,0,3.57-2.7,6.75-8.88,6.75-4.8,0-7.8-2.28-9.45-5.46" transform="translate(0 0)"></path>
    <path class="cls-3" d="M94.56,95.28c0-7.8,5.1-11.52,10.47-11.52s10.44,3.72,10.44,11.52S110.37,106.8,105,106.8s-10.47-3.72-10.47-11.52m16,0c0-4.65-2.16-7.47-5.58-7.47s-5.58,2.82-5.58,7.47,2.13,7.59,5.58,7.59,5.58-2.94,5.58-7.59" transform="translate(0 0)"></path>
    <polygon class="cls-3" points="121.11 106.38 121.11 84.18 126 84.18 135.3 98.34 135.36 98.34 135.36 84.18 139.86 84.18 139.86 106.38 135.36 106.38 125.67 92.1 125.61 92.1 125.61 106.38 121.11 106.38"></polygon>
    <path class="cls-3" d="M191.86,44.55l-9.34-3L176.81,59.1l9.34,3a9.24,9.24,0,1,0,5.71-17.58" transform="translate(0 0)"></path>
    <path class="cls-3" d="M231.17,82.82c-4.19-32.44-23.68-61-23.68-61-33.49-46.56-48.61-4.1-48.61-4.1-8.44,21.43-11.2,48.69-11.2,48.69-.1.7-.17,1.37-.24,2h0a42.76,42.76,0,0,0,.29,11.44l.1.5c0,.18.07.35.11.53q.12.53.25,1l.08.27c.1.34.2.67.31,1l0,.11a16.21,16.21,0,0,0,6.94,8.79c17.24,11.18,48.61,14,48.61,14,16.21,1.74,22.92-4.06,25.59-10.28a23.72,23.72,0,0,0,1.43-13M212.45,61a21.53,21.53,0,0,1-13.31,13.66l2.68,19.06-15.4-5.06-2-14.09L173,70.82,169,83l-13.55-4.4,4-12.16,3.81-11.72L169,37.11l3.51-10.81.3-.92L199.15,34h0a21.57,21.57,0,0,1,13.31,27" transform="translate(0 0)"></path>
  </g>
</svg>
